<svg width="34" height="24" viewBox="0 0 34 24" fill="none" xmlns="http://www.w3.org/2000/svg">
<path d="M10.9496 7.78122C10.9496 6.99987 10.2723 6.36646 9.43696 6.36646C8.60155 6.36646 7.92433 6.99987 7.92433 7.78122V8.4886H7.16802C6.33261 8.4886 5.6554 9.12201 5.6554 9.90337C5.6554 10.6847 6.33261 11.3181 7.16802 11.3181H7.92433V12.0255C7.92433 12.8069 8.60155 13.4403 9.43696 13.4403C10.2723 13.4403 10.9496 12.8069 10.9496 12.0255V11.3181H11.7059C12.5413 11.3181 13.2185 10.6847 13.2185 9.90337C13.2185 9.12201 12.5413 8.4886 11.7059 8.4886H10.9496V7.78122Z" fill="#F8EECB"/>
<path d="M26.0758 7.07382C26.0758 7.85518 25.3986 8.48859 24.5632 8.48859C23.7277 8.48859 23.0505 7.85518 23.0505 7.07382C23.0505 6.29248 23.7277 5.65906 24.5632 5.65906C25.3986 5.65906 26.0758 6.29248 26.0758 7.07382Z" fill="#F8EECB"/>
<path d="M24.5632 14.1476C25.3986 14.1476 26.0758 13.5143 26.0758 12.7329C26.0758 11.9515 25.3986 11.3181 24.5632 11.3181C23.7277 11.3181 23.0505 11.9515 23.0505 12.7329C23.0505 13.5143 23.7277 14.1476 24.5632 14.1476Z" fill="#F8EECB"/>
<path d="M23.0505 9.90329C23.0505 10.6847 22.3733 11.3181 21.5379 11.3181C20.7025 11.3181 20.0253 10.6847 20.0253 9.90329C20.0253 9.12193 20.7025 8.48853 21.5379 8.48853C22.3733 8.48853 23.0505 9.12193 23.0505 9.90329Z" fill="#F8EECB"/>
<path d="M27.5883 11.3181C28.4237 11.3181 29.1009 10.6847 29.1009 9.90329C29.1009 9.12193 28.4237 8.48853 27.5883 8.48853C26.7529 8.48853 26.0757 9.12193 26.0757 9.90329C26.0757 10.6847 26.7529 11.3181 27.5883 11.3181Z" fill="#F8EECB"/>
<path fill-rule="evenodd" clip-rule="evenodd" d="M17 0C14.259 0 10.8926 0.36525 8.25377 0.72054C4.8129 1.18382 2.01138 3.56091 1.28376 6.77432C0.876581 8.57256 0.47755 10.6987 0.386112 12.4788C0.320549 13.7551 0.1766 15.5385 0.0240884 17.2492C-0.134584 19.0292 0.499544 20.8627 1.66322 22.1667C2.85069 23.4974 4.73137 24.3944 6.90123 23.8265C8.29056 23.4627 9.40073 22.5495 10.2242 21.6496C11.066 20.7298 11.736 19.6828 12.2131 18.8309C12.5805 18.1751 13.2326 17.8055 13.8468 17.8055H20.1532C20.7674 17.8055 21.4196 18.1751 21.7869 18.8309C22.2641 19.6828 22.9341 20.7298 23.7758 21.6496C24.5993 22.5495 25.7094 23.4627 27.0988 23.8265C29.2686 24.3944 31.1493 23.4974 32.3368 22.1667C33.5005 20.8627 34.1346 19.0292 33.9759 17.2492C33.8234 15.5385 33.6794 13.7551 33.6139 12.4788C33.5224 10.6987 33.1234 8.57256 32.7162 6.77432C31.9886 3.56091 29.1871 1.18382 25.7462 0.72054C23.1074 0.36525 19.7411 0 17 0ZM8.68482 3.52119C11.2936 3.16996 14.4842 2.82953 17 2.82953C19.5158 2.82953 22.7064 3.16996 25.3152 3.52121C27.5355 3.82013 29.2993 5.34058 29.7566 7.36055C30.1549 9.11908 30.5126 11.0667 30.5922 12.6146C30.6604 13.9439 30.8083 15.7694 30.9611 17.4844C31.0541 18.5272 30.6654 19.6239 30.0142 20.3537C29.3868 21.0568 28.6607 21.297 27.9141 21.1016C27.3611 20.9568 26.7303 20.5268 26.0741 19.8097C25.4361 19.1126 24.8875 18.269 24.4666 17.5179C23.6621 16.0812 22.0646 14.976 20.1532 14.976H13.8468C11.9354 14.976 10.338 16.0812 9.53333 17.5179C9.11258 18.269 8.5639 19.1126 7.92594 19.8097C7.26967 20.5268 6.63897 20.9568 6.08589 21.1016C5.33935 21.297 4.61319 21.0568 3.98579 20.3537C3.33463 19.6239 2.94591 18.5272 3.03888 17.4844C3.19176 15.7694 3.33959 13.9439 3.40787 12.6146C3.48738 11.0667 3.84518 9.11908 4.24336 7.36055C4.70075 5.34058 6.46456 3.82013 8.68482 3.52119Z" fill="#F8EECB"/>
</svg>
