<svg width="18" height="18" viewBox="0 0 18 18" fill="none" xmlns="http://www.w3.org/2000/svg">
<path d="M0 18V16H2V2C2 1.45 2.19583 0.979167 2.5875 0.5875C2.97917 0.195833 3.45 0 4 0H14C14.55 0 15.0208 0.195833 15.4125 0.5875C15.8042 0.979167 16 1.45 16 2V16H18V18H0ZM12 16H14V2H9.5V0.9C10.2333 1.03333 10.8333 1.375 11.3 1.925C11.7667 2.475 12 3.11667 12 3.85V16ZM8 10C8.28333 10 8.52083 9.90417 8.7125 9.7125C8.90417 9.52083 9 9.28333 9 9C9 8.71667 8.90417 8.47917 8.7125 8.2875C8.52083 8.09583 8.28333 8 8 8C7.71667 8 7.47917 8.09583 7.2875 8.2875C7.09583 8.47917 7 8.71667 7 9C7 9.28333 7.09583 9.52083 7.2875 9.7125C7.47917 9.90417 7.71667 10 8 10Z" fill="#4D7E3E"/>
</svg>
