<svg width="34" height="38" viewBox="0 0 34 38" fill="none" xmlns="http://www.w3.org/2000/svg">
<path d="M25.6259 13.8244C28.3584 15.5406 29.7245 16.3987 30.1931 17.4975C30.6023 18.4569 30.6023 19.5431 30.1931 20.5026C29.7245 21.6012 28.3584 22.4593 25.6259 24.1757L12.792 32.2367C9.7593 34.1415 8.24293 35.094 6.99159 34.9927C5.90084 34.9046 4.90098 34.3478 4.24852 33.4649C3.5 32.4522 3.5 30.6551 3.5 27.061V10.9391C3.5 7.34501 3.5 5.548 4.24852 4.53518C4.90098 3.65233 5.90084 3.09542 6.99159 3.00729C8.24293 2.9062 9.7593 3.85862 12.792 5.76347L25.6259 13.8244Z" stroke="#F8EECB" stroke-width="6" stroke-linejoin="round"/>
</svg>
