<svg width="28" height="28" viewBox="0 0 28 28" fill="none" xmlns="http://www.w3.org/2000/svg">
<path fill-rule="evenodd" clip-rule="evenodd" d="M23.1876 25.2H4.81344C3.82449 25.2 3.09421 24.2242 3.46721 23.3268C5.19787 19.1772 9.2637 16.8 13.9998 16.8C18.7373 16.8 22.8031 19.1772 24.5338 23.3268C24.9068 24.2242 24.1765 25.2 23.1876 25.2ZM8.28333 8.39998C8.28333 5.31158 10.8486 2.79998 13.9998 2.79998C17.1524 2.79998 19.7162 5.31158 19.7162 8.39998C19.7162 11.4884 17.1524 14 13.9998 14C10.8486 14 8.28333 11.4884 8.28333 8.39998ZM27.9379 24.6904C26.899 19.9878 23.6492 16.5171 19.3718 14.9421C21.6384 13.1543 22.9603 10.2633 22.4744 7.0979C21.9114 3.4257 18.793 0.487167 15.0288 0.0587676C9.83249 -0.533432 5.4251 3.42858 5.4251 8.39998C5.4251 11.046 6.67701 13.4035 8.62918 14.9421C4.35041 16.5171 1.10203 19.9878 0.0616336 24.6904C-0.315653 26.3997 1.0906 28 2.87556 28H25.124C26.9104 28 28.3167 26.3997 27.9379 24.6904Z" fill="#F8EECB"/>
</svg>
