<svg width="34" height="40" viewBox="0 0 34 40" fill="none" xmlns="http://www.w3.org/2000/svg">
<path fill-rule="evenodd" clip-rule="evenodd" d="M21.9999 0H5.33325C4.00838 0.00395682 2.73891 0.532011 1.80209 1.46884C0.865263 2.40566 0.337209 3.67513 0.333252 5L0.333252 28.3167C0.337209 29.6415 0.865263 30.911 1.80209 31.8478C2.73891 32.7846 4.00838 33.3127 5.33325 33.3167H21.9999C23.3248 33.3127 24.5942 32.7846 25.5311 31.8478C26.4679 30.911 26.9959 29.6415 26.9999 28.3167V5C26.9959 3.67513 26.4679 2.40566 25.5311 1.46884C24.5942 0.532011 23.3248 0.00395682 21.9999 0ZM23.6666 28.3167C23.6597 28.7565 23.4819 29.1765 23.1708 29.4876C22.8597 29.7986 22.4398 29.9764 21.9999 29.9833H5.33325C4.89337 29.9764 4.47343 29.7986 4.16234 29.4876C3.85126 29.1765 3.67346 28.7565 3.66658 28.3167V5C3.67346 4.56011 3.85126 4.14017 4.16234 3.82909C4.47343 3.51801 4.89337 3.34021 5.33325 3.33333H21.9999C22.9149 3.34833 23.6516 4.085 23.6666 5V28.3167Z" fill="#F8EECB"/>
<path fill-rule="evenodd" clip-rule="evenodd" d="M33.6667 11.6667V35C33.6627 36.3249 33.1346 37.5943 32.1978 38.5312C31.261 39.468 29.9915 39.996 28.6667 40H8.66667C8.22464 40 7.80072 39.8244 7.48816 39.5118C7.17559 39.1993 7 38.7754 7 38.3333C7 37.8913 7.17559 37.4674 7.48816 37.1548C7.80072 36.8423 8.22464 36.6667 8.66667 36.6667H28.6667C29.1065 36.6598 29.5265 36.482 29.8376 36.1709C30.1486 35.8598 30.3264 35.4399 30.3333 35V11.6667C30.3333 11.2246 30.5089 10.8007 30.8215 10.4882C31.134 10.1756 31.558 10 32 10C32.442 10 32.8659 10.1756 33.1785 10.4882C33.4911 10.8007 33.6667 11.2246 33.6667 11.6667Z" fill="#F8EECB"/>
<path d="M13.6667 26.6668C14.5871 26.6668 15.3333 25.9206 15.3333 25.0002C15.3333 24.0797 14.5871 23.3335 13.6667 23.3335C12.7462 23.3335 12 24.0797 12 25.0002C12 25.9206 12.7462 26.6668 13.6667 26.6668Z" fill="#F8EECB"/>
<path fill-rule="evenodd" clip-rule="evenodd" d="M20.3333 13.3334C20.3345 14.8111 19.8437 16.2472 18.9384 17.4151C18.0331 18.5829 16.7647 19.4162 15.3333 19.7834V20.0001C15.3333 20.4421 15.1577 20.866 14.8452 21.1786C14.5326 21.4911 14.1087 21.6667 13.6667 21.6667C13.2246 21.6667 12.8007 21.4911 12.4882 21.1786C12.1756 20.866 12 20.4421 12 20.0001V18.3334C12 17.8914 12.1756 17.4675 12.4882 17.1549C12.8007 16.8423 13.2246 16.6667 13.6667 16.6667C14.3259 16.6667 14.9704 16.4712 15.5186 16.105C16.0667 15.7387 16.494 15.2181 16.7463 14.609C16.9986 13.9999 17.0646 13.3297 16.9359 12.6831C16.8073 12.0365 16.4899 11.4426 16.0237 10.9764C15.5575 10.5102 14.9636 10.1927 14.317 10.0641C13.6704 9.93551 13.0001 10.0015 12.3911 10.2538C11.782 10.5061 11.2614 10.9333 10.8951 11.4815C10.5288 12.0297 10.3333 12.6741 10.3333 13.3334C10.3333 13.7754 10.1577 14.1994 9.84518 14.5119C9.53262 14.8245 9.10869 15.0001 8.66667 15.0001C8.22464 15.0001 7.80072 14.8245 7.48816 14.5119C7.17559 14.1994 7 13.7754 7 13.3334C7 11.5653 7.70238 9.86961 8.95262 8.61937C10.2029 7.36913 11.8986 6.66675 13.6667 6.66675C15.4348 6.66675 17.1305 7.36913 18.3807 8.61937C19.6309 9.86961 20.3333 11.5653 20.3333 13.3334Z" fill="#F8EECB"/>
</svg>
