<svg width="44" height="44" viewBox="0 0 44 44" fill="none" xmlns="http://www.w3.org/2000/svg">
<path d="M5.5 19.4792H38.5M31.1667 4.8125V12.1458M12.8333 4.8125V12.1458M31.1667 8.47917H12.8333C10.8884 8.47917 9.02315 9.25178 7.64788 10.6271C6.27262 12.0023 5.5 13.8676 5.5 15.8125V31.8542C5.5 33.7991 6.27262 35.6643 7.64788 37.0396C9.02315 38.4149 10.8884 39.1875 12.8333 39.1875H31.1667C33.1116 39.1875 34.9768 38.4149 36.3521 37.0396C37.7274 35.6643 38.5 33.7991 38.5 31.8542V15.8125C38.5 13.8676 37.7274 12.0023 36.3521 10.6271C34.9768 9.25178 33.1116 8.47917 31.1667 8.47917Z" stroke="#F8EECB" stroke-width="3" stroke-linecap="round" stroke-linejoin="round"/>
<path d="M15.3604 30.1982C15.3604 30.459 15.3105 30.7051 15.2109 30.9365C15.1143 31.165 14.9795 31.3657 14.8066 31.5386C14.6367 31.7085 14.436 31.8433 14.2046 31.9429C13.9761 32.0396 13.7314 32.0879 13.4707 32.0879C13.2363 32.0879 13.0107 32.0469 12.7939 31.9648C12.5801 31.8828 12.3867 31.7627 12.2139 31.6045C12.041 31.7627 11.8462 31.8828 11.6294 31.9648C11.4126 32.0469 11.187 32.0879 10.9526 32.0879C10.6919 32.0879 10.4458 32.0396 10.2144 31.9429C9.98584 31.8433 9.78516 31.7085 9.6123 31.5386C9.44238 31.3657 9.30762 31.165 9.20801 30.9365C9.11133 30.7051 9.06299 30.459 9.06299 30.1982V25.6982H10.3242V30.1982C10.3242 30.2861 10.3403 30.3696 10.3726 30.4487C10.4048 30.5249 10.4487 30.5923 10.5044 30.6509C10.563 30.7065 10.6304 30.7505 10.7065 30.7827C10.7827 30.8149 10.8647 30.8311 10.9526 30.8311C11.0405 30.8311 11.1226 30.8149 11.1987 30.7827C11.2749 30.7505 11.3408 30.7065 11.3965 30.6509C11.4551 30.5923 11.5005 30.5249 11.5327 30.4487C11.5649 30.3696 11.5811 30.2861 11.5811 30.1982V25.6982H12.8423V30.1982C12.8423 30.2861 12.8584 30.3696 12.8906 30.4487C12.9229 30.5249 12.9668 30.5923 13.0225 30.6509C13.0811 30.7065 13.1484 30.7505 13.2246 30.7827C13.3008 30.8149 13.3828 30.8311 13.4707 30.8311C13.5586 30.8311 13.6406 30.8149 13.7168 30.7827C13.793 30.7505 13.8589 30.7065 13.9146 30.6509C13.9731 30.5923 14.0186 30.5249 14.0508 30.4487C14.0859 30.3696 14.1035 30.2861 14.1035 30.1982V25.6982H15.3604V30.1982ZM22.6641 28.8755C22.6641 29.1743 22.6245 29.4629 22.5454 29.7412C22.4692 30.0166 22.3608 30.2759 22.2202 30.519C22.0796 30.7593 21.9097 30.979 21.7104 31.1782C21.5112 31.3774 21.2915 31.5488 21.0513 31.6924C20.811 31.833 20.5518 31.9414 20.2734 32.0176C19.9951 32.0967 19.7065 32.1362 19.4077 32.1362C19.1089 32.1362 18.8203 32.0967 18.542 32.0176C18.2666 31.9414 18.0073 31.833 17.7642 31.6924C17.5239 31.5488 17.3042 31.3774 17.105 31.1782C16.9058 30.979 16.7344 30.7593 16.5908 30.519C16.4502 30.2759 16.3403 30.0166 16.2612 29.7412C16.1851 29.4629 16.147 29.1743 16.147 28.8755C16.147 28.5767 16.1851 28.2881 16.2612 28.0098C16.3403 27.7314 16.4502 27.4722 16.5908 27.2319C16.7344 26.9917 16.9058 26.772 17.105 26.5728C17.3042 26.3735 17.5239 26.2036 17.7642 26.063C18.0073 25.9224 18.2666 25.814 18.542 25.7378C18.8203 25.6587 19.1089 25.6191 19.4077 25.6191C19.7065 25.6191 19.9951 25.6587 20.2734 25.7378C20.5518 25.814 20.811 25.9224 21.0513 26.063C21.2915 26.2036 21.5112 26.3735 21.7104 26.5728C21.9097 26.772 22.0796 26.9917 22.2202 27.2319C22.3608 27.4722 22.4692 27.7314 22.5454 28.0098C22.6245 28.2881 22.6641 28.5767 22.6641 28.8755ZM21.4116 28.8755C21.4116 28.6001 21.3589 28.3408 21.2534 28.0977C21.1479 27.8516 21.0044 27.6392 20.8228 27.4604C20.644 27.2788 20.4316 27.1353 20.1855 27.0298C19.9424 26.9243 19.6831 26.8716 19.4077 26.8716C19.1294 26.8716 18.8687 26.9243 18.6255 27.0298C18.3823 27.1353 18.1699 27.2788 17.9883 27.4604C17.8066 27.6392 17.6631 27.8516 17.5576 28.0977C17.4521 28.3408 17.3994 28.6001 17.3994 28.8755C17.3994 29.1509 17.4521 29.4102 17.5576 29.6533C17.6631 29.8936 17.8066 30.1045 17.9883 30.2861C18.1699 30.4678 18.3823 30.6113 18.6255 30.7168C18.8687 30.8223 19.1294 30.875 19.4077 30.875C19.6831 30.875 19.9424 30.8223 20.1855 30.7168C20.4316 30.6113 20.644 30.4678 20.8228 30.2861C21.0044 30.1045 21.1479 29.8936 21.2534 29.6533C21.3589 29.4102 21.4116 29.1509 21.4116 28.8755ZM24.7559 26.9595V29.4819H26.0171C26.1899 29.4819 26.3525 29.4497 26.5049 29.3853C26.6572 29.3179 26.7905 29.2271 26.9048 29.1128C27.019 28.9985 27.1084 28.8652 27.1729 28.7129C27.2402 28.5576 27.2739 28.3936 27.2739 28.2207C27.2739 28.0479 27.2402 27.8853 27.1729 27.7329C27.1084 27.5776 27.019 27.4429 26.9048 27.3286C26.7905 27.2144 26.6572 27.125 26.5049 27.0605C26.3525 26.9932 26.1899 26.9595 26.0171 26.9595H24.7559ZM24.7559 32H23.4946V25.6982H26.0171C26.2485 25.6982 26.4712 25.729 26.6851 25.7905C26.8989 25.8491 27.0981 25.9341 27.2827 26.0454C27.4702 26.1538 27.6401 26.2856 27.7925 26.4409C27.9478 26.5933 28.0796 26.7632 28.188 26.9507C28.2993 27.1382 28.3843 27.3389 28.4429 27.5527C28.5044 27.7666 28.5352 27.9893 28.5352 28.2207C28.5352 28.4375 28.5073 28.6484 28.4517 28.8535C28.3989 29.0586 28.3213 29.2534 28.2188 29.438C28.1191 29.6226 27.9961 29.7925 27.8496 29.9478C27.7031 30.103 27.5391 30.2378 27.3574 30.3521L28.0562 32H26.7158L26.1665 30.73L24.7559 30.7388V32ZM34.415 28.8491C34.415 29.1392 34.377 29.4189 34.3008 29.6885C34.2275 29.9551 34.1221 30.2056 33.9844 30.4399C33.8467 30.6714 33.6826 30.8838 33.4922 31.0771C33.3018 31.2676 33.0894 31.4316 32.855 31.5693C32.6206 31.707 32.3687 31.814 32.0991 31.8901C31.8325 31.9634 31.5542 32 31.2642 32H29.3657V25.6982H31.2642C31.5542 25.6982 31.8325 25.7363 32.0991 25.8125C32.3687 25.8857 32.6206 25.9912 32.855 26.1289C33.0894 26.2666 33.3018 26.4321 33.4922 26.6255C33.6826 26.8159 33.8467 27.0283 33.9844 27.2627C34.1221 27.4941 34.2275 27.7446 34.3008 28.0142C34.377 28.2808 34.415 28.5591 34.415 28.8491ZM33.1538 28.8491C33.1538 28.5884 33.104 28.3438 33.0044 28.1152C32.9077 27.8867 32.7729 27.6875 32.6001 27.5176C32.4302 27.3447 32.2295 27.2085 31.998 27.1089C31.7695 27.0093 31.5249 26.9595 31.2642 26.9595H30.6357V30.7388H31.2642C31.5249 30.7388 31.7695 30.6904 31.998 30.5938C32.2295 30.4941 32.4302 30.3594 32.6001 30.1895C32.7729 30.0166 32.9077 29.8159 33.0044 29.5874C33.104 29.356 33.1538 29.1099 33.1538 28.8491Z" fill="#F8EECB"/>
</svg>
