<svg width="1000" height="1000" viewBox="0 0 1000 1000" fill="none" xmlns="http://www.w3.org/2000/svg">
<g clip-path="url(#clip0_508_306)">
<g clip-path="url(#clip1_508_306)">
<g clip-path="url(#clip2_508_306)">
<g clip-path="url(#clip3_508_306)">
<g clip-path="url(#clip4_508_306)">
<g clip-path="url(#clip5_508_306)">
<path d="M499.5 792.357C661.241 792.357 792.357 661.241 792.357 499.5C792.357 337.759 661.241 206.643 499.5 206.643C337.759 206.643 206.643 337.759 206.643 499.5C206.643 661.241 337.759 792.357 499.5 792.357Z" fill="#4D7E3E"/>
<g clip-path="url(#clip6_508_306)">
<path d="M490.915 293.467H293.467V336.39H490.915V293.467Z" fill="white"/>
<path d="M490.915 370.729H293.467V413.653H490.915V370.729Z" fill="white"/>
<path d="M490.915 447.992H293.467V490.915H490.915V447.992Z" fill="white"/>
<path d="M705.533 508.085H508.085V551.008H705.533V508.085Z" fill="white"/>
<path d="M705.533 585.347H508.085V628.271H705.533V585.347Z" fill="white"/>
<path d="M705.533 662.61H508.085V705.533H705.533V662.61Z" fill="white"/>
<path d="M490.915 508.085H447.992V705.533H490.915V508.085Z" fill="white"/>
<path d="M413.653 508.085H370.729V705.533H413.653V508.085Z" fill="white"/>
<path d="M336.39 508.085H293.467V705.533H336.39V508.085Z" fill="white"/>
<path d="M705.533 293.467H662.609V490.915H705.533V293.467Z" fill="white"/>
<path d="M628.271 293.467H585.347V490.915H628.271V293.467Z" fill="white"/>
<path d="M551.008 293.467H508.085V490.915H551.008V293.467Z" fill="white"/>
</g>
<path d="M93.6536 327.404L84.5965 354.039L79.5465 352.671L80.0322 345.957C79.675 345.704 78.8143 345.282 77.4536 344.689C76.0608 344.111 74.2786 343.414 72.1036 342.596C69.9465 341.811 67.5822 340.982 65.0143 340.104L50.5393 335.182C47.8286 334.261 45.3572 333.446 43.1215 332.736C40.9 332.057 39.0643 331.525 37.6072 331.136C36.1429 330.768 35.2608 330.6 34.9643 330.625L31.2893 336.257L26.4179 334.25L35.4786 307.614L40.5643 308.993L40.0179 315.768C40.2286 315.996 41.1 316.421 42.6322 317.046C44.1429 317.664 46 318.414 48.2036 319.293C50.4143 320.15 52.7108 320.982 55.0929 321.793L69.5679 326.718C71.8108 327.482 74.0679 328.196 76.3429 328.868C78.625 329.514 80.5429 330.05 82.0929 330.471C83.6429 330.893 84.6393 331.104 85.0857 331.096L88.8215 325.407L93.6536 327.404ZM81.5179 363.079L72.5179 389.539L67.4822 388.139L67.9929 381.354C67.7143 381.104 66.9 380.696 65.5536 380.132C64.1822 379.561 62.4108 378.868 60.2393 378.05C58.0429 377.225 55.625 376.364 52.9858 375.468L38.5108 370.543C35.7322 369.596 33.2286 368.786 31.0108 368.107C28.7679 367.421 26.9179 366.886 25.4608 366.493C24.0036 366.1 23.1572 365.943 22.9215 366.021L19.225 371.725L14.3429 369.75L23.3429 343.293L28.4286 344.668L27.9179 351.339C28.1286 351.568 28.9286 351.971 30.3215 352.546C31.7072 353.146 33.4929 353.836 35.6822 354.604C37.8929 355.382 40.3536 356.232 43.0643 357.154L57.5393 362.079C60.1108 362.954 62.4858 363.746 64.6643 364.464C66.8679 365.189 68.7036 365.732 70.1679 366.1C71.6 366.482 72.5393 366.671 72.9858 366.668L76.6858 361.082L81.5179 363.079ZM52.6179 362.868L45.0822 360.304C45.8322 358.786 46.5929 357.011 47.3643 354.982C48.1108 352.943 49.0108 350.368 50.0679 347.261C51.1179 344.175 51.9679 341.6 52.6215 339.525C53.25 337.446 53.7322 335.575 54.0608 333.914L61.5929 336.479C61.0465 337.857 60.3786 339.546 59.5965 341.546C58.8036 343.571 57.8465 346.229 56.725 349.525C55.5965 352.843 54.7286 355.546 54.125 357.632C53.5286 359.696 53.025 361.443 52.6179 362.868Z" fill="#4D7E3E"/>
<path d="M106.807 302.607L97.0893 320.329L92.3714 318.079L93.4928 312.489L58.5607 269.104L58.4607 259.043L119.514 265.036L123.621 261.082L128.039 263.882L114.55 288.486L109.829 286.239L111.557 279.543L97.0214 278.032L93.3214 277.311L66.6321 274.629L68.8393 272.375L85.3178 291.289L87.6143 293.647L97.6571 304.893L102.371 299.839L106.807 302.607ZM89.325 297.454L83.0928 294.039C83.8357 292.843 84.6678 291.497 85.6 290.007C86.5178 288.539 87.6821 286.518 89.0928 283.943C90.4321 281.497 91.5071 279.439 92.3071 277.772C93.1107 276.1 93.8 274.664 94.3786 273.457L100.511 276.822C99.8714 277.989 99.0785 279.386 98.1321 281.007C97.1535 282.639 96.0107 284.643 94.7071 287.022C93.3321 289.532 92.2428 291.593 91.4428 293.211C90.6071 294.836 89.9035 296.25 89.325 297.454Z" fill="#4D7E3E"/>
<path d="M153.989 230.55C149.907 235.971 145.357 240.021 140.343 242.704C135.307 245.368 130.093 246.489 124.693 246.068C119.307 245.629 114.025 243.454 108.839 239.55C104.818 236.521 101.725 233.079 99.5607 229.229C97.3964 225.375 96.1929 221.271 95.95 216.914C95.6714 212.564 96.275 208.154 97.7607 203.682C99.2643 199.225 101.614 194.875 104.807 190.636C106.736 188.071 108.932 185.711 111.393 183.55C113.836 181.375 116.15 179.718 118.332 178.579L131.554 187.611L128.011 193.05L117.025 189.364C115.671 190.014 114.364 190.868 113.104 191.925C111.864 193 110.736 194.207 109.725 195.546C107.289 198.779 105.993 202.082 105.836 205.454C105.657 208.811 106.518 212.114 108.421 215.371C110.329 218.661 113.175 221.732 116.961 224.582C121.257 227.818 125.489 229.893 129.654 230.804C133.832 231.696 137.657 231.579 141.129 230.457C144.596 229.3 147.443 227.243 149.671 224.286C150.843 222.729 151.782 221.054 152.479 219.264C153.179 217.475 153.493 215.764 153.421 214.136L147.954 205.336L152.775 200.164L162.068 210.961C161.886 213.543 161.107 216.646 159.732 220.279C158.339 223.893 156.425 227.318 153.989 230.55Z" fill="#4D7E3E"/>
<path d="M222.514 158.593L202.111 177.961L198.275 174.407L201.829 168.686C201.629 168.296 201.064 167.521 200.136 166.364C199.171 165.203 197.918 163.757 196.371 162.021C194.829 160.321 193.121 158.489 191.254 156.521L180.729 145.432C178.757 143.357 176.946 141.486 175.296 139.818C173.646 138.186 172.268 136.857 171.161 135.836C170.036 134.828 169.332 134.268 169.057 134.157L163.182 137.436L159.807 133.393L180.211 114.025L184.071 117.607L180.439 123.353C180.518 123.653 181.093 124.436 182.161 125.7C183.211 126.95 184.507 128.475 186.046 130.278C187.607 132.064 189.254 133.871 190.986 135.696L201.511 146.786C203.143 148.503 204.807 150.189 206.511 151.839C208.232 153.471 209.679 154.836 210.854 155.932C212.029 157.028 212.814 157.675 213.214 157.878L219.164 154.578L222.514 158.593ZM195.182 184.536L174.911 203.778L171.104 200.196L174.711 194.425C174.579 194.071 174.05 193.336 173.118 192.211C172.171 191.068 170.925 189.632 169.382 187.896C167.821 186.146 166.082 184.257 164.161 182.236L153.636 171.146C151.614 169.018 149.779 167.136 148.129 165.503C146.461 163.853 145.071 162.518 143.964 161.493C142.857 160.468 142.182 159.936 141.939 159.896L136.014 163.225L132.607 159.207L152.879 139.968L156.739 143.55L153.189 149.218C153.268 149.518 153.789 150.246 154.754 151.407C155.7 152.586 156.964 154.021 158.543 155.721C160.139 157.439 161.921 159.336 163.893 161.411L174.418 172.5C176.286 174.468 178.021 176.278 179.618 177.925C181.232 179.589 182.604 180.928 183.729 181.932C184.818 182.939 185.564 183.543 185.961 183.746L191.832 180.521L195.182 184.536ZM169.693 170.911L164.214 165.139C165.586 164.146 167.082 162.928 168.711 161.486C170.321 160.025 172.314 158.168 174.693 155.907C177.057 153.664 179.007 151.778 180.55 150.246C182.075 148.696 183.368 147.264 184.432 145.95L189.911 151.721C188.786 152.686 187.411 153.871 185.786 155.278C184.143 156.703 182.061 158.611 179.536 161.007C176.993 163.418 174.968 165.411 173.464 166.975C171.975 168.525 170.718 169.836 169.693 170.911Z" fill="#4D7E3E"/>
<path d="M255.743 134.586L232.886 151.05L229.593 146.989L233.943 141.757C233.861 141.389 233.436 140.586 232.664 139.347C231.879 138.086 230.839 136.497 229.543 134.572C228.232 132.625 226.764 130.522 225.132 128.257L216.196 115.854C214.479 113.472 212.914 111.361 211.5 109.518C210.071 107.657 208.875 106.147 207.914 104.986C206.954 103.822 206.357 103.204 206.121 103.129L199.8 105.629L196.968 101.189L219.825 84.7251L223.168 88.7965L218.707 94.0644C218.746 94.3715 219.164 95.1644 219.964 96.443C220.743 97.7358 221.804 99.3322 223.136 101.229C224.486 103.147 225.996 105.264 227.671 107.586L236.607 119.993C238.193 122.197 239.668 124.222 241.029 126.068C242.404 127.936 243.582 129.443 244.564 130.593C245.511 131.736 246.164 132.436 246.529 132.689L252.961 130.157L255.743 134.586Z" fill="#4D7E3E"/>
<path d="M324.957 96.9179L297.518 111.547L294.704 107.132L299 103.625C298.271 103.147 297.543 102.725 296.814 102.357C296.121 102 295.043 101.497 293.579 100.854L274.746 93.0644L271.154 94.9787L268.8 90.568L272.257 87.7644L280.868 58.043L274.418 60.1822L272.207 55.4072L293.179 44.2251L296.032 48.8715L290.411 53.043L279.807 82.1001L277.371 78.1572L306.546 89.9965C308.921 90.8822 310.811 91.5965 312.214 92.1358C313.611 92.7072 314.696 93.1215 315.475 93.3751C316.254 93.6322 316.879 93.8287 317.346 93.9715L322.45 92.2144L324.957 96.9179ZM290.396 115.343L267.043 127.793L264.293 123.343L269.404 118.689C269.314 118.207 268.611 116.65 267.296 114.025C265.979 111.4 264.289 108.147 262.221 104.272L255.029 90.7787C253.646 88.1858 252.379 85.8858 251.221 83.8751C250.054 81.8394 249.079 80.193 248.293 78.9322C247.521 77.693 247.007 76.9894 246.75 76.8215L240.15 78.4501L237.939 73.6715L262.796 60.4215L265.532 64.9215L260.404 69.543C260.457 69.9072 260.793 70.7751 261.414 72.1501C262.004 73.5144 262.832 75.2251 263.9 77.2822C264.936 79.3322 266.129 81.618 267.475 84.1465L274.668 97.6358C276.736 101.511 278.514 104.718 280.004 107.25C281.471 109.797 282.35 111.257 282.632 111.636L288.236 110.579L290.396 115.343Z" fill="#4D7E3E"/>
<path d="M362.282 85.325C356.211 87.4036 350.393 88.0036 344.821 87.1214C339.225 86.2464 334.343 84.0607 330.168 80.5607C325.979 77.0928 322.914 72.5214 320.968 66.8464C318.936 60.9178 318.471 55.1786 319.575 49.6357C320.654 44.1 323.121 39.2 326.979 34.9321C330.836 30.6607 335.804 27.4893 341.871 25.4071C347.732 23.4 353.339 22.8607 358.693 23.7928C364.021 24.7321 368.718 26.9321 372.771 30.3964C376.857 33.875 379.896 38.5214 381.889 44.3321C383.632 49.4214 384.214 54.2036 383.636 58.6821C383.057 63.1571 381.711 67.1928 379.604 70.7821C377.471 74.3821 374.875 77.425 371.814 79.9107C368.754 82.3928 365.575 84.2 362.282 85.325ZM360.543 77.625C363.579 76.5857 365.836 74.9107 367.314 72.6071C368.818 70.2928 369.55 67.4071 369.514 63.95C369.479 60.4928 368.704 56.5571 367.193 52.1464C365.45 47.0571 363.268 42.8607 360.65 39.5571C358.046 36.2214 355.232 33.9143 352.211 32.625C349.189 31.3393 346.089 31.2393 342.914 32.3286C338.361 33.8893 335.432 36.9928 334.129 41.6393C332.857 46.3 333.361 51.9607 335.639 58.6107C337.318 63.5143 339.504 67.5643 342.189 70.7678C344.879 73.9678 347.789 76.1928 350.932 77.4357C354.096 78.675 357.3 78.7357 360.543 77.625Z" fill="#4D7E3E"/>
<path d="M425.636 10.8964L425.45 5.63208L454.239 2.97851C465.493 1.93922 474.521 3.76065 481.321 8.43922C488.143 13.0892 491.989 20.1071 492.854 29.4928C493.411 35.5392 492.411 41.0821 489.854 46.1285C487.293 51.1464 483.518 55.2392 478.529 58.3964C473.518 61.5607 467.643 63.4535 460.911 64.0749L431.089 66.8249L430.318 61.6535L436.832 59.3428C436.986 58.8571 436.996 57.0964 436.868 54.0607C436.736 51.0249 436.479 47.4178 436.093 43.2392L434.689 28.0178C434.286 23.6428 433.871 19.9535 433.443 16.9428C433.018 13.9321 432.689 12.2678 432.461 11.9392L425.636 10.8964ZM447.475 10.6678C447.514 11.0857 447.582 11.9714 447.682 13.3249C447.757 14.6821 447.882 16.4535 448.061 18.6428C448.214 20.8357 448.436 23.5285 448.732 26.7214L450.136 41.9464C450.3 43.7392 450.5 45.6285 450.732 47.6142C450.939 49.6035 451.182 51.4142 451.457 53.0499C451.711 54.7107 451.918 56.0321 452.082 57.0071C453.704 57.1285 455.296 57.2071 456.861 57.2356C458.45 57.2642 459.932 57.2142 461.307 57.0857C467.229 56.5392 471.546 54.4321 474.257 50.7607C476.964 47.0678 477.979 41.5464 477.304 34.1999C476.854 29.3357 475.921 25.2428 474.5 21.9285C473.054 18.6178 471.268 16.0178 469.132 14.1357C466.996 12.2249 464.632 10.8964 462.036 10.1428C459.439 9.41422 456.718 9.18208 453.868 9.44637C452.911 9.53565 451.882 9.67851 450.786 9.87851C449.664 10.0821 448.561 10.3428 447.475 10.6678Z" fill="#4D7E3E"/>
<path d="M537.789 62.65L509.646 61.3893L509.582 56.1607L516.243 54.7536C516.407 54.4143 516.571 53.5214 516.732 52.0714C516.896 50.5964 517.068 48.7036 517.246 46.3893C517.425 44.05 517.579 41.4893 517.704 38.7L518.389 23.4286C518.521 20.4964 518.6 17.8679 518.632 15.5464C518.664 13.2 518.664 11.275 518.632 9.76429C518.6 8.25714 518.514 7.4 518.375 7.19643L511.868 5.23929L512.4 0L540.543 1.26071L540.639 6.52857L533.871 7.89286C533.711 8.15714 533.55 9.03929 533.382 10.5393C533.193 12.0393 533.032 13.9464 532.904 16.2607C532.775 18.6 532.646 21.2036 532.514 24.0607L531.832 39.3357C531.711 42.0464 531.611 44.55 531.532 46.8429C531.454 49.1607 531.443 51.075 531.496 52.5857C531.529 54.0679 531.611 55.025 531.736 55.45L538.354 57.45L537.789 62.65Z" fill="#4D7E3E"/>
<path d="M585.275 71.1608C578.586 70.0072 572.904 67.8143 568.229 64.5822C563.557 61.3215 560.171 57.1965 558.079 52.2001C556.007 47.2108 555.525 41.5179 556.625 35.1215C557.479 30.1608 559.125 25.8358 561.564 22.1501C564.004 18.4643 567.104 15.5179 570.864 13.3108C574.604 11.0751 578.804 9.59648 583.461 8.87148C588.114 8.17148 593.054 8.27148 598.286 9.17148C601.447 9.71791 604.554 10.5893 607.6 11.7929C610.654 12.9715 613.182 14.2715 615.193 15.6929L613.207 31.5751L606.747 30.9143L605.004 19.4572C603.807 18.5501 602.45 17.7786 600.932 17.1393C599.411 16.5251 597.821 16.0786 596.168 15.7929C592.179 15.1072 588.65 15.4608 585.579 16.8608C582.511 18.2358 579.964 20.5143 577.939 23.6965C575.886 26.9001 574.457 30.8358 573.65 35.5036C572.736 40.8036 572.825 45.5179 573.921 49.6358C575.039 53.7608 576.889 57.1108 579.475 59.6822C582.089 62.2358 585.222 63.8286 588.872 64.4572C590.793 64.7893 592.711 64.8572 594.622 64.6608C596.532 64.4643 598.196 63.9608 599.614 63.1536L604.939 54.2679L611.743 56.1929L606.389 69.3929C604.011 70.4108 600.893 71.1393 597.036 71.5751C593.182 71.9893 589.264 71.8501 585.275 71.1643V71.1608Z" fill="#4D7E3E"/>
<path d="M691.882 37.1321L688.147 55.4214L681.839 53.8428L681.804 41.0678C681.189 40.725 680.529 40.4071 679.822 40.1142C679.082 39.8357 678.293 39.55 677.454 39.2607L674.093 38.1071C673.486 37.9 672.811 37.6678 672.061 37.4107C671.289 37.1464 670.682 37.0142 670.239 37.0214C670.104 37.4178 669.675 38.6285 668.954 40.65C668.2 42.6892 667.329 45.1142 666.336 47.9285C665.311 50.7607 664.297 53.6357 663.297 56.5535L660.147 65.7285C658.872 69.4392 657.761 72.7892 656.814 75.775C655.868 78.7642 655.168 81.0285 654.714 82.5714L662.847 86.9285L660.764 91.9678L629.989 81.4L631.475 76.1571L640.572 77.7142C641.139 76.2142 641.968 73.9928 643.054 71.05C644.143 68.1107 645.322 64.7857 646.597 61.075L649.747 51.9C650.75 48.9821 651.725 46.0964 652.682 43.2428C653.604 40.4035 654.418 37.9571 655.122 35.9C655.818 33.8678 656.2 32.6428 656.268 32.2214C655.918 31.9464 655.372 31.6785 654.625 31.425C653.854 31.1607 653.179 30.9285 652.593 30.725L649.129 29.5357C648.336 29.2642 647.525 29 646.7 28.7428C645.843 28.5 645.068 28.325 644.375 28.2178L636.65 38.5214L630.693 35.8107L638.839 18.9214C639.493 19.1464 640.414 19.5 641.604 19.9857C642.818 20.4821 644.079 20.9785 645.397 21.4857C646.725 22.0214 648.036 22.5357 649.329 23.0285C650.604 23.4928 651.696 23.8821 652.607 24.1964L677.779 32.8392C678.689 33.1535 679.779 33.5142 681.046 33.9214C682.321 34.3071 683.661 34.7035 685.064 35.1035C686.457 35.5285 687.761 35.9107 688.975 36.2535C690.189 36.5928 691.157 36.8857 691.882 37.1321Z" fill="#4D7E3E"/>
<path d="M709.286 113.482L683.936 101.189L685.947 96.3642L692.622 97.707C692.907 97.4606 693.411 96.7035 694.132 95.4356C694.868 94.1463 695.775 92.4749 696.854 90.4213C697.943 88.3428 699.097 86.0499 700.311 83.5428L706.982 69.7856C708.264 67.1428 709.379 64.7606 710.322 62.6428C711.279 60.4999 712.039 58.732 712.611 57.332C713.179 55.9356 713.439 55.1142 713.393 54.8713L708.189 50.4999L710.75 45.8999L736.096 58.1892L734.104 63.0642L727.347 61.6392C727.097 61.8178 726.597 62.5642 725.85 63.8785C725.082 65.1785 724.182 66.8678 723.147 68.9428C722.1 71.0428 720.954 73.3785 719.707 75.9535L713.036 89.7106C711.85 92.1535 710.768 94.4142 709.789 96.4892C708.8 98.5856 708.032 100.339 707.486 101.75C706.929 103.125 706.625 104.036 706.575 104.475L711.861 108.932L709.286 113.482Z" fill="#4D7E3E"/>
<path d="M747.993 139.407C742.643 135.864 738.618 131.618 735.918 126.668C733.197 121.7 731.95 116.497 732.179 111.054C732.372 105.618 734.125 100.4 737.436 95.4001C740.897 90.1715 745.157 86.3037 750.218 83.7965C755.261 81.2751 760.65 80.2394 766.389 80.693C772.125 81.1465 777.672 83.143 783.022 86.6823C788.186 90.1001 792.032 94.2144 794.561 99.0251C797.068 103.822 798.186 108.882 797.918 114.211C797.654 119.572 795.829 124.814 792.436 129.936C789.468 134.422 786.032 137.8 782.132 140.075C778.232 142.347 774.214 143.743 770.082 144.264C765.929 144.772 761.936 144.568 758.1 143.657C754.264 142.747 750.897 141.329 747.993 139.407ZM753.032 133.336C755.707 135.107 758.411 135.875 761.143 135.639C763.893 135.418 766.629 134.239 769.343 132.1C772.061 129.961 774.707 126.95 777.282 123.057C780.25 118.572 782.247 114.282 783.264 110.193C784.318 106.097 784.432 102.457 783.607 99.2787C782.782 96.1001 780.972 93.5823 778.172 91.7287C774.157 89.0715 769.914 88.6465 765.436 90.4501C760.964 92.2858 756.789 96.1358 752.907 102C750.047 106.322 748.168 110.525 747.272 114.607C746.375 118.689 746.389 122.354 747.322 125.604C748.272 128.864 750.175 131.443 753.032 133.336Z" fill="#4D7E3E"/>
<path d="M837.243 188.275L834.136 185.311L845.196 173.711C847.546 171.246 849.657 168.996 851.529 166.961C853.418 164.943 854.921 163.275 856.043 161.957C857.164 160.603 857.796 159.761 857.946 159.425L853.789 153.161L857.632 149.561L873.761 164.939L870.375 168.971L864.375 165.553C864.082 165.753 863.314 166.436 862.068 167.6C860.821 168.764 859.2 170.339 857.207 172.325C855.229 174.293 853.064 176.507 850.714 178.971L836.996 193.361C834.732 195.736 832.739 197.825 831.021 199.628C829.318 201.414 827.625 203.193 825.936 204.961L821.329 200.568L824.457 136.293L828.475 140.125L814.093 155.207C811.486 157.939 809.207 160.368 807.25 162.493C805.311 164.632 803.775 166.389 802.636 167.761C801.464 169.132 800.789 170.057 800.607 170.532L804.657 176.746L800.843 180.318L784.471 164.711L787.861 160.728L793.804 164.043C794.218 163.789 795.107 163.036 796.471 161.782C797.821 160.511 799.543 158.828 801.639 156.736C803.754 154.625 806.011 152.311 808.414 149.793L818.018 139.718C819.311 138.361 820.571 136.95 821.793 135.493C823.014 134.068 824.075 132.811 824.975 131.725C825.857 130.657 826.418 129.946 826.654 129.589L823.032 123.836L826.875 120.236L838.85 131.653L837.243 188.275Z" fill="#4D7E3E"/>
<path d="M848.089 231.468L836.072 215.218L840.093 211.875L844.697 215.239L898.732 201.707L907.907 205.832L876.875 258.753L878.743 264.139L874.347 266.975L857.664 244.414L861.686 241.071L867.036 245.446L874.504 232.882L876.707 229.825L890.332 206.721L891.454 209.668L867.372 216.7L864.272 217.8L849.847 222.203L852.461 228.603L848.089 231.468ZM860.093 217.757L865.811 213.528C866.589 214.703 867.457 216.025 868.418 217.493C869.364 218.939 870.711 220.846 872.461 223.207C874.118 225.45 875.539 227.286 876.714 228.714C877.893 230.143 878.911 231.371 879.764 232.4L874.139 236.561C873.347 235.489 872.414 234.186 871.336 232.646C870.264 231.075 868.925 229.196 867.311 227.014C865.607 224.714 864.193 222.861 863.061 221.453C861.936 220.014 860.943 218.782 860.093 217.757Z" fill="#4D7E3E"/>
<path d="M891.025 297.811L878.557 274.214L883.014 271.482L887.718 276.575C888.089 276.379 888.811 276.025 889.879 275.518C890.961 274.975 892.214 274.339 893.643 273.611C895.086 272.904 896.554 272.171 898.05 271.411C899.536 270.682 900.868 270.007 902.043 269.382L915.561 262.239C918.157 260.868 920.464 259.607 922.482 258.461C924.521 257.3 926.171 256.329 927.436 255.55C928.679 254.782 929.382 254.271 929.554 254.011L927.896 247.311L932.682 245.118L945.357 269.107C949.104 276.2 950.754 282.039 950.304 286.632C949.821 291.214 947.146 294.789 942.279 297.361C939.246 298.964 936.061 299.461 932.725 298.85C929.368 298.25 926.157 296.696 923.1 294.179C920.007 291.654 917.354 288.296 915.143 284.107L911.961 278.086L917.329 275.25L919.539 279.439C921.164 282.514 923.421 284.493 926.314 285.364C929.193 286.271 932.204 285.896 935.346 284.236C938.25 282.704 940.032 280.743 940.696 278.354C941.393 275.975 940.946 273.282 939.354 270.268L937.489 266.732C937.257 266.771 936.7 267.011 935.814 267.45C934.954 267.879 933.854 268.443 932.525 269.146C931.193 269.85 929.711 270.632 928.071 271.5C926.436 272.364 924.7 273.282 922.868 274.246L908.596 281.786C907.004 282.629 905.254 283.568 903.346 284.604C901.439 285.639 899.682 286.621 898.079 287.554C896.475 288.482 895.321 289.179 894.614 289.636L895.779 295.636L891.025 297.811ZM902.968 323.111C901.136 319.643 900.064 316.271 899.761 313C899.457 309.729 899.911 306.418 901.125 303.068C902.354 299.686 904.318 296.218 907.021 292.668L915.625 281.382L923.446 290.396L913.904 309.504C912.807 311.757 911.957 313.825 911.361 315.704C910.796 317.593 910.479 319.421 910.407 321.189C910.357 322.946 910.525 324.714 910.907 326.493L906.6 328.643C905.907 327.754 905.254 326.857 904.636 325.957C904.043 325.043 903.486 324.096 902.968 323.111Z" fill="#4D7E3E"/>
<path d="M979.807 365.761L976.447 361.3L935.664 352.304L947.036 353.004L937.168 356.521C936.007 356.936 934.782 357.4 933.497 357.911C932.225 358.389 931.061 358.832 930 359.236C928.925 359.671 928.007 360.079 927.254 360.454C926.497 360.829 926.036 361.082 925.875 361.218L926.839 368.657L921.718 370.168L911.907 342.657L916.814 340.554L920.775 346.921C920.986 346.925 921.5 346.821 922.314 346.611C923.129 346.4 924.093 346.121 925.2 345.779C926.293 345.468 927.479 345.082 928.761 344.625C930.061 344.161 931.293 343.721 932.457 343.307L942.322 339.789L933.625 346.586L959.918 314.961L959.696 309.382L964.747 307.893L974.036 333.939L969.186 335.986L965.404 330.339L948.286 350.554L947.439 348.182L973.5 353.036L972.604 345.571L977.657 344.086L984.657 363.714L979.807 365.761Z" fill="#4D7E3E"/>
<path d="M62.9858 685.572L43.0215 686.679C42.6286 684.836 42.1322 682.879 41.5358 680.814C40.9393 678.75 40.3751 676.779 39.8393 674.904C39.2965 673.004 38.8501 671.514 38.4965 670.436L28.3965 639.504L33.3929 637.521L37.1501 643.539C37.5465 643.564 38.5215 643.364 40.0679 642.936C41.6143 642.507 43.5358 641.947 45.8286 641.25C48.1501 640.568 50.5679 639.818 53.0751 639L67.9608 634.139C70.6108 633.275 73.0643 632.436 75.3143 631.622C77.5751 630.832 79.4429 630.157 80.9251 629.597C82.4036 629.036 83.2608 628.639 83.4929 628.404L83.0822 621.297L88.2858 619.947L97.9179 649.436L92.7072 651.489L88.4251 643.5C88.1893 643.5 87.3429 643.686 85.8822 644.061C84.4143 644.411 82.5322 644.932 80.2393 645.629C77.9393 646.3 75.3608 647.104 72.5 648.039L57.6143 652.9C53.6715 654.186 50.5072 655.261 48.1108 656.118C45.7108 656.954 44.0751 657.554 43.2072 657.914C43.3786 659.157 43.6429 660.407 44.0036 661.668C44.3465 662.957 44.8072 664.482 45.3822 666.239L46.6465 670.111C47.1143 671.543 47.6001 672.836 48.1072 673.996C48.6393 675.146 49.0965 676.075 49.4858 676.779L62.4643 678.846L62.9858 685.572Z" fill="#4D7E3E"/>
<path d="M100.689 763.171L83.1321 767.218C82.275 765.379 81.2428 763.189 80.0321 760.643C78.8107 758.079 77.6571 755.796 76.575 753.804L58.9607 721.329L63.5393 718.507L68.3 723.718C68.6964 723.671 69.5785 723.332 70.95 722.7C72.3321 722.089 74.0928 721.246 76.2321 720.171C78.3607 719.075 80.6821 717.843 83.2 716.479L96.9643 709.014C99.6107 707.579 101.975 706.268 104.054 705.086C106.121 703.879 107.789 702.864 109.054 702.036C110.329 701.232 111.064 700.693 111.254 700.421L109.486 693.589L114.346 691.293L130.104 720.35C130.786 721.607 131.625 723.132 132.625 724.921C133.632 726.675 134.65 728.4 135.679 730.086C136.707 731.775 137.575 733.196 138.289 734.357L125.707 744.464L121.993 739.404L128.404 731.421C128.15 730.493 127.882 729.682 127.593 728.996C127.293 728.289 126.943 727.564 126.543 726.829L122.643 719.639C121.996 718.446 121.35 717.307 120.707 716.225C120.096 715.154 119.539 714.304 119.032 713.679C118.532 713.95 117.761 714.339 116.721 714.85C115.711 715.368 114.414 716.032 112.829 716.836C111.232 717.671 109.371 718.668 107.246 719.818L87.4285 730.568C85.4107 731.661 83.6178 732.65 82.0428 733.529C80.5035 734.418 79.2214 735.157 78.1928 735.743C77.175 736.35 76.3857 736.807 75.8178 737.114C76.2357 738.35 76.7607 739.607 77.4035 740.889C78.0214 742.182 78.8428 743.775 79.8643 745.661L82.5821 750.671C83.4643 752.3 84.1285 753.496 84.5714 754.264C85.0393 755.021 85.4035 755.596 85.675 755.986C85.9643 756.364 86.2571 756.75 86.5571 757.146L98.8178 757.236L100.689 763.171ZM98.8714 749.879L96.0464 744.675L101.846 740.307C101.675 739.839 101.35 739.132 100.868 738.186C100.393 737.207 99.8143 736.089 99.1321 734.832L96.4321 729.854C95.8428 728.768 95.2535 727.757 94.6571 726.814C94.0643 725.875 93.5964 725.171 93.2607 724.707L99.9643 721.071C100.171 721.607 100.504 722.379 100.971 723.389C101.436 724.4 101.961 725.45 102.55 726.536L105.25 731.514C105.932 732.771 106.554 733.868 107.114 734.796C107.643 735.718 108.025 736.396 108.257 736.829L115.114 734.332L117.939 739.539L98.8714 749.879Z" fill="#4D7E3E"/>
<path d="M116.571 812.35L103.321 796.407L107.236 792.722L112.118 795.932L166.679 778.936L176.3 782.636L147.586 838.607L149.846 843.993L145.507 847.168L127.121 825.046L131.036 821.361L136.746 825.568L143.682 812.25L145.764 809.025L158.375 784.582L159.711 787.518L135.446 796.086L132.354 797.404L117.818 802.793L120.886 809.147L116.571 812.35ZM128.05 797.611L133.657 792.95C134.514 794.096 135.482 795.397 136.557 796.847C137.596 798.293 139.082 800.171 141.007 802.486C142.836 804.686 144.407 806.479 145.714 807.861C147.004 809.261 148.111 810.457 149.036 811.454L143.514 816.046C142.646 815.004 141.618 813.707 140.429 812.161C139.254 810.632 137.779 808.796 135.996 806.65C134.118 804.393 132.561 802.575 131.321 801.2C130.064 799.804 128.975 798.611 128.05 797.611Z" fill="#4D7E3E"/>
<path d="M190.096 887.304L168.961 869.932L172.111 865.575L178.582 868.546C178.864 868.204 179.4 867.571 180.186 866.654C180.993 865.75 181.929 864.668 182.996 863.407C184.064 862.146 185.161 860.871 186.279 859.586C187.393 858.268 188.382 857.082 189.246 856.036L199.189 843.939C201.1 841.614 202.789 839.504 204.25 837.604C205.732 835.721 206.904 834.161 207.761 832.921C208.639 831.696 209.118 830.921 209.193 830.596L204.954 824.911L208.618 820.975L230.096 838.625C236.464 843.857 240.332 848.732 241.704 853.246C243.075 857.757 241.964 862.196 238.379 866.561C236.154 869.268 233.343 871 229.943 871.754C226.529 872.525 222.871 872.332 218.971 871.168C215.071 870.007 211.243 867.882 207.489 864.796L202.082 860.354L206.032 855.55L209.779 858.629C212.543 860.9 215.461 861.879 218.532 861.561C221.607 861.279 224.304 859.725 226.625 856.904C228.757 854.311 229.671 851.757 229.375 849.243C229.093 846.711 227.596 844.332 224.889 842.107L221.743 839.521C221.543 839.646 221.104 840.082 220.425 840.836C219.779 841.582 218.964 842.557 217.975 843.757C217.004 844.939 215.914 846.264 214.707 847.732C213.5 849.2 212.214 850.764 210.854 852.421L200.371 865.179C199.182 866.629 197.896 868.207 196.521 869.921C195.15 871.668 193.889 873.3 192.739 874.814C191.589 876.329 190.761 877.436 190.25 878.136L193.761 883.368L190.096 887.304ZM211.407 906.493C208.318 903.954 205.979 901.204 204.393 898.239C202.821 895.254 201.943 891.929 201.761 888.264C201.579 884.6 202.05 880.546 203.175 876.107L206.846 862.018L217.818 867.443L216.382 889.307C216.229 891.864 216.25 894.15 216.446 896.164C216.643 898.179 217.061 900.021 217.696 901.696C218.336 903.404 219.196 905.021 220.275 906.546L217.064 910.282C216.029 909.718 215.057 909.129 214.157 908.514C213.221 907.904 212.304 907.232 211.407 906.493Z" fill="#4D7E3E"/>
<path d="M303.972 936.164L300.079 934.1L307.789 919.582C309.432 916.486 310.9 913.675 312.189 911.146C313.486 908.65 314.504 906.579 315.239 904.929C315.986 903.314 316.382 902.307 316.425 901.911L310.586 896.882L313.4 892.3L333.6 903.032L331.347 907.911L324.497 906.2C324.257 906.493 323.682 907.389 322.775 908.893C321.843 910.382 320.675 912.375 319.268 914.864C317.861 917.357 316.332 920.15 314.689 923.25L305.118 941.261C303.543 944.225 302.161 946.829 300.968 949.075C299.775 951.321 298.593 953.543 297.425 955.743L291.672 952.686L276.964 888.371L282 891.043L271.979 909.907C270.161 913.329 268.589 916.364 267.264 919.014C265.918 921.654 264.872 923.807 264.125 925.479C263.357 927.139 262.947 928.246 262.9 928.811L268.639 933.786L265.829 938.371L245.364 927.5L247.586 922.604L254.368 924.279C254.743 923.889 255.411 922.893 256.379 921.279C257.357 919.647 258.597 917.497 260.1 914.829C261.589 912.182 263.175 909.279 264.85 906.121L271.539 893.536C272.454 891.814 273.318 890.079 274.132 888.332C274.947 886.586 275.636 885.054 276.2 883.732C276.786 882.422 277.147 881.554 277.293 881.125L272.107 876.443L274.921 871.857L289.893 879.814L303.972 936.164Z" fill="#4D7E3E"/>
<path d="M418.775 992.443C412.289 991.275 406.775 988.904 402.229 985.325C397.657 981.743 394.375 977.354 392.375 972.154C390.379 966.954 389.921 961.332 391.014 955.286C392.157 948.947 394.589 943.568 398.318 939.147C402.046 934.729 406.704 931.568 412.289 929.664C417.871 927.761 423.907 927.393 430.389 928.561C436.657 929.689 441.943 932.007 446.254 935.514C450.568 939 453.675 943.322 455.579 948.479C457.489 953.611 457.886 959.275 456.771 965.468C455.793 970.907 453.929 975.486 451.175 979.204C448.45 982.925 445.236 985.872 441.536 988.039C437.836 990.207 433.989 991.646 430 992.357C426.039 993.05 422.296 993.075 418.775 992.443ZM421.039 984.686C424.268 985.268 427.132 984.893 429.629 983.564C432.125 982.232 434.218 980.004 435.911 976.872C437.6 973.764 438.868 969.857 439.714 965.143C440.689 959.725 440.836 954.875 440.154 950.589C439.468 946.329 438.082 942.868 436.004 940.214C433.954 937.539 431.239 935.897 427.864 935.289C423.007 934.414 418.843 935.747 415.371 939.282C411.907 942.797 409.532 948.111 408.25 955.229C407.314 960.425 407.243 965.139 408.036 969.368C408.832 973.575 410.343 977.018 412.571 979.704C414.768 982.407 417.589 984.068 421.039 984.686Z" fill="#4D7E3E"/>
<path d="M544.411 977.075L540.007 977.243L539.389 960.818C539.257 957.314 539.114 954.147 538.961 951.314C538.832 948.504 538.671 946.2 538.479 944.404C538.314 942.632 538.15 941.564 537.986 941.2L530.414 939.779L530.543 934.404L553.404 933.543L553.904 938.897L547.121 940.857C547.061 941.229 547.014 942.293 546.982 944.047C546.925 945.804 546.914 948.111 546.946 950.975C546.979 953.839 547.064 957.022 547.196 960.525L547.961 980.907C548.086 984.261 548.196 987.207 548.293 989.747C548.389 992.286 548.482 994.804 548.579 997.293L542.068 997.539L497.061 949.293L502.757 949.079L503.561 970.425C503.707 974.297 503.871 977.711 504.057 980.668C504.218 983.625 504.393 986.014 504.586 987.832C504.754 989.654 504.957 990.818 505.196 991.329L512.661 992.754L512.529 998.129L489.371 999L488.836 993.65L495.543 991.693C495.671 991.168 495.75 989.968 495.779 988.089C495.807 986.186 495.8 983.704 495.757 980.647C495.718 977.611 495.629 974.304 495.496 970.729L494.961 956.486C494.886 954.536 494.764 952.604 494.593 950.682C494.421 948.761 494.246 947.089 494.071 945.664C493.918 944.239 493.796 943.304 493.707 942.864L486.875 941.418L487.004 936.039L503.946 935.404L544.411 977.075Z" fill="#4D7E3E"/>
<path d="M643.511 960.729L642.957 978.736C640.961 979.096 638.582 979.539 635.811 980.061C633.018 980.589 630.521 981.125 628.314 981.664L592.429 990.432L590.864 985.289L597.114 982.011C597.171 981.614 597.068 980.675 596.804 979.189C596.568 977.696 596.2 975.779 595.704 973.436C595.182 971.1 594.582 968.539 593.904 965.761L590.189 950.55C589.475 947.625 588.811 945.007 588.193 942.693C587.554 940.386 586.993 938.514 586.518 937.082C586.064 935.643 585.732 934.796 585.514 934.543L578.457 934.514L577.471 929.229L609.586 921.382C610.975 921.043 612.664 920.618 614.646 920.107C616.6 919.579 618.525 919.032 620.418 918.468C622.311 917.904 623.911 917.425 625.211 917.032L631.786 931.771L625.946 934.075L619.857 925.846C618.893 925.854 618.043 925.907 617.307 926.014C616.546 926.125 615.757 926.279 614.943 926.475L606.996 928.418C605.679 928.739 604.414 929.075 603.204 929.421C602.011 929.739 601.05 930.061 600.314 930.393C600.45 930.943 600.629 931.789 600.857 932.929C601.104 934.036 601.411 935.461 601.789 937.196C602.193 938.954 602.682 941.004 603.254 943.357L608.604 965.254C609.15 967.482 609.646 969.471 610.1 971.214C610.571 972.929 610.957 974.357 611.261 975.504C611.589 976.643 611.832 977.525 611.986 978.147C613.286 978.057 614.636 977.868 616.036 977.579C617.443 977.311 619.189 976.921 621.279 976.411L626.814 975.057C628.611 974.618 629.939 974.282 630.796 974.046C631.646 973.789 632.296 973.579 632.739 973.418C633.179 973.236 633.629 973.05 634.089 972.861L637.296 961.025L643.511 960.729ZM630.196 959.104L624.443 960.511L621.693 953.789C621.196 953.836 620.429 953.971 619.393 954.196C618.325 954.407 617.096 954.682 615.707 955.021L610.207 956.368C609.007 956.661 607.879 956.975 606.814 957.307C605.754 957.643 604.957 957.914 604.425 958.121L602.614 950.714C603.182 950.65 604.014 950.525 605.111 950.332C606.207 950.139 607.354 949.897 608.554 949.607L614.057 948.261C615.446 947.921 616.664 947.6 617.707 947.293C618.732 947.018 619.486 946.821 619.964 946.704L619.293 939.436L625.046 938.032L630.196 959.104Z" fill="#4D7E3E"/>
<path d="M733.471 876.157L742.582 881.5L750.711 927.8L745.832 930.961L694.979 896.871L689.454 898.421L686.814 893.736L709.489 879.039L712.689 883.361L709.111 887.711L745.989 913.436L741.579 916.296L733.471 876.157ZM784.136 906.136L779.257 909.3L728.121 875.389L722.693 876.878L720.054 872.193L743.443 857.032L746.643 861.357L741.882 866.471L779.039 892.014L775.282 894.45L765.679 851.046L758.632 853.586L755.961 848.921L774.446 836.939L777.643 841.264L773.879 845.732L784.136 906.136Z" fill="#4D7E3E"/>
<path d="M857.218 844.582C852.661 849.339 847.632 852.625 842.139 854.432C836.629 856.261 831.154 856.568 825.718 855.357C820.282 854.146 815.343 851.414 810.907 847.164C806.257 842.707 803.121 837.704 801.504 832.154C799.886 826.604 799.825 820.975 801.325 815.271C802.825 809.568 805.857 804.336 810.414 799.579C814.818 794.982 819.675 791.857 824.982 790.207C830.271 788.539 835.589 788.339 840.939 789.607C846.271 790.854 851.211 793.657 855.754 798.007C859.746 801.832 862.529 805.918 864.107 810.268C865.7 814.596 866.379 818.904 866.136 823.182C865.896 827.464 864.968 831.464 863.354 835.182C861.739 838.864 859.693 841.996 857.218 844.582ZM852.007 838.407C854.279 836.036 855.55 833.443 855.821 830.629C856.093 827.814 855.393 824.836 853.721 821.693C852.068 818.568 849.511 815.35 846.054 812.039C842.079 808.232 838.118 805.429 834.171 803.629C830.239 801.846 826.593 801.086 823.229 801.346C819.864 801.575 816.996 802.929 814.625 805.407C811.211 808.971 810.018 813.175 811.043 818.021C812.054 822.854 815.168 827.768 820.393 832.771C824.207 836.425 828.093 839.093 832.057 840.771C836.004 842.432 839.707 843.079 843.171 842.707C846.639 842.371 849.582 840.939 852.007 838.407Z" fill="#4D7E3E"/>
<path d="M916.146 765.982L901.804 789.275L897.061 786.746L899.125 779.932C898.746 779.7 898.05 779.254 897.032 778.6C896.029 777.925 894.829 777.143 893.432 776.254C892.036 775.364 890.629 774.454 889.204 773.518C887.746 772.593 886.439 771.771 885.286 771.061L871.95 762.85C869.386 761.271 867.064 759.886 864.989 758.696C862.925 757.482 861.218 756.536 859.871 755.85C858.539 755.146 857.707 754.779 857.379 754.75L852.318 759.718L847.921 756.621L862.496 732.946C866.818 725.929 871.121 721.432 875.407 719.464C879.693 717.493 884.239 717.993 889.054 720.954C892.039 722.789 894.132 725.343 895.339 728.607C896.568 731.886 896.871 735.536 896.25 739.557C895.629 743.579 894.043 747.661 891.493 751.8L887.825 757.757L882.529 754.496L885.071 750.368C886.946 747.321 887.521 744.296 886.789 741.296C886.093 738.289 884.189 735.825 881.075 733.911C878.218 732.15 875.564 731.589 873.114 732.225C870.643 732.85 868.489 734.654 866.654 737.636L864.518 741.104C864.668 741.282 865.161 741.661 865.996 742.232C866.825 742.771 867.9 743.446 869.225 744.261C870.529 745.064 871.989 745.961 873.607 746.961C875.225 747.957 876.95 749.018 878.775 750.143L892.836 758.8C894.432 759.782 896.171 760.839 898.054 761.971C899.971 763.093 901.757 764.121 903.414 765.054C905.071 765.986 906.282 766.657 907.043 767.071L911.75 762.882L916.146 765.982ZM932.271 742.261C930.175 745.664 927.764 748.354 925.043 750.332C922.3 752.293 919.125 753.614 915.521 754.293C911.914 754.971 907.836 755.054 903.282 754.539L888.829 752.811L892.711 741.204L914.571 739.664C917.125 739.468 919.389 739.139 921.357 738.671C923.325 738.204 925.096 737.539 926.668 736.682C928.275 735.814 929.757 734.746 931.121 733.468L935.257 736.143C934.839 737.246 934.386 738.286 933.9 739.264C933.421 740.275 932.879 741.275 932.271 742.261Z" fill="#4D7E3E"/>
<path d="M894.196 686.404L889.275 684.236L899.5 656.443C903.503 645.557 909.168 637.989 916.486 633.743C923.807 629.493 931.996 629.036 941.053 632.364C946.914 634.518 951.603 637.889 955.125 642.471C958.668 647.061 960.793 652.368 961.496 658.382C962.232 664.386 961.4 670.654 959 677.186L948.407 705.986L943.253 704.446L944.032 697.396C943.621 697.011 941.986 696.211 939.118 694.996C936.243 693.807 932.789 692.471 928.757 690.989L914.064 685.586C909.825 684.025 906.225 682.768 903.264 681.811C900.296 680.875 898.596 680.45 898.171 680.529L894.196 686.404ZM903.618 666.046C904.036 666.2 904.882 666.539 906.164 667.061C907.475 667.568 909.178 668.236 911.268 669.054C913.368 669.854 915.968 670.821 919.071 671.964L933.768 677.371C935.528 678.018 937.361 678.679 939.271 679.354C941.211 680.014 942.996 680.593 944.629 681.089C946.286 681.593 947.6 681.986 948.571 682.264C949.396 680.807 950.168 679.354 950.886 677.907C951.625 676.471 952.243 675.079 952.736 673.736C954.839 668.014 954.786 663.089 952.568 658.964C950.353 654.836 945.678 651.461 938.543 648.836C933.843 647.107 929.65 646.168 925.971 646.025C922.282 645.904 919.086 646.411 916.378 647.546C913.675 648.682 911.414 650.282 909.603 652.35C907.761 654.432 906.332 656.854 905.314 659.607C904.975 660.532 904.65 661.557 904.343 662.682C904.068 663.789 903.825 664.911 903.618 666.046Z" fill="#4D7E3E"/>
<path d="M26.9894 507.054C26.9894 503.046 30.2394 499.796 34.2465 499.796C38.2537 499.796 41.5037 503.046 41.5037 507.054C41.5037 511.061 38.2537 514.311 34.2465 514.311C30.2394 514.311 26.9894 511.061 26.9894 507.054Z" fill="#4D7E3E"/>
<path d="M958.921 507.054C958.921 503.046 962.171 499.796 966.179 499.796C970.186 499.796 973.436 503.046 973.436 507.054C973.436 511.061 970.186 514.311 966.179 514.311C962.171 514.311 958.921 511.061 958.921 507.054Z" fill="#4D7E3E"/>
</g>
</g>
</g>
</g>
</g>
</g>
<defs>
<clipPath id="clip0_508_306">
<rect width="1000" height="1000" fill="white"/>
</clipPath>
<clipPath id="clip1_508_306">
<rect width="999" height="999" fill="white"/>
</clipPath>
<clipPath id="clip2_508_306">
<rect width="999" height="999" fill="white"/>
</clipPath>
<clipPath id="clip3_508_306">
<rect width="999" height="999" fill="white"/>
</clipPath>
<clipPath id="clip4_508_306">
<rect width="999" height="999" fill="white"/>
</clipPath>
<clipPath id="clip5_508_306">
<rect width="999" height="999" fill="white"/>
</clipPath>
<clipPath id="clip6_508_306">
<rect width="412.066" height="412.066" fill="white" transform="translate(293.467 293.467)"/>
</clipPath>
</defs>
</svg>
