<svg width="429" height="152" viewBox="0 0 429 152" fill="none" xmlns="http://www.w3.org/2000/svg">
<g clip-path="url(#clip0_1703_1446)">
<path d="M76 151.619C117.763 151.619 151.619 117.763 151.619 76C151.619 34.2368 117.763 0.381104 76 0.381104C34.2369 0.381104 0.381134 34.2368 0.381134 76C0.381134 117.763 34.2369 151.619 76 151.619Z" fill="#D23D2D"/>
<g clip-path="url(#clip1_1703_1446)">
<path d="M73.7834 22.7999H22.8V33.8833H73.7834V22.7999Z" fill="#F8EECB"/>
<path d="M73.7833 42.7499H22.8V53.8332H73.7833V42.7499Z" fill="#F8EECB"/>
<path d="M73.7833 62.7H22.8V73.7833H73.7833V62.7Z" fill="#F8EECB"/>
<path d="M129.2 78.2166H78.2167V89.2999H129.2V78.2166Z" fill="#F8EECB"/>
<path d="M129.2 98.1665H78.2167V109.25H129.2V98.1665Z" fill="#F8EECB"/>
<path d="M129.2 118.117H78.2167V129.2H129.2V118.117Z" fill="#F8EECB"/>
<path d="M73.7833 78.2166H62.7V129.2H73.7833V78.2166Z" fill="#F8EECB"/>
<path d="M53.8333 78.2166H42.75V129.2H53.8333V78.2166Z" fill="#F8EECB"/>
<path d="M33.8833 78.2166H22.8V129.2H33.8833V78.2166Z" fill="#F8EECB"/>
<path d="M129.2 22.7999H118.117V73.7833H129.2V22.7999Z" fill="#F8EECB"/>
<path d="M109.25 22.7999H98.1667V73.7833H109.25V22.7999Z" fill="#F8EECB"/>
<path d="M89.3 22.7999H78.2167V73.7833H89.3V22.7999Z" fill="#F8EECB"/>
</g>
</g>
<path d="M186.359 61.0078L189.711 60V31.0312L186.453 30.2344L186.289 29.9297L186.617 28.0312H197.773L197.891 28.2422L197.68 30.0234L194.141 31.0312V43.8984H211.859V31.0312L208.578 30.2344L208.414 29.9297L208.766 28.0312H219.898L220.016 28.2422L219.805 30.0234L216.266 31.0312V60L219.688 60.7969L219.852 61.125L219.523 63H208.367L208.273 62.7891L208.484 61.0078L211.859 60V46.6406H194.141V60L197.562 60.7969L197.727 61.125L197.375 63H186.242L186.125 62.7891L186.359 61.0078ZM241.227 59.625C241.57 59.625 242.602 59.5391 244.32 59.3672L244.578 59.6953L244.039 61.6172L237.57 63.8438L237.242 63.4922L236.82 60.3047L235.414 61.4531C233.445 63.0469 231.828 63.8438 230.562 63.8438C229.297 63.8438 228.172 63.6172 227.188 63.1641C226.219 62.7266 225.406 62.1484 224.75 61.4297C223.484 60.0234 222.852 58.3203 222.852 56.3203C222.852 54.5859 223.312 53.3125 224.234 52.5C225.109 51.7031 226.688 51.1328 228.969 50.7891C231.266 50.4297 233.07 50.1641 234.383 49.9922C235.711 49.8203 236.453 49.7188 236.609 49.6875V47.6719C236.609 43.4688 235.016 41.3672 231.828 41.3672C230.25 41.3672 228.156 41.8594 225.547 42.8438C224.922 42.3906 224.609 41.7188 224.609 40.8281C227.859 39.2344 230.695 38.4375 233.117 38.4375C237.945 38.4375 240.359 41.2188 240.359 46.7812V58.5703C240.359 59.2734 240.648 59.625 241.227 59.625ZM227.023 55.7344C227.023 57.7656 227.859 59.2109 229.531 60.0703C230.047 60.3359 230.57 60.4688 231.102 60.4688C231.648 60.4688 232.164 60.3906 232.648 60.2344C233.148 60.0781 233.633 59.8906 234.102 59.6719C234.586 59.4531 235.047 59.2188 235.484 58.9688L236.609 58.2656V52.5234C233.875 52.5234 231.594 52.6953 229.766 53.0391C227.938 53.3672 227.023 54.2656 227.023 55.7344ZM264.477 43.7812C262.336 41.9844 260.133 41.0859 257.867 41.0859C256.102 41.0859 254.57 42.0078 253.273 43.8516C251.992 45.6797 251.352 47.8672 251.352 50.4141C251.352 53.4141 252.297 55.8438 254.188 57.7031C255.859 59.3594 257.773 60.1875 259.93 60.1875C262.352 60.1875 264.367 59.3516 265.977 57.6797C266.852 58.0703 267.289 58.6484 267.289 59.4141C264.867 61.6797 262.555 63.0938 260.352 63.6562C259.867 63.7812 259.391 63.8438 258.922 63.8438C255.391 63.8438 252.57 62.6875 250.461 60.375C248.445 58.1719 247.438 55.3438 247.438 51.8906C247.438 48.1719 248.703 45 251.234 42.375C253.766 39.75 256.805 38.4375 260.352 38.4375C263.008 38.4375 265.062 38.9688 266.516 40.0312C266.438 40.8281 266.195 41.5625 265.789 42.2344C265.383 42.8906 264.945 43.4062 264.477 43.7812ZM286.461 41.9766C284.242 41.9766 281.812 42.5781 279.172 43.7812V60L282.945 60.7969L283.109 61.125L282.758 63H272.258L272.164 62.7891L272.375 61.0078L275.422 60V29.7656L271.719 28.8281L271.508 28.5469L271.719 27.2812L278.797 24.6562L279.172 24.8672V41.6719C282.469 39.5156 285.273 38.4375 287.586 38.4375C289.914 38.4375 291.742 39.2031 293.07 40.7344C294.336 42.2188 294.969 44.2109 294.969 46.7109V60L299.047 60.7969L299.211 61.125L298.93 63H287.797L287.633 62.7891L287.844 61.0078L291.219 60V47.8359C291.219 43.9297 289.633 41.9766 286.461 41.9766ZM311.422 33.4922C311 33.9297 310.609 34.2344 310.25 34.4062C309.891 34.5781 309.531 34.6641 309.172 34.6641C308.828 34.6641 308.484 34.5938 308.141 34.4531C307.812 34.2969 307.516 34.0938 307.25 33.8438C306.641 33.2969 306.336 32.7656 306.336 32.25C306.336 31.7344 306.406 31.3125 306.547 30.9844C306.703 30.6406 306.906 30.3281 307.156 30.0469C307.719 29.4219 308.375 29.1094 309.125 29.1094C309.812 29.1094 310.391 29.3125 310.859 29.7188C311.672 30.4219 312.078 31.1016 312.078 31.7578C312.078 32.4609 311.859 33.0391 311.422 33.4922ZM304.344 61.0078L307.438 60V44.5078L304.18 43.125L303.922 42.8438L304.18 41.5781L310.789 38.8828L311.188 39.0938V60L314.938 60.7969L315.031 61.125L314.773 63H304.273L304.109 62.7891L304.344 61.0078ZM319.977 61.0078L323.023 60V29.8125L319.32 28.875L319.109 28.5469L319.32 27.2812L326.398 24.6562L326.773 24.8672V50.25L335.867 42.0938L332.562 41.4141L332.398 41.1328L332.68 39.2578H343.227L343.344 39.4922L343.109 41.2031L339.758 42.3047L331.859 48.8203L341.773 60L345.031 60.7969L345.148 61.125L344.891 63H334.391L334.227 62.7891L334.461 61.0078L336.922 60L329.141 51.0234L326.773 52.9922V60L330.547 60.7969L330.711 61.125L330.359 63H319.859L319.766 62.7891L319.977 61.0078ZM347.141 51.5156C347.141 49.75 347.469 48.0625 348.125 46.4531C348.797 44.8438 349.703 43.4453 350.844 42.2578C353.297 39.7109 356.211 38.4375 359.586 38.4375C363.07 38.4375 365.867 39.6094 367.977 41.9531C370.008 44.2031 371.023 47.1094 371.023 50.6719C371.023 54.3906 369.805 57.5312 367.367 60.0938C364.977 62.5938 362.062 63.8438 358.625 63.8438C355.234 63.8438 352.453 62.6484 350.281 60.2578C348.188 57.9453 347.141 55.0312 347.141 51.5156ZM353.305 43.2656C352.664 44.0156 352.172 44.9688 351.828 46.125C351.484 47.2656 351.312 48.6328 351.312 50.2266C351.312 51.8047 351.562 53.2656 352.062 54.6094C352.562 55.9531 353.211 57.1172 354.008 58.1016C355.695 60.1797 357.578 61.2188 359.656 61.2188C363.094 61.2188 365.312 59.5938 366.312 56.3438C366.672 55.2031 366.852 53.8125 366.852 52.1719C366.852 50.5312 366.594 49.0234 366.078 47.6484C365.578 46.2734 364.93 45.1016 364.133 44.1328C363.352 43.1484 362.477 42.3906 361.508 41.8594C360.555 41.3125 359.562 41.0391 358.531 41.0391C357.516 41.0391 356.547 41.2266 355.625 41.6016C354.719 41.9609 353.945 42.5156 353.305 43.2656ZM186.125 121.008L189.594 120V91.2891L186.219 90.3984L186.055 90.0703L186.383 88.0312H201.5C206.469 88.0312 210.43 89.625 213.383 92.8125C216.305 95.9844 217.766 100.188 217.766 105.422C217.766 110.469 216.031 114.68 212.562 118.055C209.172 121.352 205.016 123 200.094 123H186.008L185.891 122.789L186.125 121.008ZM199.719 90.7734C197.906 90.7734 195.969 90.9453 193.906 91.2891V119.414C196.062 119.773 198.227 119.953 200.398 119.953C202.586 119.953 204.414 119.688 205.883 119.156C207.367 118.609 208.641 117.789 209.703 116.695C211.922 114.383 213.031 111.062 213.031 106.734C213.031 101.641 211.719 97.6562 209.094 94.7812C206.672 92.1094 203.547 90.7734 199.719 90.7734ZM231.266 93.4922C230.844 93.9297 230.453 94.2344 230.094 94.4062C229.734 94.5781 229.375 94.6641 229.016 94.6641C228.672 94.6641 228.328 94.5938 227.984 94.4531C227.656 94.2969 227.359 94.0938 227.094 93.8438C226.484 93.2969 226.18 92.7656 226.18 92.25C226.18 91.7344 226.25 91.3125 226.391 90.9844C226.547 90.6406 226.75 90.3281 227 90.0469C227.562 89.4219 228.219 89.1094 228.969 89.1094C229.656 89.1094 230.234 89.3125 230.703 89.7188C231.516 90.4219 231.922 91.1016 231.922 91.7578C231.922 92.4609 231.703 93.0391 231.266 93.4922ZM224.188 121.008L227.281 120V104.508L224.023 103.125L223.766 102.844L224.023 101.578L230.633 98.8828L231.031 99.0938V120L234.781 120.797L234.875 121.125L234.617 123H224.117L223.953 122.789L224.188 121.008ZM256.32 103.781C254.18 101.984 251.977 101.086 249.711 101.086C247.945 101.086 246.414 102.008 245.117 103.852C243.836 105.68 243.195 107.867 243.195 110.414C243.195 113.414 244.141 115.844 246.031 117.703C247.703 119.359 249.617 120.188 251.773 120.188C254.195 120.188 256.211 119.352 257.82 117.68C258.695 118.07 259.133 118.648 259.133 119.414C256.711 121.68 254.398 123.094 252.195 123.656C251.711 123.781 251.234 123.844 250.766 123.844C247.234 123.844 244.414 122.688 242.305 120.375C240.289 118.172 239.281 115.344 239.281 111.891C239.281 108.172 240.547 105 243.078 102.375C245.609 99.75 248.648 98.4375 252.195 98.4375C254.852 98.4375 256.906 98.9688 258.359 100.031C258.281 100.828 258.039 101.562 257.633 102.234C257.227 102.891 256.789 103.406 256.32 103.781ZM272.609 120.258C274.328 120.258 276.117 119.891 277.977 119.156C278.539 119.5 278.852 120.047 278.914 120.797C276.164 122.828 273.883 123.844 272.07 123.844C269.945 123.844 268.328 123.141 267.219 121.734C266.25 120.5 265.766 118.828 265.766 116.719V101.977H262.695C262.57 101.711 262.508 101.445 262.508 101.18C262.508 100.852 262.625 100.539 262.859 100.242L266.281 99.0469L267.992 92.7188H269.586V99.4453C271.32 99.4453 274.039 99.3672 277.742 99.2109C277.742 99.2891 277.75 99.3672 277.766 99.4453L277.789 100.031C277.789 100.891 277.602 101.539 277.227 101.977H269.586V116.531C269.586 117.578 269.789 118.359 270.195 118.875C270.898 119.797 271.703 120.258 272.609 120.258ZM291.266 93.4922C290.844 93.9297 290.453 94.2344 290.094 94.4062C289.734 94.5781 289.375 94.6641 289.016 94.6641C288.672 94.6641 288.328 94.5938 287.984 94.4531C287.656 94.2969 287.359 94.0938 287.094 93.8438C286.484 93.2969 286.18 92.7656 286.18 92.25C286.18 91.7344 286.25 91.3125 286.391 90.9844C286.547 90.6406 286.75 90.3281 287 90.0469C287.562 89.4219 288.219 89.1094 288.969 89.1094C289.656 89.1094 290.234 89.3125 290.703 89.7188C291.516 90.4219 291.922 91.1016 291.922 91.7578C291.922 92.4609 291.703 93.0391 291.266 93.4922ZM284.188 121.008L287.281 120V104.508L284.023 103.125L283.766 102.844L284.023 101.578L290.633 98.8828L291.031 99.0938V120L294.781 120.797L294.875 121.125L294.617 123H284.117L283.953 122.789L284.188 121.008ZM298.953 111.516C298.953 109.75 299.281 108.062 299.938 106.453C300.609 104.844 301.516 103.445 302.656 102.258C305.109 99.7109 308.023 98.4375 311.398 98.4375C314.883 98.4375 317.68 99.6094 319.789 101.953C321.82 104.203 322.836 107.109 322.836 110.672C322.836 114.391 321.617 117.531 319.18 120.094C316.789 122.594 313.875 123.844 310.438 123.844C307.047 123.844 304.266 122.648 302.094 120.258C300 117.945 298.953 115.031 298.953 111.516ZM305.117 103.266C304.477 104.016 303.984 104.969 303.641 106.125C303.297 107.266 303.125 108.633 303.125 110.227C303.125 111.805 303.375 113.266 303.875 114.609C304.375 115.953 305.023 117.117 305.82 118.102C307.508 120.18 309.391 121.219 311.469 121.219C314.906 121.219 317.125 119.594 318.125 116.344C318.484 115.203 318.664 113.812 318.664 112.172C318.664 110.531 318.406 109.023 317.891 107.648C317.391 106.273 316.742 105.102 315.945 104.133C315.164 103.148 314.289 102.391 313.32 101.859C312.367 101.312 311.375 101.039 310.344 101.039C309.328 101.039 308.359 101.227 307.438 101.602C306.531 101.961 305.758 102.516 305.117 103.266ZM342.242 101.977C340.07 101.977 337.664 102.578 335.023 103.781V120L338.773 120.797L338.867 121.125L338.609 123H328.109L327.945 122.789L328.18 121.008L331.273 120V104.344L328.016 102.914L327.781 102.633L328.016 101.367L334.18 98.8828L334.578 99.0938V101.977C338.172 99.6172 341.109 98.4375 343.391 98.4375C345.734 98.4375 347.562 99.1562 348.875 100.594C350.172 102 350.82 103.953 350.82 106.453V120L354.875 120.797L354.992 121.125L354.711 123H343.555L343.461 122.789L343.672 121.008L347.047 120V107.555C347.047 103.836 345.445 101.977 342.242 101.977ZM377.164 119.625C377.508 119.625 378.539 119.539 380.258 119.367L380.516 119.695L379.977 121.617L373.508 123.844L373.18 123.492L372.758 120.305L371.352 121.453C369.383 123.047 367.766 123.844 366.5 123.844C365.234 123.844 364.109 123.617 363.125 123.164C362.156 122.727 361.344 122.148 360.688 121.43C359.422 120.023 358.789 118.32 358.789 116.32C358.789 114.586 359.25 113.312 360.172 112.5C361.047 111.703 362.625 111.133 364.906 110.789C367.203 110.43 369.008 110.164 370.32 109.992C371.648 109.82 372.391 109.719 372.547 109.688V107.672C372.547 103.469 370.953 101.367 367.766 101.367C366.188 101.367 364.094 101.859 361.484 102.844C360.859 102.391 360.547 101.719 360.547 100.828C363.797 99.2344 366.633 98.4375 369.055 98.4375C373.883 98.4375 376.297 101.219 376.297 106.781V118.57C376.297 119.273 376.586 119.625 377.164 119.625ZM362.961 115.734C362.961 117.766 363.797 119.211 365.469 120.07C365.984 120.336 366.508 120.469 367.039 120.469C367.586 120.469 368.102 120.391 368.586 120.234C369.086 120.078 369.57 119.891 370.039 119.672C370.523 119.453 370.984 119.219 371.422 118.969L372.547 118.266V112.523C369.812 112.523 367.531 112.695 365.703 113.039C363.875 113.367 362.961 114.266 362.961 115.734ZM399.031 103.945C398.141 102.883 397.094 102.352 395.891 102.352C394.859 102.352 393.617 103.375 392.164 105.422C391.539 106.312 390.938 107.328 390.359 108.469V120L396.242 120.797L396.336 121.125L396.078 123H383.469L383.305 122.789L383.516 121.008L386.633 120V104.344L383.352 102.914L383.141 102.633L383.352 101.367L389.539 98.8828L389.914 99.0938L390.359 105.164C391.688 101.742 393.461 99.5938 395.68 98.7188C396.18 98.5312 396.891 98.4375 397.812 98.4375C398.734 98.4375 399.68 98.6953 400.648 99.2109C400.586 101.305 400.047 102.883 399.031 103.945ZM407.234 133.547C410.141 129.156 412.281 125.602 413.656 122.883L405.312 102.094L402.617 101.414L402.453 101.133L402.711 99.2578H412.461L412.625 99.4922L412.391 101.203L409.789 102.094L415.719 119.203H415.93C416.914 116.781 417.789 114.531 418.555 112.453L420.523 106.992C421.148 105.18 421.695 103.523 422.164 102.023L418.789 101.414L418.672 101.133L418.953 99.2578H427.789L427.953 99.4922L427.625 101.414L425.141 102.094L418.203 119.414C417.375 121.43 416.516 123.406 415.625 125.344L413.211 130.523L410.703 135.609C409.828 135.609 408.984 135.266 408.172 134.578C407.812 134.281 407.5 133.938 407.234 133.547Z" fill="#D23D2D"/>
<defs>
<clipPath id="clip0_1703_1446">
<rect width="152" height="152" fill="white"/>
</clipPath>
<clipPath id="clip1_1703_1446">
<rect width="106.4" height="106.4" fill="white" transform="translate(22.8 22.7999)"/>
</clipPath>
</defs>
</svg>
