<svg width="413" height="413" viewBox="0 0 413 413" fill="none" xmlns="http://www.w3.org/2000/svg">
<path d="M206.033 411.033C319.252 411.033 411.033 319.252 411.033 206.033C411.033 92.8148 319.252 1.0332 206.033 1.0332C92.8149 1.0332 1.03323 92.8148 1.03323 206.033C1.03323 319.252 92.8149 411.033 206.033 411.033Z" fill="#D23D2D"/>
<g clip-path="url(#clip0_1703_1354)">
<path d="M200.024 61.8101H61.81V91.8566H200.024V61.8101Z" fill="#F8EECB"/>
<path d="M200.024 115.894H61.81V145.94H200.024V115.894Z" fill="#F8EECB"/>
<path d="M200.024 169.978H61.81V200.024H200.024V169.978Z" fill="#F8EECB"/>
<path d="M350.257 212.043H212.043V242.089H350.257V212.043Z" fill="#F8EECB"/>
<path d="M350.257 266.126H212.043V296.173H350.257V266.126Z" fill="#F8EECB"/>
<path d="M350.257 320.21H212.043V350.256H350.257V320.21Z" fill="#F8EECB"/>
<path d="M200.024 212.043H169.977V350.257H200.024V212.043Z" fill="#F8EECB"/>
<path d="M145.94 212.043H115.894V350.257H145.94V212.043Z" fill="#F8EECB"/>
<path d="M91.8565 212.043H61.81V350.257H91.8565V212.043Z" fill="#F8EECB"/>
<path d="M350.256 61.8101H320.21V200.024H350.256V61.8101Z" fill="#F8EECB"/>
<path d="M296.173 61.8101H266.126V200.024H296.173V61.8101Z" fill="#F8EECB"/>
<path d="M242.089 61.8101H212.043V200.024H242.089V61.8101Z" fill="#F8EECB"/>
</g>
<defs>
<clipPath id="clip0_1703_1354">
<rect width="288.447" height="288.447" fill="white" transform="translate(61.81 61.8101)"/>
</clipPath>
</defs>
</svg>
