<svg width="1000" height="1000" viewBox="0 0 1000 1000" fill="none" xmlns="http://www.w3.org/2000/svg">
<g clip-path="url(#clip0_508_236)">
<path d="M1000 0H0V1000H1000V0Z" fill="white"/>
<g clip-path="url(#clip1_508_236)">
<g clip-path="url(#clip2_508_236)">
<g clip-path="url(#clip3_508_236)">
<g clip-path="url(#clip4_508_236)">
<g clip-path="url(#clip5_508_236)">
<g clip-path="url(#clip6_508_236)">
<path d="M499.65 704.65C612.868 704.65 704.65 612.868 704.65 499.65C704.65 386.432 612.868 294.65 499.65 294.65C386.432 294.65 294.65 386.432 294.65 499.65C294.65 612.868 386.432 704.65 499.65 704.65Z" fill="#4D7E3E"/>
<g clip-path="url(#clip7_508_236)">
<path d="M493.641 355.427H355.427V385.473H493.641V355.427Z" fill="white"/>
<path d="M493.641 409.51H355.427V439.557H493.641V409.51Z" fill="white"/>
<path d="M493.641 463.594H355.427V493.641H493.641V463.594Z" fill="white"/>
<path d="M643.873 505.659H505.659V535.706H643.873V505.659Z" fill="white"/>
<path d="M643.873 559.743H505.659V589.79H643.873V559.743Z" fill="white"/>
<path d="M643.873 613.827H505.659V643.873H643.873V613.827Z" fill="white"/>
<path d="M493.641 505.659H463.594V643.873H493.641V505.659Z" fill="white"/>
<path d="M439.557 505.659H409.51V643.873H439.557V505.659Z" fill="white"/>
<path d="M385.473 505.659H355.427V643.873H385.473V505.659Z" fill="white"/>
<path d="M643.873 355.427H613.827V493.641H643.873V355.427Z" fill="white"/>
<path d="M589.79 355.427H559.743V493.641H589.79V355.427Z" fill="white"/>
<path d="M535.706 355.427H505.659V493.641H535.706V355.427Z" fill="white"/>
</g>
<path d="M215.558 379.183L209.218 397.828L205.683 396.87L206.023 392.17C205.773 391.993 205.17 391.698 204.218 391.283C203.243 390.878 201.995 390.39 200.473 389.818C198.963 389.268 197.308 388.688 195.51 388.073L185.378 384.628C183.48 383.983 181.75 383.413 180.185 382.915C178.63 382.44 177.345 382.068 176.325 381.795C175.3 381.538 174.683 381.42 174.475 381.438L171.903 385.38L168.493 383.975L174.835 365.33L178.395 366.295L178.013 371.038C178.16 371.198 178.77 371.495 179.843 371.933C180.9 372.365 182.2 372.89 183.743 373.505C185.29 374.105 186.898 374.688 188.565 375.255L198.698 378.703C200.268 379.238 201.848 379.738 203.44 380.208C205.038 380.66 206.38 381.035 207.465 381.33C208.55 381.625 209.248 381.773 209.56 381.768L212.175 377.785L215.558 379.183ZM207.063 404.155L200.763 422.678L197.238 421.698L197.595 416.948C197.4 416.773 196.83 416.488 195.888 416.093C194.928 415.693 193.688 415.208 192.168 414.635C190.63 414.058 188.938 413.455 187.09 412.828L176.958 409.38C175.013 408.718 173.26 408.15 171.708 407.675C170.138 407.195 168.843 406.82 167.823 406.545C166.803 406.27 166.21 406.16 166.045 406.215L163.458 410.208L160.04 408.825L166.34 390.305L169.9 391.268L169.543 395.938C169.69 396.098 170.25 396.38 171.225 396.783C172.195 397.203 173.445 397.685 174.978 398.223C176.525 398.768 178.248 399.363 180.145 400.008L190.278 403.455C192.078 404.068 193.74 404.623 195.265 405.125C196.808 405.633 198.093 406.013 199.118 406.27C200.12 406.538 200.778 406.67 201.09 406.668L203.68 402.758L207.063 404.155ZM186.833 404.008L181.558 402.213C182.083 401.15 182.615 399.908 183.155 398.488C183.678 397.06 184.308 395.258 185.048 393.083C185.783 390.923 186.378 389.12 186.835 387.668C187.275 386.213 187.613 384.903 187.843 383.74L193.115 385.535C192.733 386.5 192.265 387.683 191.718 389.083C191.163 390.5 190.493 392.36 189.708 394.668C188.918 396.99 188.31 398.883 187.888 400.343C187.47 401.788 187.118 403.01 186.833 404.008Z" fill="#4D7E3E"/>
<path d="M224.765 361.825L217.963 374.23L214.66 372.655L215.445 368.743L190.993 338.373L190.923 331.33L233.66 335.525L236.535 332.758L239.628 334.718L230.185 351.94L226.88 350.368L228.09 345.68L217.915 344.623L215.325 344.118L196.643 342.24L198.188 340.663L209.723 353.903L211.33 355.553L218.36 363.425L221.66 359.888L224.765 361.825ZM212.528 358.218L208.165 355.828C208.685 354.99 209.268 354.048 209.92 353.005C210.563 351.978 211.378 350.563 212.365 348.76C213.303 347.048 214.055 345.608 214.615 344.44C215.178 343.27 215.66 342.265 216.065 341.42L220.358 343.775C219.91 344.593 219.355 345.57 218.693 346.705C218.008 347.848 217.208 349.25 216.295 350.915C215.333 352.673 214.57 354.115 214.01 355.248C213.425 356.385 212.933 357.375 212.528 358.218Z" fill="#4D7E3E"/>
<path d="M257.793 311.385C254.935 315.18 251.75 318.015 248.24 319.892C244.715 321.757 241.065 322.542 237.285 322.247C233.515 321.94 229.818 320.417 226.188 317.685C223.373 315.565 221.208 313.155 219.693 310.46C218.178 307.762 217.335 304.89 217.165 301.84C216.97 298.795 217.393 295.707 218.433 292.577C219.485 289.457 221.13 286.412 223.365 283.445C224.715 281.65 226.253 279.997 227.975 278.485C229.685 276.962 231.305 275.802 232.833 275.005L242.088 281.327L239.608 285.135L231.918 282.555C230.97 283.01 230.055 283.607 229.173 284.347C228.305 285.1 227.515 285.945 226.808 286.882C225.103 289.145 224.195 291.457 224.085 293.817C223.96 296.167 224.563 298.48 225.895 300.76C227.23 303.062 229.223 305.212 231.873 307.207C234.88 309.472 237.843 310.925 240.758 311.562C243.683 312.187 246.36 312.105 248.79 311.32C251.218 310.51 253.21 309.07 254.77 307C255.59 305.91 256.248 304.737 256.735 303.485C257.225 302.232 257.445 301.035 257.395 299.895L253.568 293.735L256.943 290.115L263.448 297.672C263.32 299.48 262.775 301.652 261.813 304.195C260.838 306.725 259.498 309.122 257.793 311.385Z" fill="#4D7E3E"/>
<path d="M305.76 261.015L291.478 274.572L288.793 272.085L291.28 268.08C291.14 267.807 290.745 267.265 290.095 266.455C289.42 265.642 288.543 264.63 287.46 263.415C286.38 262.225 285.185 260.942 283.878 259.565L276.51 251.802C275.13 250.35 273.863 249.04 272.708 247.872C271.553 246.73 270.588 245.8 269.813 245.085C269.025 244.38 268.533 243.987 268.34 243.91L264.228 246.205L261.865 243.375L276.148 229.817L278.85 232.325L276.308 236.347C276.363 236.557 276.765 237.105 277.513 237.99C278.248 238.865 279.155 239.932 280.233 241.195C281.325 242.445 282.478 243.71 283.69 244.987L291.058 252.75C292.2 253.952 293.365 255.132 294.558 256.287C295.763 257.43 296.775 258.385 297.598 259.152C298.42 259.92 298.97 260.372 299.25 260.515L303.415 258.205L305.76 261.015ZM286.628 279.175L272.438 292.645L269.773 290.137L272.298 286.097C272.205 285.85 271.835 285.335 271.183 284.547C270.52 283.747 269.648 282.742 268.568 281.527C267.475 280.302 266.258 278.98 264.913 277.565L257.545 269.802C256.13 268.312 254.845 266.995 253.69 265.852C252.523 264.697 251.55 263.762 250.775 263.045C250 262.327 249.528 261.955 249.358 261.927L245.21 264.257L242.825 261.445L257.015 247.977L259.718 250.485L257.233 254.452C257.288 254.662 257.653 255.172 258.328 255.985C258.99 256.81 259.875 257.815 260.98 259.005C262.098 260.207 263.345 261.535 264.725 262.987L272.093 270.75C273.4 272.127 274.615 273.395 275.733 274.547C276.863 275.712 277.823 276.65 278.61 277.352C279.373 278.057 279.895 278.48 280.173 278.622L284.283 276.365L286.628 279.175ZM268.785 269.637L264.95 265.597C265.91 264.902 266.958 264.05 268.098 263.04C269.225 262.017 270.62 260.717 272.285 259.135C273.94 257.565 275.305 256.245 276.385 255.172C277.453 254.087 278.358 253.085 279.103 252.165L282.938 256.205C282.15 256.88 281.188 257.71 280.05 258.695C278.9 259.692 277.443 261.027 275.675 262.705C273.895 264.392 272.478 265.787 271.425 266.882C270.383 267.967 269.503 268.885 268.785 269.637Z" fill="#4D7E3E"/>
<path d="M329.02 244.21L313.02 255.735L310.715 252.893L313.76 249.23C313.702 248.973 313.405 248.41 312.865 247.543C312.315 246.66 311.588 245.548 310.68 244.2C309.763 242.838 308.735 241.365 307.592 239.78L301.337 231.098C300.135 229.43 299.04 227.953 298.05 226.663C297.05 225.36 296.212 224.303 295.54 223.49C294.867 222.675 294.45 222.243 294.285 222.19L289.86 223.94L287.878 220.833L303.877 209.308L306.217 212.158L303.095 215.845C303.122 216.06 303.415 216.615 303.975 217.51C304.52 218.415 305.263 219.533 306.195 220.86C307.14 222.203 308.198 223.685 309.37 225.31L315.625 233.995C316.735 235.538 317.767 236.955 318.72 238.248C319.682 239.555 320.507 240.61 321.195 241.415C321.857 242.215 322.315 242.705 322.57 242.883L327.073 241.11L329.02 244.21Z" fill="#4D7E3E"/>
<path d="M377.47 217.843L358.262 228.083L356.292 224.993L359.3 222.538C358.79 222.203 358.28 221.908 357.77 221.65C357.285 221.4 356.53 221.048 355.505 220.598L342.322 215.145L339.807 216.485L338.16 213.398L340.58 211.435L346.607 190.63L342.092 192.128L340.545 188.785L355.225 180.958L357.222 184.21L353.287 187.13L345.865 207.47L344.16 204.71L364.582 212.998C366.245 213.618 367.567 214.118 368.55 214.495C369.527 214.895 370.287 215.185 370.832 215.363C371.377 215.543 371.815 215.68 372.142 215.78L375.715 214.55L377.47 217.843ZM353.277 230.74L336.93 239.455L335.005 236.34L338.582 233.083C338.52 232.745 338.027 231.655 337.107 229.818C336.185 227.98 335.002 225.703 333.555 222.99L328.52 213.545C327.552 211.73 326.665 210.12 325.855 208.713C325.037 207.288 324.355 206.135 323.805 205.253C323.265 204.385 322.905 203.893 322.725 203.775L318.105 204.915L316.557 201.57L333.957 192.295L335.872 195.445L332.282 198.68C332.32 198.935 332.555 199.543 332.99 200.505C333.402 201.46 333.982 202.658 334.73 204.098C335.455 205.533 336.29 207.133 337.232 208.903L342.267 218.345C343.715 221.058 344.96 223.303 346.002 225.075C347.03 226.858 347.645 227.88 347.842 228.145L351.765 227.405L353.277 230.74Z" fill="#4D7E3E"/>
<path d="M403.597 209.728C399.347 211.183 395.275 211.603 391.375 210.985C387.457 210.373 384.04 208.843 381.117 206.393C378.185 203.965 376.04 200.765 374.677 196.793C373.255 192.643 372.93 188.625 373.702 184.745C374.457 180.87 376.185 177.44 378.885 174.453C381.585 171.463 385.062 169.243 389.31 167.785C393.412 166.38 397.337 166.003 401.085 166.655C404.815 167.313 408.102 168.853 410.94 171.278C413.8 173.713 415.927 176.965 417.322 181.033C418.542 184.595 418.95 187.943 418.545 191.078C418.14 194.21 417.197 197.035 415.722 199.548C414.23 202.068 412.412 204.198 410.27 205.938C408.127 207.675 405.902 208.94 403.597 209.728ZM402.38 204.338C404.505 203.61 406.085 202.438 407.12 200.825C408.172 199.205 408.685 197.185 408.66 194.765C408.635 192.345 408.092 189.59 407.035 186.503C405.815 182.94 404.287 180.003 402.455 177.69C400.632 175.355 398.662 173.74 396.547 172.838C394.432 171.938 392.262 171.868 390.04 172.63C386.852 173.723 384.802 175.895 383.89 179.148C383 182.41 383.352 186.373 384.947 191.028C386.122 194.46 387.652 197.295 389.532 199.538C391.415 201.778 393.452 203.335 395.652 204.205C397.867 205.073 400.11 205.115 402.38 204.338Z" fill="#4D7E3E"/>
<path d="M447.945 157.627L447.815 153.942L467.967 152.085C475.845 151.357 482.165 152.632 486.925 155.907C491.7 159.162 494.392 164.075 494.997 170.645C495.387 174.877 494.687 178.757 492.897 182.29C491.105 185.802 488.463 188.667 484.97 190.877C481.463 193.092 477.35 194.417 472.637 194.852L451.763 196.777L451.222 193.157L455.783 191.54C455.89 191.2 455.897 189.967 455.807 187.842C455.715 185.717 455.535 183.192 455.265 180.267L454.282 169.612C454 166.55 453.71 163.967 453.41 161.86C453.112 159.752 452.882 158.587 452.722 158.357L447.945 157.627ZM463.233 157.467C463.26 157.76 463.307 158.38 463.377 159.327C463.43 160.277 463.518 161.517 463.643 163.05C463.75 164.585 463.905 166.47 464.112 168.705L465.095 179.362C465.21 180.617 465.35 181.94 465.513 183.33C465.658 184.722 465.827 185.99 466.02 187.135C466.197 188.297 466.343 189.222 466.458 189.905C467.593 189.99 468.707 190.045 469.802 190.065C470.915 190.085 471.953 190.05 472.915 189.96C477.06 189.577 480.083 188.102 481.98 185.532C483.875 182.947 484.585 179.082 484.113 173.94C483.798 170.535 483.145 167.67 482.15 165.35C481.138 163.032 479.887 161.212 478.392 159.895C476.897 158.557 475.242 157.627 473.425 157.1C471.607 156.59 469.703 156.427 467.708 156.612C467.038 156.675 466.318 156.775 465.55 156.915C464.765 157.057 463.993 157.24 463.233 157.467Z" fill="#4D7E3E"/>
<path d="M526.453 193.855L506.753 192.972L506.708 189.312L511.37 188.327C511.485 188.09 511.6 187.465 511.713 186.45C511.828 185.417 511.948 184.093 512.073 182.472C512.198 180.835 512.305 179.043 512.393 177.09L512.873 166.4C512.965 164.347 513.02 162.508 513.043 160.883C513.065 159.24 513.065 157.892 513.043 156.835C513.02 155.78 512.96 155.18 512.863 155.038L508.308 153.668L508.68 150L528.38 150.882L528.448 154.57L523.71 155.525C523.598 155.71 523.485 156.327 523.368 157.378C523.235 158.427 523.123 159.762 523.033 161.382C522.943 163.02 522.853 164.842 522.76 166.843L522.283 177.535C522.198 179.432 522.128 181.185 522.073 182.79C522.018 184.413 522.01 185.752 522.048 186.81C522.07 187.847 522.128 188.518 522.215 188.815L526.848 190.215L526.453 193.855Z" fill="#4D7E3E"/>
<path d="M559.693 199.812C555.01 199.005 551.033 197.47 547.76 195.207C544.49 192.925 542.12 190.037 540.655 186.54C539.205 183.047 538.868 179.062 539.638 174.585C540.235 171.112 541.388 168.085 543.095 165.505C544.803 162.925 546.973 160.862 549.605 159.317C552.223 157.752 555.163 156.717 558.423 156.21C561.68 155.72 565.138 155.79 568.8 156.42C571.013 156.802 573.188 157.412 575.32 158.255C577.458 159.08 579.228 159.99 580.635 160.985L579.245 172.102L574.723 171.64L573.503 163.62C572.665 162.985 571.715 162.445 570.653 161.997C569.588 161.567 568.475 161.255 567.318 161.055C564.525 160.575 562.055 160.822 559.905 161.802C557.758 162.765 555.975 164.36 554.558 166.587C553.12 168.83 552.12 171.585 551.555 174.852C550.915 178.562 550.978 181.862 551.745 184.745C552.528 187.632 553.823 189.977 555.633 191.777C557.463 193.565 559.655 194.68 562.21 195.12C563.555 195.352 564.898 195.4 566.235 195.262C567.573 195.125 568.738 194.772 569.73 194.207L573.458 187.987L578.22 189.335L574.473 198.575C572.808 199.287 570.625 199.797 567.925 200.102C565.228 200.392 562.485 200.295 559.693 199.815V199.812Z" fill="#4D7E3E"/>
<path d="M634.318 175.993L631.703 188.795L627.288 187.69L627.263 178.748C626.833 178.508 626.37 178.285 625.875 178.08C625.358 177.885 624.805 177.685 624.218 177.483L621.865 176.675C621.44 176.53 620.968 176.368 620.443 176.188C619.903 176.003 619.478 175.91 619.168 175.915C619.073 176.193 618.773 177.04 618.268 178.455C617.74 179.883 617.13 181.58 616.435 183.55C615.718 185.533 615.008 187.545 614.308 189.588L612.103 196.01C611.21 198.608 610.433 200.953 609.77 203.043C609.108 205.135 608.618 206.72 608.3 207.8L613.993 210.85L612.535 214.378L590.993 206.98L592.033 203.31L598.4 204.4C598.798 203.35 599.378 201.795 600.138 199.735C600.9 197.678 601.725 195.35 602.618 192.753L604.823 186.33C605.525 184.288 606.208 182.268 606.878 180.27C607.523 178.283 608.093 176.57 608.585 175.13C609.073 173.708 609.34 172.85 609.388 172.555C609.143 172.363 608.76 172.175 608.238 171.998C607.698 171.813 607.225 171.65 606.815 171.508L604.39 170.675C603.835 170.485 603.268 170.3 602.69 170.12C602.09 169.95 601.548 169.828 601.063 169.753L595.655 176.965L591.485 175.068L597.188 163.245C597.645 163.403 598.29 163.65 599.123 163.99C599.973 164.338 600.855 164.685 601.778 165.04C602.708 165.415 603.625 165.775 604.53 166.12C605.423 166.445 606.188 166.718 606.825 166.938L624.445 172.988C625.083 173.208 625.845 173.46 626.733 173.745C627.625 174.015 628.563 174.293 629.545 174.573C630.52 174.87 631.433 175.138 632.283 175.378C633.133 175.615 633.81 175.82 634.318 175.993Z" fill="#4D7E3E"/>
<path d="M646.5 229.437L628.755 220.832L630.163 217.455L634.835 218.395C635.035 218.222 635.387 217.692 635.892 216.805C636.407 215.902 637.043 214.732 637.798 213.295C638.56 211.84 639.368 210.235 640.218 208.48L644.888 198.85C645.785 197 646.565 195.332 647.225 193.85C647.895 192.35 648.428 191.112 648.828 190.132C649.225 189.155 649.408 188.58 649.375 188.41L645.733 185.35L647.525 182.13L665.267 190.732L663.872 194.145L659.143 193.147C658.968 193.272 658.618 193.795 658.095 194.715C657.558 195.625 656.928 196.807 656.203 198.26C655.47 199.73 654.668 201.365 653.795 203.167L649.125 212.797C648.295 214.507 647.538 216.09 646.853 217.542C646.16 219.01 645.622 220.237 645.24 221.225C644.85 222.187 644.638 222.825 644.603 223.132L648.303 226.252L646.5 229.437Z" fill="#4D7E3E"/>
<path d="M673.595 247.585C669.85 245.105 667.033 242.132 665.143 238.667C663.238 235.19 662.365 231.547 662.525 227.737C662.66 223.932 663.888 220.28 666.205 216.78C668.628 213.12 671.61 210.412 675.153 208.657C678.683 206.892 682.455 206.167 686.473 206.485C690.488 206.802 694.37 208.2 698.115 210.677C701.73 213.07 704.423 215.95 706.193 219.317C707.948 222.675 708.73 226.217 708.543 229.947C708.358 233.7 707.08 237.37 704.705 240.955C702.628 244.095 700.223 246.46 697.493 248.052C694.763 249.642 691.95 250.62 689.058 250.985C686.15 251.34 683.355 251.197 680.67 250.56C677.985 249.922 675.628 248.93 673.595 247.585ZM677.123 243.335C678.995 244.575 680.888 245.112 682.8 244.947C684.725 244.792 686.64 243.967 688.54 242.47C690.443 240.972 692.295 238.865 694.098 236.14C696.175 233 697.573 229.997 698.285 227.135C699.023 224.267 699.103 221.72 698.525 219.495C697.948 217.27 696.68 215.507 694.72 214.21C691.91 212.35 688.94 212.052 685.805 213.315C682.675 214.6 679.753 217.295 677.035 221.4C675.033 224.425 673.717 227.367 673.09 230.225C672.462 233.082 672.473 235.647 673.125 237.922C673.79 240.205 675.123 242.01 677.123 243.335Z" fill="#4D7E3E"/>
<path d="M736.07 281.793L733.895 279.718L741.638 271.598C743.283 269.873 744.76 268.298 746.07 266.873C747.393 265.46 748.445 264.293 749.23 263.37C750.015 262.423 750.458 261.833 750.563 261.598L747.653 257.213L750.343 254.693L761.633 265.458L759.263 268.28L755.063 265.888C754.858 266.028 754.32 266.505 753.448 267.32C752.575 268.135 751.44 269.238 750.045 270.628C748.66 272.005 747.145 273.555 745.5 275.28L735.898 285.353C734.313 287.015 732.918 288.478 731.715 289.74C730.523 290.99 729.338 292.235 728.155 293.473L724.93 290.398L727.12 245.405L729.933 248.088L719.865 258.645C718.04 260.558 716.445 262.258 715.075 263.745C713.718 265.243 712.643 266.473 711.845 267.433C711.025 268.393 710.553 269.04 710.425 269.373L713.26 273.723L710.59 276.223L699.13 265.298L701.503 262.51L705.663 264.83C705.953 264.653 706.575 264.125 707.53 263.248C708.475 262.358 709.68 261.18 711.148 259.715C712.628 258.238 714.208 256.618 715.89 254.855L722.613 247.803C723.518 246.853 724.4 245.865 725.255 244.845C726.11 243.848 726.853 242.968 727.483 242.208C728.1 241.46 728.493 240.963 728.658 240.713L726.123 236.685L728.813 234.165L737.195 242.158L736.07 281.793Z" fill="#4D7E3E"/>
<path d="M743.662 312.028L735.25 300.653L738.065 298.313L741.287 300.668L779.112 291.195L785.535 294.083L763.812 331.128L765.12 334.898L762.042 336.883L750.365 321.09L753.18 318.75L756.925 321.813L762.152 313.018L763.695 310.878L773.232 294.705L774.017 296.768L757.16 301.69L754.99 302.46L744.892 305.543L746.722 310.023L743.662 312.028ZM752.065 302.43L756.067 299.47C756.612 300.293 757.22 301.218 757.892 302.245C758.555 303.258 759.497 304.593 760.722 306.245C761.882 307.815 762.877 309.1 763.7 310.1C764.525 311.1 765.237 311.96 765.835 312.68L761.897 315.593C761.342 314.843 760.69 313.93 759.935 312.853C759.185 311.753 758.247 310.438 757.117 308.91C755.925 307.3 754.935 306.003 754.142 305.018C753.355 304.01 752.66 303.148 752.065 302.43Z" fill="#4D7E3E"/>
<path d="M773.717 358.468L764.99 341.95L768.11 340.038L771.402 343.603C771.662 343.465 772.167 343.218 772.915 342.863C773.672 342.483 774.55 342.038 775.55 341.528C776.56 341.033 777.587 340.52 778.635 339.988C779.675 339.478 780.608 339.005 781.43 338.568L790.892 333.568C792.71 332.608 794.325 331.725 795.738 330.923C797.165 330.11 798.32 329.43 799.205 328.885C800.075 328.348 800.567 327.99 800.687 327.808L799.527 323.118L802.877 321.583L811.75 338.375C814.373 343.34 815.527 347.428 815.212 350.643C814.875 353.85 813.003 356.353 809.595 358.153C807.473 359.275 805.242 359.623 802.907 359.195C800.557 358.775 798.31 357.688 796.17 355.925C794.005 354.158 792.147 351.808 790.6 348.875L788.372 344.66L792.13 342.675L793.678 345.608C794.815 347.76 796.395 349.145 798.42 349.755C800.435 350.39 802.542 350.128 804.742 348.965C806.775 347.893 808.022 346.52 808.487 344.848C808.975 343.183 808.663 341.298 807.548 339.188L806.243 336.713C806.08 336.74 805.69 336.908 805.07 337.215C804.468 337.515 803.697 337.91 802.767 338.403C801.835 338.895 800.797 339.443 799.65 340.05C798.505 340.655 797.29 341.298 796.008 341.973L786.017 347.25C784.902 347.84 783.677 348.498 782.342 349.223C781.007 349.948 779.777 350.635 778.655 351.288C777.532 351.938 776.725 352.425 776.23 352.745L777.045 356.945L773.717 358.468ZM782.077 376.178C780.795 373.75 780.045 371.39 779.832 369.1C779.62 366.81 779.937 364.493 780.787 362.148C781.647 359.78 783.022 357.353 784.915 354.868L790.937 346.968L796.412 353.278L789.732 366.653C788.965 368.23 788.37 369.678 787.952 370.993C787.557 372.315 787.335 373.595 787.285 374.833C787.25 376.063 787.367 377.3 787.635 378.545L784.62 380.05C784.135 379.428 783.677 378.8 783.245 378.17C782.83 377.53 782.44 376.868 782.077 376.178Z" fill="#4D7E3E"/>
<path d="M835.865 406.032L833.512 402.91L804.965 396.612L812.925 397.102L806.017 399.565C805.205 399.855 804.347 400.18 803.447 400.537C802.557 400.872 801.742 401.182 801 401.465C800.247 401.77 799.605 402.055 799.077 402.317C798.547 402.58 798.225 402.757 798.112 402.852L798.787 408.06L795.202 409.117L788.335 389.86L791.77 388.387L794.542 392.845C794.69 392.847 795.05 392.775 795.62 392.627C796.19 392.48 796.865 392.285 797.64 392.045C798.405 391.827 799.235 391.557 800.132 391.237C801.042 390.912 801.905 390.605 802.72 390.315L809.625 387.852L803.537 392.61L821.942 370.472L821.787 366.567L825.322 365.525L831.825 383.757L828.43 385.19L825.782 381.237L813.8 395.387L813.207 393.727L831.45 397.125L830.822 391.9L834.36 390.86L839.26 404.6L835.865 406.032Z" fill="#4D7E3E"/>
<path d="M194.09 629.9L180.115 630.675C179.84 629.385 179.493 628.015 179.075 626.57C178.658 625.125 178.263 623.745 177.888 622.433C177.508 621.103 177.195 620.06 176.948 619.305L169.878 597.653L173.375 596.265L176.005 600.477C176.283 600.495 176.965 600.355 178.048 600.055C179.13 599.755 180.475 599.363 182.08 598.875C183.705 598.398 185.398 597.873 187.153 597.3L197.573 593.898C199.427 593.293 201.145 592.705 202.72 592.135C204.303 591.583 205.61 591.11 206.648 590.718C207.683 590.325 208.283 590.048 208.445 589.883L208.158 584.908L211.8 583.963L218.543 604.605L214.895 606.043L211.898 600.45C211.733 600.45 211.14 600.58 210.118 600.843C209.09 601.088 207.772 601.453 206.167 601.94C204.557 602.41 202.752 602.973 200.75 603.628L190.33 607.03C187.57 607.93 185.355 608.683 183.678 609.283C181.998 609.868 180.853 610.288 180.245 610.54C180.365 611.41 180.55 612.285 180.803 613.168C181.043 614.07 181.365 615.138 181.768 616.368L182.653 619.077C182.98 620.08 183.32 620.985 183.675 621.797C184.048 622.602 184.368 623.253 184.64 623.745L193.725 625.192L194.09 629.9Z" fill="#4D7E3E"/>
<path d="M220.483 684.22L208.193 687.053C207.593 685.765 206.87 684.233 206.023 682.45C205.168 680.655 204.36 679.058 203.603 677.663L191.273 654.93L194.478 652.955L197.81 656.603C198.088 656.57 198.705 656.333 199.665 655.89C200.633 655.463 201.865 654.873 203.363 654.12C204.853 653.353 206.478 652.49 208.24 651.535L217.875 646.31C219.728 645.305 221.383 644.388 222.838 643.56C224.285 642.715 225.453 642.005 226.338 641.425C227.23 640.863 227.745 640.485 227.878 640.295L226.64 635.513L230.043 633.905L241.073 654.245C241.55 655.125 242.138 656.193 242.838 657.445C243.543 658.673 244.255 659.88 244.975 661.06C245.695 662.243 246.303 663.238 246.803 664.05L237.995 671.125L235.395 667.583L239.883 661.995C239.705 661.345 239.518 660.778 239.315 660.298C239.105 659.803 238.86 659.295 238.58 658.78L235.85 653.748C235.398 652.913 234.945 652.115 234.495 651.358C234.068 650.608 233.678 650.013 233.323 649.575C232.973 649.765 232.433 650.038 231.705 650.395C230.998 650.758 230.09 651.223 228.98 651.785C227.863 652.37 226.56 653.068 225.073 653.873L211.2 661.398C209.788 662.163 208.533 662.855 207.43 663.47C206.353 664.093 205.455 664.61 204.735 665.02C204.023 665.445 203.47 665.765 203.073 665.98C203.365 666.845 203.733 667.725 204.183 668.623C204.615 669.528 205.19 670.643 205.905 671.963L207.808 675.47C208.425 676.61 208.89 677.448 209.2 677.985C209.528 678.515 209.783 678.918 209.973 679.19C210.175 679.455 210.38 679.725 210.59 680.003L219.173 680.065L220.483 684.22ZM219.21 674.915L217.233 671.273L221.293 668.215C221.173 667.888 220.945 667.393 220.608 666.73C220.275 666.045 219.87 665.263 219.393 664.383L217.503 660.898C217.09 660.138 216.678 659.43 216.26 658.77C215.845 658.113 215.518 657.62 215.283 657.295L219.975 654.75C220.12 655.125 220.353 655.665 220.68 656.373C221.005 657.08 221.373 657.815 221.785 658.575L223.675 662.06C224.153 662.94 224.588 663.708 224.98 664.358C225.35 665.003 225.618 665.478 225.78 665.78L230.58 664.033L232.558 667.678L219.21 674.915Z" fill="#4D7E3E"/>
<path d="M231.6 718.645L222.325 707.485L225.065 704.905L228.483 707.152L266.675 695.255L273.41 697.845L253.31 737.025L254.893 740.795L251.855 743.017L238.985 727.532L241.725 724.952L245.723 727.897L250.578 718.575L252.035 716.317L260.863 699.207L261.798 701.263L244.813 707.26L242.648 708.182L232.473 711.955L234.62 716.403L231.6 718.645ZM239.635 708.327L243.56 705.065C244.16 705.867 244.838 706.778 245.59 707.793C246.318 708.805 247.358 710.12 248.705 711.74C249.985 713.28 251.085 714.535 252 715.503C252.903 716.483 253.678 717.32 254.325 718.017L250.46 721.232C249.853 720.502 249.133 719.595 248.3 718.512C247.478 717.442 246.445 716.157 245.198 714.655C243.883 713.075 242.793 711.802 241.925 710.84C241.045 709.862 240.283 709.027 239.635 708.327Z" fill="#4D7E3E"/>
<path d="M283.068 771.113L268.273 758.952L270.478 755.902L275.008 757.982C275.205 757.742 275.58 757.3 276.13 756.657C276.695 756.025 277.35 755.267 278.098 754.385C278.845 753.502 279.613 752.61 280.395 751.71C281.175 750.788 281.868 749.957 282.473 749.225L289.433 740.757C290.77 739.13 291.953 737.653 292.975 736.323C294.013 735.005 294.833 733.912 295.433 733.045C296.048 732.187 296.383 731.645 296.435 731.417L293.468 727.438L296.033 724.682L311.068 737.037C315.525 740.7 318.233 744.112 319.193 747.272C320.153 750.43 319.375 753.537 316.865 756.592C315.308 758.487 313.34 759.7 310.96 760.228C308.57 760.768 306.01 760.632 303.28 759.817C300.55 759.005 297.87 757.518 295.243 755.358L291.458 752.247L294.223 748.885L296.845 751.04C298.78 752.63 300.823 753.315 302.973 753.092C305.125 752.895 307.013 751.807 308.638 749.832C310.13 748.017 310.77 746.23 310.563 744.47C310.365 742.697 309.318 741.032 307.423 739.475L305.22 737.665C305.08 737.752 304.773 738.058 304.298 738.585C303.845 739.108 303.275 739.79 302.583 740.63C301.903 741.457 301.14 742.385 300.295 743.413C299.45 744.44 298.55 745.535 297.598 746.695L290.26 755.625C289.428 756.64 288.528 757.745 287.565 758.945C286.605 760.167 285.723 761.31 284.918 762.37C284.113 763.43 283.533 764.205 283.175 764.695L285.633 768.357L283.068 771.113ZM297.985 784.545C295.823 782.767 294.185 780.843 293.075 778.768C291.975 776.678 291.36 774.35 291.233 771.785C291.105 769.22 291.435 766.382 292.223 763.275L294.793 753.413L302.473 757.21L301.468 772.515C301.36 774.305 301.375 775.905 301.513 777.315C301.65 778.725 301.943 780.015 302.388 781.188C302.835 782.383 303.438 783.515 304.193 784.582L301.945 787.197C301.22 786.802 300.54 786.39 299.91 785.96C299.255 785.532 298.613 785.062 297.985 784.545Z" fill="#4D7E3E"/>
<path d="M362.78 805.315L360.055 803.87L365.452 793.708C366.602 791.54 367.63 789.573 368.532 787.803C369.44 786.055 370.152 784.605 370.667 783.45C371.19 782.32 371.467 781.615 371.497 781.338L367.41 777.818L369.38 774.61L383.52 782.123L381.942 785.538L377.147 784.34C376.98 784.545 376.577 785.173 375.942 786.225C375.29 787.268 374.472 788.663 373.487 790.405C372.502 792.15 371.432 794.105 370.282 796.275L363.582 808.883C362.48 810.958 361.513 812.78 360.678 814.353C359.843 815.925 359.015 817.48 358.197 819.02L354.17 816.88L343.875 771.86L347.4 773.73L340.385 786.935C339.112 789.33 338.012 791.455 337.085 793.31C336.142 795.158 335.41 796.665 334.887 797.835C334.35 798.998 334.062 799.773 334.03 800.168L338.047 803.65L336.08 806.86L321.755 799.25L323.31 795.823L328.057 796.995C328.32 796.723 328.788 796.025 329.465 794.895C330.15 793.753 331.018 792.248 332.07 790.38C333.113 788.528 334.222 786.495 335.395 784.285L340.077 775.475C340.717 774.27 341.323 773.055 341.893 771.833C342.463 770.61 342.945 769.538 343.34 768.613C343.75 767.695 344.002 767.088 344.105 766.788L340.475 763.51L342.445 760.3L352.925 765.87L362.78 805.315Z" fill="#4D7E3E"/>
<path d="M443.142 844.71C438.602 843.893 434.742 842.233 431.56 839.728C428.36 837.22 426.062 834.148 424.662 830.508C423.265 826.868 422.945 822.933 423.71 818.7C424.51 814.263 426.212 810.498 428.822 807.403C431.432 804.31 434.692 802.098 438.602 800.765C442.51 799.433 446.735 799.175 451.272 799.993C455.66 800.783 459.36 802.405 462.377 804.86C465.397 807.3 467.572 810.325 468.905 813.935C470.242 817.528 470.52 821.493 469.74 825.828C469.055 829.635 467.75 832.84 465.822 835.443C463.915 838.048 461.665 840.11 459.075 841.628C456.485 843.145 453.792 844.153 451 844.65C448.227 845.135 445.607 845.153 443.142 844.71ZM444.727 839.28C446.987 839.688 448.992 839.425 450.74 838.495C452.487 837.563 453.952 836.003 455.137 833.81C456.32 831.635 457.207 828.9 457.8 825.6C458.482 821.808 458.585 818.413 458.107 815.413C457.627 812.43 456.657 810.008 455.202 808.15C453.767 806.278 451.867 805.128 449.505 804.703C446.105 804.09 443.19 805.023 440.76 807.498C438.335 809.958 436.672 813.678 435.775 818.66C435.12 822.298 435.07 825.598 435.625 828.558C436.182 831.503 437.24 833.913 438.8 835.793C440.337 837.685 442.312 838.848 444.727 839.28Z" fill="#4D7E3E"/>
<path d="M531.087 833.952L528.005 834.07L527.573 822.572C527.48 820.12 527.38 817.903 527.272 815.92C527.182 813.953 527.07 812.34 526.935 811.083C526.82 809.843 526.705 809.095 526.59 808.84L521.29 807.845L521.38 804.082L537.383 803.48L537.733 807.227L532.985 808.6C532.943 808.86 532.91 809.605 532.888 810.833C532.847 812.063 532.84 813.678 532.863 815.683C532.885 817.688 532.945 819.915 533.037 822.367L533.573 836.635C533.66 838.982 533.738 841.045 533.805 842.822C533.873 844.6 533.938 846.362 534.005 848.105L529.448 848.277L497.943 814.505L501.93 814.355L502.492 829.297C502.595 832.007 502.71 834.397 502.84 836.467C502.953 838.537 503.075 840.21 503.21 841.482C503.327 842.757 503.47 843.572 503.638 843.93L508.863 844.928L508.77 848.69L492.56 849.3L492.185 845.555L496.88 844.185C496.97 843.818 497.025 842.978 497.045 841.663C497.065 840.33 497.06 838.592 497.03 836.452C497.002 834.327 496.94 832.012 496.848 829.51L496.473 819.54C496.42 818.175 496.335 816.823 496.215 815.478C496.095 814.133 495.972 812.963 495.85 811.965C495.742 810.968 495.658 810.313 495.595 810.005L490.812 808.992L490.902 805.227L502.762 804.782L531.087 833.952Z" fill="#4D7E3E"/>
<path d="M600.457 822.51L600.07 835.115C598.672 835.368 597.007 835.678 595.067 836.043C593.112 836.413 591.365 836.788 589.82 837.165L564.7 843.303L563.605 839.703L567.98 837.408C568.02 837.13 567.947 836.473 567.762 835.433C567.597 834.388 567.34 833.045 566.992 831.405C566.627 829.77 566.207 827.978 565.732 826.033L563.132 815.385C562.632 813.338 562.167 811.505 561.735 809.885C561.287 808.27 560.895 806.96 560.562 805.958C560.245 804.95 560.012 804.358 559.86 804.18L554.92 804.16L554.23 800.46L576.71 794.968C577.682 794.73 578.865 794.433 580.252 794.075C581.62 793.705 582.967 793.323 584.292 792.928C585.617 792.533 586.737 792.198 587.647 791.923L592.25 802.24L588.162 803.853L583.9 798.093C583.225 798.098 582.63 798.135 582.115 798.21C581.582 798.288 581.03 798.395 580.46 798.533L574.897 799.893C573.975 800.118 573.09 800.353 572.242 800.595C571.407 800.818 570.735 801.043 570.22 801.275C570.315 801.66 570.44 802.253 570.6 803.05C570.772 803.825 570.987 804.823 571.252 806.038C571.535 807.268 571.877 808.703 572.277 810.35L576.022 825.678C576.405 827.238 576.752 828.63 577.07 829.85C577.4 831.05 577.67 832.05 577.882 832.853C578.112 833.65 578.282 834.268 578.39 834.703C579.3 834.64 580.245 834.508 581.225 834.305C582.21 834.118 583.432 833.845 584.895 833.488L588.77 832.54C590.027 832.233 590.957 831.998 591.557 831.833C592.152 831.653 592.607 831.505 592.917 831.393C593.225 831.265 593.54 831.135 593.862 831.003L596.107 822.718L600.457 822.51ZM591.137 821.373L587.11 822.358L585.185 817.653C584.837 817.685 584.3 817.78 583.575 817.938C582.827 818.085 581.967 818.278 580.995 818.515L577.145 819.458C576.305 819.663 575.515 819.883 574.77 820.115C574.027 820.35 573.47 820.54 573.097 820.685L571.83 815.5C572.227 815.455 572.81 815.368 573.577 815.233C574.345 815.098 575.147 814.928 575.987 814.725L579.84 813.783C580.812 813.545 581.665 813.32 582.395 813.105C583.112 812.913 583.64 812.775 583.975 812.693L583.505 807.605L587.532 806.623L591.137 821.373Z" fill="#4D7E3E"/>
<path d="M663.43 763.31L669.808 767.05L675.498 799.46L672.083 801.672L636.485 777.81L632.618 778.895L630.77 775.615L646.643 765.327L648.883 768.352L646.378 771.397L672.193 789.405L669.105 791.407L663.43 763.31ZM698.895 784.295L695.48 786.51L659.685 762.772L655.885 763.815L654.038 760.535L670.41 749.922L672.65 752.95L669.318 756.53L695.328 774.41L692.698 776.115L685.975 745.732L681.043 747.51L679.173 744.245L692.113 735.857L694.35 738.885L691.715 742.012L698.895 784.295Z" fill="#4D7E3E"/>
<path d="M750.053 741.207C746.863 744.537 743.343 746.837 739.498 748.102C735.64 749.382 731.808 749.597 728.003 748.75C724.198 747.902 720.74 745.99 717.635 743.015C714.38 739.895 712.185 736.392 711.053 732.507C709.92 728.622 709.878 724.682 710.928 720.69C711.978 716.697 714.1 713.035 717.29 709.705C720.373 706.487 723.773 704.3 727.488 703.145C731.19 701.977 734.913 701.837 738.658 702.725C742.39 703.597 745.848 705.56 749.028 708.605C751.823 711.282 753.77 714.142 754.875 717.187C755.99 720.217 756.465 723.232 756.295 726.227C756.128 729.225 755.478 732.025 754.348 734.627C753.218 737.205 751.785 739.397 750.053 741.207ZM746.405 736.885C747.995 735.225 748.885 733.41 749.075 731.44C749.265 729.47 748.775 727.385 747.605 725.185C746.448 722.997 744.658 720.745 742.238 718.427C739.455 715.762 736.683 713.8 733.92 712.54C731.168 711.292 728.615 710.76 726.26 710.942C723.905 711.102 721.898 712.05 720.238 713.785C717.848 716.28 717.013 719.222 717.73 722.615C718.438 725.997 720.618 729.437 724.275 732.94C726.945 735.497 729.665 737.365 732.44 738.54C735.203 739.702 737.795 740.155 740.22 739.895C742.648 739.66 744.708 738.657 746.405 736.885Z" fill="#4D7E3E"/>
<path d="M791.303 686.188L781.263 702.493L777.943 700.723L779.388 695.953C779.123 695.79 778.635 695.478 777.923 695.02C777.22 694.548 776.38 694 775.403 693.378C774.425 692.755 773.44 692.118 772.443 691.463C771.423 690.815 770.508 690.24 769.7 689.743L760.365 683.995C758.57 682.89 756.945 681.92 755.493 681.088C754.048 680.238 752.853 679.575 751.91 679.095C750.978 678.603 750.395 678.345 750.165 678.325L746.623 681.803L743.545 679.635L753.748 663.063C756.773 658.15 759.785 655.003 762.785 653.625C765.785 652.245 768.968 652.595 772.338 654.668C774.428 655.953 775.893 657.74 776.738 660.025C777.598 662.32 777.81 664.875 777.375 667.69C776.94 670.505 775.83 673.363 774.045 676.26L771.478 680.43L767.77 678.148L769.55 675.258C770.863 673.125 771.265 671.008 770.753 668.908C770.265 666.803 768.933 665.078 766.753 663.738C764.753 662.505 762.895 662.113 761.18 662.558C759.45 662.995 757.943 664.258 756.658 666.345L755.163 668.773C755.268 668.898 755.613 669.163 756.198 669.563C756.778 669.94 757.53 670.413 758.458 670.983C759.37 671.545 760.393 672.173 761.525 672.873C762.658 673.57 763.865 674.313 765.143 675.1L774.985 681.16C776.103 681.848 777.32 682.588 778.638 683.38C779.98 684.165 781.23 684.885 782.39 685.538C783.55 686.19 784.398 686.66 784.93 686.95L788.225 684.018L791.303 686.188ZM802.59 669.583C801.123 671.965 799.435 673.848 797.53 675.233C795.61 676.605 793.388 677.53 790.865 678.005C788.34 678.48 785.485 678.538 782.298 678.178L772.18 676.968L774.898 668.843L790.2 667.765C791.988 667.628 793.573 667.398 794.95 667.07C796.328 666.743 797.568 666.278 798.668 665.678C799.793 665.07 800.83 664.323 801.785 663.428L804.68 665.3C804.388 666.073 804.07 666.8 803.73 667.485C803.395 668.193 803.015 668.893 802.59 669.583Z" fill="#4D7E3E"/>
<path d="M775.938 630.482L772.493 628.965L779.65 609.51C782.453 601.89 786.418 596.592 791.54 593.62C796.665 590.645 802.398 590.325 808.738 592.655C812.84 594.162 816.123 596.522 818.588 599.73C821.068 602.942 822.555 606.657 823.048 610.867C823.563 615.07 822.98 619.457 821.3 624.03L813.885 644.19L810.278 643.112L810.823 638.177C810.535 637.907 809.39 637.347 807.383 636.497C805.37 635.665 802.953 634.73 800.13 633.692L789.845 629.91C786.878 628.817 784.358 627.937 782.285 627.267C780.208 626.612 779.018 626.315 778.72 626.37L775.938 630.482ZM782.533 616.232C782.825 616.34 783.418 616.577 784.315 616.942C785.233 617.297 786.425 617.765 787.888 618.337C789.358 618.897 791.178 619.575 793.35 620.375L803.638 624.16C804.87 624.612 806.153 625.075 807.49 625.547C808.848 626.01 810.098 626.415 811.24 626.762C812.4 627.115 813.32 627.39 814 627.585C814.578 626.565 815.118 625.547 815.62 624.535C816.138 623.53 816.57 622.555 816.915 621.615C818.388 617.61 818.35 614.162 816.798 611.275C815.248 608.385 811.975 606.022 806.98 604.185C803.69 602.975 800.755 602.317 798.18 602.217C795.598 602.132 793.36 602.487 791.465 603.282C789.573 604.077 787.99 605.197 786.723 606.645C785.433 608.102 784.433 609.797 783.72 611.725C783.483 612.372 783.255 613.09 783.04 613.877C782.848 614.652 782.678 615.437 782.533 616.232Z" fill="#4D7E3E"/>
<path d="M168.893 504.937C168.893 502.132 171.168 499.857 173.973 499.857C176.778 499.857 179.053 502.132 179.053 504.937C179.053 507.742 176.778 510.017 173.973 510.017C171.168 510.017 168.893 507.742 168.893 504.937Z" fill="#4D7E3E"/>
<path d="M821.245 504.937C821.245 502.132 823.52 499.857 826.325 499.857C829.13 499.857 831.405 502.132 831.405 504.937C831.405 507.742 829.13 510.017 826.325 510.017C823.52 510.017 821.245 507.742 821.245 504.937Z" fill="#4D7E3E"/>
</g>
</g>
</g>
</g>
</g>
</g>
</g>
<defs>
<clipPath id="clip0_508_236">
<rect width="1000" height="1000" fill="white"/>
</clipPath>
<clipPath id="clip1_508_236">
<rect width="700" height="700" fill="white" transform="translate(149.65 149.65)"/>
</clipPath>
<clipPath id="clip2_508_236">
<rect width="699.3" height="699.3" fill="white" transform="translate(150 150)"/>
</clipPath>
<clipPath id="clip3_508_236">
<rect width="699.3" height="699.3" fill="white" transform="translate(150 150)"/>
</clipPath>
<clipPath id="clip4_508_236">
<rect width="699.3" height="699.3" fill="white" transform="translate(150 150)"/>
</clipPath>
<clipPath id="clip5_508_236">
<rect width="699.3" height="699.3" fill="white" transform="translate(150 150)"/>
</clipPath>
<clipPath id="clip6_508_236">
<rect width="699.3" height="699.3" fill="white" transform="translate(150 150)"/>
</clipPath>
<clipPath id="clip7_508_236">
<rect width="288.447" height="288.447" fill="white" transform="translate(355.427 355.427)"/>
</clipPath>
</defs>
</svg>
