<svg width="422" height="422" viewBox="0 0 422 422" fill="none" xmlns="http://www.w3.org/2000/svg">
<g clip-path="url(#clip0_1703_691)">
<g clip-path="url(#clip1_1703_691)">
<g clip-path="url(#clip2_1703_691)">
<g clip-path="url(#clip3_1703_691)">
<g clip-path="url(#clip4_1703_691)">
<g clip-path="url(#clip5_1703_691)">
<path d="M211 334.586C279.255 334.586 334.586 279.254 334.586 211C334.586 142.745 279.255 87.4141 211 87.4141C142.746 87.4141 87.4143 142.745 87.4143 211C87.4143 279.254 142.746 334.586 211 334.586Z" fill="#D23D2D"/>
<g clip-path="url(#clip6_1703_691)">
<path d="M207.377 124.054H124.054V142.167H207.377V124.054Z" fill="#F8EECB"/>
<path d="M207.377 156.658H124.054V174.772H207.377V156.658Z" fill="#F8EECB"/>
<path d="M207.377 189.263H124.054V207.377H207.377V189.263Z" fill="#F8EECB"/>
<path d="M297.946 214.622H214.623V232.736H297.946V214.622Z" fill="#F8EECB"/>
<path d="M297.946 247.227H214.623V265.341H297.946V247.227Z" fill="#F8EECB"/>
<path d="M297.946 279.832H214.623V297.946H297.946V279.832Z" fill="#F8EECB"/>
<path d="M207.377 214.622H189.264V297.946H207.377V214.622Z" fill="#F8EECB"/>
<path d="M174.773 214.622H156.659V297.946H174.773V214.622Z" fill="#F8EECB"/>
<path d="M142.168 214.622H124.054V297.946H142.168V214.622Z" fill="#F8EECB"/>
<path d="M297.946 124.054H279.832V207.377H297.946V124.054Z" fill="#F8EECB"/>
<path d="M265.341 124.054H247.228V207.377H265.341V124.054Z" fill="#F8EECB"/>
<path d="M232.737 124.054H214.623V207.377H232.737V124.054Z" fill="#F8EECB"/>
</g>
<path d="M39.7328 138.375L35.9107 149.616L33.7796 149.038L33.9846 146.205C33.8338 146.098 33.4706 145.92 32.8964 145.67C32.3086 145.426 31.5565 145.132 30.6387 144.787C29.7284 144.455 28.7307 144.105 27.647 143.735L21.5386 141.658C20.3946 141.269 19.3517 140.925 18.4082 140.625C17.4708 140.339 16.6961 140.114 16.0812 139.95C15.4633 139.795 15.091 139.724 14.9659 139.735L13.4151 142.111L11.3593 141.264L15.1829 130.024L17.3291 130.606L17.0985 133.465C17.1874 133.561 17.5552 133.741 18.2018 134.005C18.8393 134.265 19.623 134.582 20.5529 134.953C21.4858 135.314 22.4549 135.665 23.4602 136.008L29.5686 138.086C30.5151 138.408 31.4676 138.71 32.4277 138.993C33.3907 139.266 34.2001 139.492 34.8542 139.67C35.5083 139.848 35.9288 139.937 36.1172 139.934L37.6936 137.533L39.7328 138.375ZM34.6115 153.43L30.8135 164.597L28.6885 164.006L28.904 161.142C28.7864 161.037 28.4428 160.865 27.8746 160.627C27.2958 160.386 26.5483 160.093 25.632 159.748C24.7051 159.4 23.6847 159.037 22.571 158.658L16.4625 156.58C15.29 156.181 14.2334 155.839 13.2975 155.552C12.351 155.263 11.5703 155.037 10.9554 154.871C10.3405 154.705 9.9833 154.639 9.88383 154.672L8.32394 157.079L6.26367 156.245L10.0617 145.081L12.2078 145.661L11.9923 148.476C12.0812 148.573 12.4188 148.743 13.0066 148.986C13.5914 149.239 14.345 149.53 15.2689 149.854C16.2018 150.182 17.2402 150.541 18.3841 150.93L24.4926 153.008C25.5777 153.377 26.58 153.712 27.4993 154.015C28.4292 154.321 29.2039 154.55 29.8218 154.705C30.4262 154.866 30.8226 154.946 31.011 154.945L32.5724 152.588L34.6115 153.43ZM22.4157 153.341L19.2357 152.259C19.5522 151.619 19.8732 150.869 20.1987 150.013C20.5137 149.153 20.8935 148.066 21.3396 146.755C21.7827 145.453 22.1414 144.366 22.4172 143.49C22.6825 142.613 22.886 141.824 23.0246 141.123L26.2032 142.205C25.9726 142.787 25.6907 143.5 25.3607 144.344C25.0261 145.198 24.6222 146.319 24.1489 147.71C23.6727 149.111 23.3064 150.252 23.0517 151.132C22.8 152.003 22.5875 152.74 22.4157 153.341Z" fill="#D23D2D"/>
<path d="M45.2836 127.911L41.1827 135.39L39.1917 134.44L39.665 132.081L24.9236 113.773L24.8814 109.527L50.646 112.056L52.3792 110.388L54.2436 111.569L48.5511 121.952L46.5586 121.004L47.2881 118.178L41.154 117.54L39.5926 117.236L28.3298 116.104L29.2612 115.153L36.2151 123.135L37.1842 124.13L41.4223 128.876L43.4117 126.743L45.2836 127.911ZM37.9061 125.736L35.2762 124.295C35.5897 123.791 35.9408 123.222 36.3342 122.594C36.7215 121.974 37.2129 121.121 37.8082 120.035C38.3734 119.002 38.827 118.134 39.1646 117.43C39.5037 116.725 39.7946 116.119 40.0387 115.61L42.6265 117.03C42.3567 117.522 42.0221 118.112 41.6228 118.796C41.2098 119.485 40.7275 120.33 40.1774 121.334C39.5972 122.393 39.1375 123.263 38.7999 123.946C38.4472 124.632 38.1503 125.228 37.9061 125.736Z" fill="#D23D2D"/>
<path d="M65.1944 97.503C63.4718 99.7908 61.5517 101.5 59.4356 102.632C57.3106 103.756 55.1101 104.229 52.8313 104.052C50.5586 103.866 48.3295 102.948 46.1411 101.301C44.4441 100.023 43.1389 98.57 42.2256 96.9453C41.3122 95.3191 40.8043 93.5874 40.7019 91.7487C40.5843 89.913 40.839 88.0517 41.466 86.1648C42.1005 84.2838 43.0922 82.4481 44.4396 80.6592C45.2534 79.577 46.1803 78.5808 47.2187 77.669C48.2496 76.7511 49.2263 76.0518 50.1471 75.571L55.7266 79.3826L54.2315 81.678L49.5955 80.1226C49.0243 80.3969 48.4727 80.7571 47.9407 81.2032C47.4177 81.6569 46.9414 82.1663 46.5149 82.7315C45.487 84.0954 44.9399 85.4896 44.8736 86.9123C44.7983 88.329 45.1615 89.7231 45.9648 91.0976C46.7696 92.4857 47.9708 93.7819 49.5684 94.9846C51.3815 96.35 53.1674 97.2257 54.9248 97.61C56.6881 97.9868 58.3023 97.937 59.7672 97.4638C61.2306 96.9755 62.4318 96.1074 63.3723 94.8595C63.8666 94.2023 64.263 93.4955 64.5569 92.7404C64.8523 91.9853 64.9849 91.2634 64.9548 90.5762L62.6474 86.8626L64.682 84.6802L68.6036 89.2363C68.5267 90.326 68.1982 91.6357 67.6179 93.1684C67.0301 94.6937 66.2223 96.139 65.1944 97.503Z" fill="#D23D2D"/>
<path d="M94.112 67.1372L85.5017 75.3105L83.883 73.8109L85.3826 71.3964C85.2982 71.2321 85.0601 70.9051 84.6683 70.4168C84.2613 69.9269 83.7323 69.3166 83.0797 68.5841C82.4286 67.8667 81.7082 67.0935 80.92 66.2631L76.4784 61.5834C75.6465 60.7078 74.8824 59.918 74.1861 59.2142C73.4898 58.5254 72.908 57.9648 72.4408 57.5337C71.9661 57.1087 71.6692 56.8721 71.5531 56.8254L69.0739 58.2089L67.6496 56.5028L76.2599 48.3296L77.8891 49.8413L76.3564 52.2662C76.3895 52.3928 76.6322 52.7229 77.0828 53.2564C77.5259 53.7839 78.073 54.4275 78.7226 55.1886C79.3812 55.9422 80.076 56.7048 80.807 57.4749L85.2485 62.1546C85.9373 62.8795 86.6396 63.5909 87.3585 64.2872C88.085 64.976 88.6953 65.5517 89.1912 66.0144C89.687 66.4771 90.0186 66.7499 90.1874 66.8358L92.6983 65.4432L94.112 67.1372ZM82.5779 78.0851L74.0233 86.2056L72.4167 84.6939L73.9389 82.2584C73.8831 82.1092 73.6601 81.7987 73.2667 81.324C72.8673 80.8417 72.3413 80.2358 71.6902 79.5033C71.0316 78.7648 70.2977 77.9676 69.4868 77.1145L65.0453 72.4348C64.1922 71.5366 63.4175 70.7423 62.7212 70.0535C62.0174 69.3572 61.4311 68.7936 60.9639 68.361C60.4967 67.9285 60.2119 67.7039 60.1094 67.6873L57.609 69.092L56.1712 67.3965L64.7257 59.2775L66.355 60.7891L64.8569 63.181C64.89 63.3076 65.1101 63.615 65.517 64.1049C65.9164 64.6022 66.4499 65.2081 67.1161 65.9255C67.7898 66.6504 68.5418 67.4507 69.3738 68.3264L73.8153 73.006C74.6036 73.8365 75.336 74.6006 76.0097 75.2954C76.691 75.9977 77.2697 76.5629 77.7444 76.9864C78.2041 77.4114 78.5191 77.6661 78.6864 77.752L81.1642 76.3911L82.5779 78.0851ZM71.8214 72.3354L69.5094 69.8998C70.0882 69.4808 70.7197 68.9669 71.4069 68.358C72.0866 67.7416 72.9276 66.9579 73.9314 66.0039C74.9291 65.0574 75.752 64.2616 76.4031 63.615C77.0466 62.9609 77.5922 62.3566 78.0414 61.8019L80.3533 64.2375C79.8786 64.6444 79.2983 65.1448 78.6126 65.7386C77.9193 66.3399 77.0406 67.1448 75.9751 68.1561C74.902 69.1734 74.0474 70.0144 73.4129 70.6745C72.7844 71.3286 72.2539 71.8817 71.8214 72.3354Z" fill="#D23D2D"/>
<path d="M108.134 57.0061L98.4888 63.954L97.0992 62.2404L98.9349 60.0324C98.9002 59.8772 98.7209 59.5381 98.3953 59.0151C98.0637 58.4831 97.6252 57.8124 97.0781 57C96.525 56.1786 95.9055 55.2909 95.2167 54.3354L91.4459 49.1011C90.7209 48.0958 90.0608 47.2051 89.464 46.4274C88.8611 45.6422 88.3562 45.0047 87.9508 44.5149C87.5454 44.0235 87.2937 43.7628 87.1942 43.7312L84.5266 44.7862L83.3314 42.9128L92.9771 35.9648L94.3878 37.683L92.5054 39.906C92.522 40.0356 92.6983 40.3702 93.0359 40.9098C93.3645 41.4554 93.8121 42.1291 94.3743 42.9294C94.944 43.7387 95.5815 44.6324 96.2883 45.6121L100.059 50.8479C100.728 51.7778 101.351 52.6323 101.925 53.4115C102.505 54.1998 103.003 54.8358 103.417 55.3211C103.817 55.8034 104.092 56.0988 104.246 56.2058L106.96 55.1372L108.134 57.0061Z" fill="#D23D2D"/>
<path d="M137.343 41.1102L125.763 47.2834L124.576 45.4206L126.389 43.9406C126.082 43.7386 125.774 43.5608 125.467 43.4055C125.174 43.2548 124.719 43.0423 124.101 42.771L116.154 39.484L114.638 40.2918L113.645 38.4305L115.103 37.2474L118.737 24.7049L116.015 25.6077L115.082 23.5926L123.932 18.8738L125.137 20.8346L122.764 22.5949L118.29 34.857L117.262 33.1931L129.574 38.1893C130.576 38.5631 131.373 38.8645 131.965 39.0921C132.555 39.3332 133.013 39.5081 133.341 39.6151C133.67 39.7236 133.934 39.8065 134.131 39.8668L136.285 39.1253L137.343 41.1102ZM122.758 48.8855L112.903 54.1394L111.743 52.2615L113.899 50.2977C113.862 50.0942 113.565 49.4371 113.01 48.3294C112.454 47.2216 111.741 45.8486 110.868 44.2134L107.833 38.5194C107.25 37.4252 106.715 36.4546 106.226 35.6061C105.734 34.747 105.322 34.0522 104.991 33.5202C104.665 32.9972 104.448 32.7003 104.339 32.6295L101.554 33.3167L100.621 31.3002L111.111 25.7087L112.266 27.6077L110.101 29.5579C110.124 29.7116 110.266 30.0779 110.528 30.6581C110.776 31.2339 111.126 31.9558 111.577 32.8239C112.014 33.689 112.517 34.6536 113.085 35.7206L116.121 41.4131C116.993 43.0483 117.744 44.4018 118.372 45.4703C118.992 46.5449 119.363 47.1613 119.482 47.3211L121.846 46.875L122.758 48.8855Z" fill="#D23D2D"/>
<path d="M153.094 36.2182C150.532 37.0954 148.077 37.3486 145.726 36.9763C143.364 36.607 141.304 35.6847 139.542 34.2077C137.774 32.7442 136.481 30.8151 135.659 28.4202C134.802 25.9184 134.606 23.4964 135.072 21.1573C135.527 18.8213 136.568 16.7535 138.196 14.9524C139.824 13.1499 141.92 11.8115 144.481 10.9329C146.954 10.0859 149.32 9.85828 151.579 10.2516C153.828 10.648 155.81 11.5764 157.521 13.0383C159.245 14.5063 160.527 16.4671 161.368 18.9192C162.104 21.0669 162.349 23.085 162.105 24.9749C161.861 26.8634 161.293 28.5664 160.404 30.0811C159.504 31.6003 158.408 32.8844 157.117 33.9334C155.825 34.9808 154.484 35.7435 153.094 36.2182ZM152.36 32.9688C153.641 32.5302 154.594 31.8234 155.218 30.8513C155.852 29.8746 156.161 28.6569 156.146 27.198C156.131 25.739 155.804 24.0782 155.166 22.2168C154.431 20.0692 153.51 18.2983 152.405 16.9042C151.307 15.4965 150.119 14.5229 148.844 13.9788C147.569 13.4362 146.261 13.394 144.921 13.8537C142.999 14.5123 141.763 15.822 141.213 17.7828C140.677 19.7497 140.889 22.1385 141.851 24.9448C142.559 27.0141 143.482 28.7232 144.615 30.0751C145.75 31.4255 146.978 32.3644 148.304 32.8889C149.64 33.4119 150.992 33.4375 152.36 32.9688Z" fill="#D23D2D"/>
<path d="M179.829 4.80923L179.751 2.58771L191.9 1.4679C196.649 1.02932 200.459 1.79796 203.329 3.77232C206.207 5.73462 207.83 8.69616 208.195 12.6569C208.43 15.2085 208.008 17.5476 206.929 19.6772C205.849 21.7947 204.255 23.5219 202.15 24.8542C200.035 26.1896 197.556 26.9883 194.715 27.2506L182.131 28.4111L181.805 26.2287L184.554 25.2536C184.619 25.0487 184.623 24.3056 184.569 23.0246C184.513 21.7435 184.405 20.2213 184.242 18.4579L183.65 12.0345C183.48 10.1882 183.305 8.63135 183.124 7.36083C182.944 6.09031 182.806 5.38798 182.709 5.24932L179.829 4.80923ZM189.045 4.71278C189.062 4.88911 189.091 5.26288 189.133 5.83409C189.164 6.40681 189.217 7.15435 189.293 8.07823C189.357 9.00361 189.451 10.14 189.576 11.4874L190.168 17.9123C190.238 18.6689 190.322 19.4662 190.42 20.3042C190.507 21.1436 190.61 21.9078 190.726 22.598C190.833 23.2989 190.92 23.8565 190.99 24.268C191.674 24.3192 192.346 24.3524 193.006 24.3644C193.677 24.3765 194.302 24.3554 194.883 24.3011C197.381 24.0705 199.204 23.1813 200.347 21.632C201.49 20.0736 201.918 17.7435 201.633 14.6433C201.443 12.5906 201.05 10.8634 200.45 9.4648C199.84 8.06768 199.086 6.97048 198.185 6.17621C197.283 5.36989 196.286 4.80923 195.19 4.49123C194.094 4.18377 192.946 4.08581 191.743 4.19733C191.339 4.23501 190.905 4.2953 190.443 4.3797C189.969 4.46561 189.504 4.57563 189.045 4.71278Z" fill="#D23D2D"/>
<path d="M227.158 26.6492L215.282 26.1172L215.255 23.9108L218.065 23.3169C218.135 23.1738 218.204 22.797 218.272 22.1851C218.341 21.5626 218.414 20.7638 218.489 19.7872C218.564 18.8 218.629 17.7194 218.682 16.5423L218.971 10.0978C219.027 8.86043 219.06 7.75117 219.074 6.77153C219.087 5.78134 219.087 4.96899 219.074 4.33147C219.06 3.69545 219.024 3.33374 218.965 3.24783L216.219 2.42192L216.444 0.210938L228.32 0.742959L228.361 2.96599L225.505 3.54172C225.437 3.65325 225.369 4.02552 225.298 4.65852C225.218 5.29152 225.151 6.09633 225.096 7.07296C225.042 8.06014 224.988 9.15884 224.932 10.3646L224.644 16.8106C224.593 17.9545 224.551 19.011 224.518 19.9786C224.484 20.9568 224.48 21.7646 224.502 22.4021C224.516 23.0276 224.551 23.4315 224.603 23.6108L227.396 24.4548L227.158 26.6492Z" fill="#D23D2D"/>
<path d="M247.197 30.2407C244.374 29.7539 241.976 28.8285 240.003 27.4645C238.032 26.0885 236.603 24.3477 235.72 22.2393C234.846 20.1338 234.642 17.7314 235.107 15.0321C235.467 12.9387 236.162 11.1135 237.191 9.55816C238.22 8.00278 239.529 6.75939 241.116 5.82798C242.694 4.88451 244.466 4.26055 246.431 3.9546C248.395 3.6592 250.48 3.7014 252.688 4.0812C254.021 4.31179 255.333 4.67953 256.618 5.18744C257.907 5.6848 258.974 6.2334 259.822 6.83324L258.984 13.5355L256.258 13.2567L255.522 8.42177C255.018 8.03896 254.445 7.71341 253.804 7.44363C253.162 7.18441 252.492 6.99601 251.794 6.87544C250.11 6.58607 248.621 6.73528 247.325 7.32608C246.03 7.90633 244.956 8.86788 244.101 10.2107C243.235 11.5627 242.632 13.2235 242.291 15.1934C241.905 17.43 241.943 19.4194 242.406 21.1571C242.878 22.8979 243.658 24.3116 244.749 25.3967C245.853 26.4743 247.174 27.1465 248.715 27.4118C249.526 27.5519 250.335 27.5806 251.141 27.4977C251.948 27.4148 252.65 27.2023 253.248 26.8617L255.495 23.1119L258.366 23.9242L256.107 29.4946C255.103 29.9242 253.788 30.2316 252.16 30.4155C250.534 30.5903 248.88 30.5316 247.197 30.2422V30.2407Z" fill="#D23D2D"/>
<path d="M292.185 15.8807L290.609 23.5988L287.947 22.9326L287.932 17.5416C287.673 17.3969 287.394 17.2628 287.096 17.1392C286.784 17.0216 286.451 16.9011 286.096 16.779L284.678 16.2922C284.422 16.2048 284.137 16.1068 283.821 15.9983C283.495 15.8868 283.239 15.831 283.052 15.834C282.995 16.0013 282.814 16.5122 282.509 17.3653C282.191 18.2258 281.824 19.2492 281.405 20.4368C280.972 21.632 280.544 22.8452 280.122 24.0766L278.793 27.9484C278.255 29.5143 277.786 30.928 277.387 32.188C276.987 33.4495 276.692 34.405 276.5 35.0561L279.932 36.8948L279.054 39.0214L266.067 34.5618L266.694 32.3493L270.532 33.0064C270.772 32.3734 271.121 31.4359 271.58 30.1941C272.039 28.9537 272.537 27.5505 273.075 25.9846L274.404 22.1128C274.828 20.8814 275.239 19.6637 275.643 18.4594C276.032 17.2613 276.375 16.2289 276.672 15.3608C276.966 14.5032 277.127 13.9862 277.156 13.8084C277.008 13.6924 276.778 13.5793 276.463 13.4723C276.137 13.3608 275.852 13.2628 275.605 13.1769L274.143 12.675C273.809 12.5605 273.467 12.449 273.118 12.3404C272.757 12.238 272.43 12.1641 272.137 12.1189L268.877 16.467L266.363 15.3231L269.801 8.1958C270.077 8.29075 270.466 8.43996 270.968 8.64493C271.48 8.85442 272.012 9.06391 272.568 9.27793C273.129 9.504 273.682 9.72103 274.228 9.92902C274.766 10.1249 275.227 10.2892 275.611 10.4219L286.234 14.0691C286.618 14.2018 287.078 14.354 287.613 14.5258C288.151 14.6886 288.716 14.8559 289.308 15.0247C289.896 15.204 290.446 15.3653 290.958 15.51C291.471 15.6531 291.879 15.7767 292.185 15.8807Z" fill="#D23D2D"/>
<path d="M299.53 48.1005L288.832 42.9129L289.68 40.8767L292.497 41.4434C292.618 41.3394 292.83 41.0199 293.135 40.4849C293.445 39.9408 293.828 39.2355 294.283 38.3689C294.743 37.4917 295.23 36.5241 295.742 35.4661L298.558 29.6606C299.099 28.5453 299.569 27.54 299.967 26.6463C300.371 25.742 300.692 24.996 300.933 24.4052C301.172 23.8159 301.282 23.4692 301.263 23.3668L299.067 21.522L300.148 19.5808L310.844 24.7669L310.003 26.8241L307.151 26.2228C307.046 26.2981 306.835 26.6131 306.52 27.1678C306.196 27.7164 305.816 28.4292 305.379 29.3049C304.937 30.1911 304.453 31.1768 303.927 32.2634L301.112 38.0689C300.612 39.0998 300.155 40.0538 299.742 40.9295C299.325 41.8142 299.001 42.5542 298.77 43.1495C298.535 43.7298 298.407 44.1141 298.386 44.2995L300.616 46.1804L299.53 48.1005Z" fill="#D23D2D"/>
<path d="M315.864 59.0406C313.606 57.5456 311.908 55.7536 310.768 53.6647C309.62 51.5682 309.094 49.3723 309.19 47.0754C309.272 44.7816 310.012 42.5796 311.409 40.4696C312.869 38.2632 314.667 36.6309 316.803 35.5729C318.931 34.5089 321.205 34.0718 323.627 34.2632C326.048 34.4546 328.388 35.2971 330.646 36.7907C332.825 38.233 334.449 39.9693 335.516 41.9994C336.574 44.0235 337.045 46.1591 336.932 48.4077C336.821 50.67 336.051 52.8825 334.619 55.0437C333.367 56.9367 331.917 58.3624 330.271 59.3225C328.625 60.281 326.929 60.8703 325.186 61.0904C323.433 61.3044 321.748 61.2185 320.129 60.8341C318.511 60.4498 317.089 59.8515 315.864 59.0406ZM317.991 56.4785C319.119 57.226 320.26 57.5501 321.413 57.4506C322.574 57.3572 323.728 56.8598 324.874 55.957C326.021 55.0542 327.137 53.7837 328.224 52.1409C329.477 50.248 330.319 48.4379 330.749 46.7122C331.193 44.9835 331.241 43.4477 330.893 42.1064C330.545 40.765 329.781 39.7025 328.599 38.9203C326.905 37.799 325.115 37.6196 323.225 38.3807C321.338 39.1554 319.576 40.7801 317.938 43.2548C316.731 45.0785 315.938 46.8524 315.56 48.575C315.181 50.2977 315.187 51.844 315.581 53.2155C315.982 54.5915 316.785 55.6797 317.991 56.4785Z" fill="#D23D2D"/>
<path d="M353.527 79.663L352.216 78.4121L356.884 73.5169C357.876 72.477 358.766 71.5275 359.556 70.6684C360.353 69.8169 360.988 69.113 361.461 68.5569C361.934 67.9857 362.201 67.63 362.264 67.4883L360.51 64.8448L362.132 63.3256L368.938 69.8153L367.509 71.5169L364.977 70.0746C364.854 70.159 364.53 70.4468 364.004 70.9382C363.478 71.4295 362.793 72.0941 361.952 72.9321C361.117 73.7626 360.204 74.697 359.212 75.7369L353.423 81.8092C352.468 82.8114 351.627 83.6931 350.902 84.4542C350.183 85.2078 349.469 85.9584 348.756 86.7044L346.812 84.8506L348.132 57.7266L349.827 59.3437L343.758 65.7084C342.658 66.8613 341.696 67.8862 340.871 68.783C340.052 69.6857 339.404 70.4272 338.923 71.006C338.429 71.5847 338.144 71.9751 338.067 72.1755L339.776 74.798L338.167 76.3051L331.258 69.7189L332.688 68.0384L335.196 69.4371C335.371 69.33 335.746 69.012 336.322 68.483C336.892 67.9465 337.618 67.2366 338.503 66.3534C339.395 65.4627 340.348 64.4861 341.362 63.4236L345.415 59.1719C345.96 58.5992 346.492 58.0039 347.008 57.389C347.523 56.7876 347.971 56.2571 348.35 55.7989C348.723 55.3483 348.959 55.0484 349.059 54.8976L347.531 52.4696L349.152 50.9504L354.206 55.7688L353.527 79.663Z" fill="#D23D2D"/>
<path d="M358.105 97.8903L353.033 91.0328L354.73 89.6221L356.673 91.0419L379.476 85.3313L383.348 87.072L370.252 109.405L371.041 111.678L369.185 112.874L362.145 103.354L363.842 101.943L366.1 103.789L369.252 98.4871L370.181 97.197L375.931 87.4473L376.404 88.6907L366.242 91.6583L364.934 92.1225L358.846 93.9808L359.949 96.6816L358.105 97.8903ZM363.17 92.1044L365.583 90.3199C365.912 90.8158 366.278 91.3734 366.683 91.9929C367.083 92.6033 367.651 93.4081 368.389 94.4043C369.089 95.3508 369.689 96.1255 370.184 96.7283C370.682 97.3312 371.111 97.8496 371.472 98.2837L369.098 100.04C368.763 99.5874 368.37 99.0373 367.915 98.3877C367.463 97.7245 366.897 96.9318 366.216 96.0109C365.497 95.0403 364.9 94.2581 364.423 93.6643C363.948 93.0569 363.529 92.5369 363.17 92.1044Z" fill="#D23D2D"/>
<path d="M376.224 125.887L370.962 115.929L372.843 114.776L374.828 116.926C374.985 116.843 375.289 116.693 375.74 116.479C376.196 116.25 376.725 115.982 377.328 115.675C377.937 115.376 378.557 115.067 379.188 114.746C379.815 114.439 380.377 114.154 380.873 113.89L386.578 110.876C387.673 110.297 388.647 109.765 389.499 109.281C390.359 108.791 391.055 108.382 391.589 108.053C392.113 107.729 392.41 107.513 392.483 107.403L391.783 104.576L393.803 103.651L399.152 113.774C400.733 116.767 401.429 119.231 401.239 121.17C401.036 123.103 399.907 124.612 397.853 125.697C396.573 126.374 395.229 126.583 393.821 126.326C392.404 126.072 391.049 125.417 389.759 124.354C388.454 123.289 387.334 121.872 386.401 120.104L385.058 117.563L387.324 116.366L388.257 118.134C388.942 119.432 389.895 120.267 391.116 120.635C392.33 121.017 393.601 120.859 394.927 120.158C396.153 119.512 396.905 118.684 397.185 117.676C397.479 116.672 397.29 115.536 396.618 114.264L395.832 112.772C395.734 112.788 395.498 112.889 395.125 113.075C394.761 113.256 394.297 113.494 393.737 113.791C393.174 114.088 392.549 114.418 391.857 114.784C391.167 115.149 390.434 115.536 389.661 115.943L383.639 119.124C382.967 119.48 382.228 119.877 381.423 120.314C380.618 120.751 379.877 121.165 379.2 121.558C378.523 121.95 378.037 122.244 377.738 122.437L378.23 124.969L376.224 125.887ZM381.263 136.564C380.49 135.1 380.038 133.677 379.91 132.297C379.782 130.916 379.973 129.519 380.486 128.106C381.004 126.678 381.833 125.215 382.974 123.717L386.605 118.954L389.905 122.758L385.878 130.821C385.416 131.772 385.057 132.645 384.805 133.438C384.567 134.235 384.433 135.007 384.403 135.753C384.382 136.494 384.453 137.24 384.614 137.991L382.796 138.898C382.504 138.523 382.228 138.145 381.967 137.765C381.717 137.379 381.482 136.98 381.263 136.564Z" fill="#D23D2D"/>
<path d="M413.69 154.562L412.271 152.68L395.061 148.883L399.86 149.178L395.696 150.663C395.206 150.838 394.689 151.034 394.146 151.249C393.61 151.451 393.119 151.638 392.671 151.808C392.217 151.992 391.83 152.164 391.512 152.322C391.192 152.481 390.998 152.588 390.93 152.645L391.337 155.784L389.176 156.422L385.036 144.812L387.107 143.925L388.778 146.612C388.867 146.613 389.084 146.57 389.428 146.481C389.771 146.392 390.178 146.274 390.645 146.129C391.107 145.998 391.607 145.836 392.148 145.643C392.697 145.447 393.217 145.261 393.708 145.087L397.871 143.602L394.201 146.47L405.296 133.124L405.203 130.77L407.334 130.142L411.254 141.133L409.207 141.997L407.611 139.614L400.388 148.145L400.03 147.144L411.028 149.192L410.65 146.042L412.782 145.415L415.736 153.698L413.69 154.562Z" fill="#D23D2D"/>
<path d="M26.791 289.522L18.366 289.989C18.2002 289.212 17.9907 288.386 17.7391 287.515C17.4874 286.643 17.2492 285.812 17.0232 285.02C16.7941 284.218 16.6057 283.59 16.4565 283.135L12.1943 270.081L14.3028 269.245L15.8883 271.785C16.0556 271.795 16.467 271.711 17.1196 271.53C17.7722 271.349 18.5831 271.112 19.5506 270.818C20.5303 270.531 21.5506 270.214 22.6086 269.869L28.8904 267.818C30.0087 267.453 31.0441 267.099 31.9936 266.755C32.9476 266.422 33.7359 266.137 34.3613 265.901C34.9853 265.664 35.347 265.497 35.445 265.397L35.2716 262.398L37.4676 261.828L41.5323 274.273L39.3334 275.139L37.5263 271.768C37.4269 271.768 37.0697 271.846 36.4532 272.005C35.8338 272.152 35.0395 272.372 34.072 272.666C33.1014 272.95 32.0132 273.289 30.806 273.684L24.5242 275.735C22.8603 276.277 21.525 276.731 20.5137 277.093C19.5009 277.445 18.8106 277.699 18.4444 277.851C18.5167 278.375 18.6283 278.903 18.7805 279.435C18.9252 279.979 19.1196 280.622 19.3622 281.364L19.8958 282.998C20.0932 283.602 20.2982 284.148 20.5122 284.637C20.7368 285.123 20.9297 285.515 21.094 285.812L26.5709 286.684L26.791 289.522Z" fill="#D23D2D"/>
<path d="M42.7019 322.269L35.2927 323.977C34.931 323.201 34.4955 322.277 33.9845 321.202C33.4691 320.12 32.9823 319.157 32.5256 318.316L25.0924 304.612L27.0246 303.421L29.0336 305.62C29.2009 305.6 29.5731 305.457 30.1519 305.19C30.7351 304.933 31.4782 304.577 32.3809 304.123C33.2792 303.661 34.2588 303.141 35.3214 302.565L41.1299 299.415C42.2467 298.809 43.2444 298.256 44.1216 297.757C44.9942 297.248 45.6981 296.82 46.2316 296.47C46.7696 296.131 47.0801 295.903 47.16 295.789L46.414 292.906L48.4652 291.937L55.1147 304.199C55.4026 304.729 55.7567 305.373 56.1787 306.128C56.6037 306.868 57.0333 307.596 57.4673 308.307C57.9014 309.02 58.2676 309.62 58.5691 310.11L53.2594 314.375L51.692 312.239L54.3973 308.871C54.2903 308.479 54.1773 308.137 54.0552 307.847C53.9286 307.549 53.7809 307.243 53.6121 306.933L51.9663 303.899C51.6935 303.395 51.4207 302.915 51.1494 302.458C50.8917 302.006 50.6566 301.647 50.4425 301.383C50.2315 301.498 49.906 301.662 49.4674 301.878C49.0409 302.096 48.4938 302.377 47.8246 302.716C47.1509 303.068 46.3657 303.489 45.469 303.974L37.1058 308.511C36.2543 308.972 35.4977 309.389 34.8331 309.76C34.1835 310.135 33.6424 310.447 33.2084 310.694C32.7788 310.951 32.4458 311.144 32.2061 311.273C32.3825 311.795 32.604 312.325 32.8753 312.866C33.136 313.412 33.4827 314.084 33.9137 314.88L35.0606 316.994C35.4329 317.682 35.7132 318.186 35.9001 318.51C36.0976 318.83 36.2513 319.073 36.3658 319.237C36.4879 319.397 36.6115 319.559 36.7381 319.727L41.9121 319.764L42.7019 322.269ZM41.9347 316.66L40.7426 314.464L43.1902 312.621C43.1178 312.423 42.9807 312.125 42.7772 311.725C42.5768 311.312 42.3326 310.841 42.0447 310.31L40.9053 308.209C40.6567 307.751 40.408 307.324 40.1563 306.927C39.9061 306.53 39.7087 306.233 39.567 306.037L42.3959 304.503C42.4833 304.729 42.6235 305.055 42.8209 305.481C43.0169 305.908 43.2384 306.351 43.4871 306.809L44.6265 308.91C44.9143 309.44 45.1766 309.903 45.4132 310.295C45.6363 310.684 45.7975 310.97 45.8955 311.153L48.7892 310.099L49.9814 312.297L41.9347 316.66Z" fill="#D23D2D"/>
<path d="M49.4041 343.023L43.8126 336.295L45.4644 334.739L47.5247 336.094L70.5493 328.922L74.6096 330.483L62.4922 354.103L63.4462 356.376L61.615 357.716L53.8562 348.381L55.508 346.825L57.918 348.601L60.8448 342.98L61.7235 341.62L67.0452 331.305L67.6089 332.544L57.3694 336.159L56.0642 336.715L49.9301 338.99L51.2247 341.671L49.4041 343.023ZM54.2481 336.803L56.6143 334.836C56.976 335.32 57.3844 335.868 57.8381 336.48C58.2767 337.091 58.9036 337.883 59.716 338.86C60.4876 339.788 61.1508 340.545 61.7024 341.128C62.2465 341.719 62.7137 342.224 63.104 342.644L60.774 344.583C60.4078 344.142 59.9737 343.595 59.4718 342.943C58.976 342.298 58.3535 341.523 57.6015 340.617C56.8087 339.665 56.1516 338.898 55.6286 338.317C55.0981 337.728 54.6384 337.225 54.2481 336.803Z" fill="#D23D2D"/>
<path d="M80.4317 374.653L71.5124 367.322L72.8417 365.484L75.5726 366.737C75.6917 366.593 75.9178 366.326 76.2493 365.939C76.59 365.557 76.9848 365.101 77.4355 364.569C77.8861 364.037 78.3488 363.499 78.8205 362.956C79.2908 362.4 79.7082 361.9 80.073 361.458L84.2688 356.353C85.0752 355.372 85.788 354.481 86.4045 353.68C87.0299 352.885 87.5243 352.227 87.886 351.704C88.2567 351.187 88.4587 350.86 88.4904 350.723L86.7014 348.323L88.2477 346.662L97.3117 354.111C99.9989 356.319 101.631 358.376 102.21 360.281C102.789 362.184 102.32 364.058 100.807 365.9C99.8678 367.042 98.6817 367.773 97.2469 368.091C95.806 368.416 94.2627 368.335 92.6169 367.844C90.9711 367.354 89.3555 366.457 87.7714 365.155L85.4896 363.28L87.1565 361.253L88.7375 362.552C89.9041 363.511 91.1354 363.924 92.4315 363.79C93.7292 363.67 94.8671 363.015 95.8467 361.824C96.7465 360.73 97.1323 359.652 97.0072 358.591C96.8882 357.523 96.2567 356.519 95.1143 355.58L93.7865 354.489C93.7021 354.542 93.5167 354.726 93.2303 355.044C92.9575 355.359 92.6139 355.77 92.1964 356.276C91.7865 356.775 91.3268 357.334 90.8174 357.954C90.308 358.573 89.7654 359.233 89.1912 359.933L84.7677 365.316C84.2658 365.928 83.7233 366.594 83.143 367.318C82.5643 368.055 82.0322 368.743 81.5469 369.383C81.0616 370.022 80.712 370.489 80.4965 370.784L81.978 372.992L80.4317 374.653ZM89.4248 382.751C88.1211 381.679 87.1339 380.519 86.4648 379.268C85.8016 378.008 85.4309 376.605 85.354 375.058C85.2771 373.512 85.4761 371.801 85.9508 369.928L87.5002 363.982L92.1301 366.272L91.5242 375.499C91.4594 376.578 91.4685 377.542 91.5514 378.392C91.6343 379.242 91.8106 380.02 92.0789 380.727C92.3486 381.447 92.7119 382.13 93.167 382.773L91.8121 384.35C91.375 384.112 90.9651 383.863 90.5853 383.604C90.1904 383.346 89.8031 383.063 89.4248 382.751Z" fill="#D23D2D"/>
<path d="M128.487 395.272L126.844 394.401L130.098 388.275C130.791 386.968 131.411 385.782 131.955 384.715C132.502 383.661 132.931 382.787 133.242 382.091C133.557 381.41 133.724 380.985 133.742 380.817L131.278 378.695L132.466 376.762L140.99 381.29L140.039 383.349L137.148 382.627C137.047 382.751 136.805 383.129 136.422 383.764C136.029 384.392 135.536 385.233 134.942 386.284C134.348 387.336 133.703 388.514 133.01 389.822L128.971 397.423C128.306 398.674 127.723 399.773 127.219 400.721C126.716 401.669 126.217 402.606 125.724 403.534L123.296 402.244L117.09 375.104L119.215 376.231L114.986 384.192C114.219 385.636 113.556 386.917 112.996 388.035C112.428 389.149 111.987 390.058 111.672 390.763C111.348 391.464 111.174 391.931 111.155 392.169L113.577 394.268L112.391 396.204L103.755 391.616L104.692 389.55L107.554 390.256C107.712 390.092 107.994 389.672 108.403 388.991C108.816 388.302 109.339 387.394 109.973 386.269C110.602 385.152 111.271 383.926 111.978 382.594L114.801 377.283C115.186 376.557 115.551 375.824 115.895 375.087C116.238 374.35 116.529 373.704 116.767 373.146C117.015 372.593 117.167 372.227 117.229 372.046L115.04 370.07L116.228 368.135L122.546 371.493L128.487 395.272Z" fill="#D23D2D"/>
<path d="M176.934 419.022C174.197 418.529 171.87 417.528 169.951 416.018C168.022 414.506 166.637 412.654 165.793 410.46C164.951 408.265 164.758 405.893 165.219 403.342C165.701 400.666 166.728 398.397 168.301 396.531C169.875 394.666 171.84 393.333 174.197 392.529C176.553 391.726 179.1 391.571 181.835 392.064C184.48 392.54 186.711 393.518 188.53 394.998C190.351 396.469 191.662 398.293 192.465 400.469C193.271 402.635 193.439 405.025 192.969 407.638C192.556 409.934 191.769 411.866 190.607 413.435C189.457 415.005 188.1 416.249 186.539 417.164C184.978 418.078 183.354 418.686 181.671 418.986C180 419.278 178.42 419.289 176.934 419.022ZM177.89 415.748C179.252 415.994 180.461 415.836 181.514 415.275C182.568 414.713 183.451 413.772 184.165 412.451C184.878 411.139 185.413 409.491 185.77 407.501C186.182 405.215 186.244 403.168 185.956 401.36C185.666 399.562 185.082 398.101 184.204 396.981C183.339 395.853 182.194 395.159 180.77 394.903C178.72 394.534 176.963 395.096 175.498 396.588C174.036 398.071 173.034 400.314 172.492 403.317C172.098 405.51 172.067 407.5 172.402 409.284C172.738 411.06 173.376 412.512 174.316 413.646C175.243 414.787 176.434 415.488 177.89 415.748Z" fill="#D23D2D"/>
<path d="M229.952 412.537L228.094 412.607L227.833 405.676C227.778 404.198 227.717 402.861 227.652 401.666C227.598 400.479 227.53 399.507 227.449 398.749C227.38 398.002 227.31 397.551 227.241 397.397L224.046 396.797L224.1 394.529L233.747 394.166L233.958 396.425L231.096 397.253C231.071 397.409 231.051 397.859 231.037 398.599C231.013 399.34 231.009 400.314 231.022 401.522C231.036 402.731 231.072 404.074 231.128 405.552L231.45 414.154C231.503 415.569 231.55 416.812 231.591 417.884C231.631 418.956 231.67 420.018 231.711 421.069L228.964 421.173L209.971 400.813L212.375 400.722L212.714 409.73C212.775 411.364 212.845 412.805 212.923 414.053C212.991 415.301 213.065 416.309 213.146 417.076C213.217 417.845 213.303 418.336 213.404 418.552L216.554 419.153L216.498 421.421L206.726 421.789L206.5 419.531L209.33 418.705C209.384 418.484 209.417 417.977 209.43 417.185C209.442 416.381 209.439 415.334 209.421 414.044C209.404 412.763 209.366 411.367 209.31 409.858L209.084 403.848C209.053 403.025 209.002 402.21 208.929 401.399C208.857 400.588 208.783 399.883 208.709 399.281C208.644 398.68 208.593 398.285 208.555 398.1L205.672 397.489L205.726 395.22L212.876 394.951L229.952 412.537Z" fill="#D23D2D"/>
<path d="M271.773 405.638L271.539 413.237C270.696 413.39 269.693 413.576 268.523 413.797C267.345 414.02 266.291 414.246 265.36 414.473L250.216 418.173L249.556 416.003L252.193 414.619C252.217 414.452 252.174 414.056 252.062 413.429C251.963 412.799 251.807 411.989 251.598 411.001C251.378 410.015 251.125 408.934 250.838 407.762L249.271 401.343C248.969 400.109 248.689 399.004 248.428 398.027C248.159 397.054 247.922 396.264 247.722 395.66C247.53 395.052 247.39 394.695 247.298 394.588L244.32 394.576L243.904 392.345L257.456 389.034C258.042 388.891 258.755 388.712 259.592 388.496C260.416 388.273 261.229 388.042 262.027 387.804C262.826 387.566 263.501 387.364 264.05 387.198L266.825 393.418L264.36 394.391L261.791 390.918C261.384 390.921 261.025 390.944 260.715 390.989C260.394 391.036 260.061 391.1 259.717 391.183L256.363 392.003C255.807 392.139 255.274 392.281 254.763 392.427C254.26 392.561 253.854 392.697 253.544 392.837C253.601 393.069 253.676 393.426 253.773 393.907C253.877 394.374 254.006 394.975 254.166 395.708C254.336 396.449 254.543 397.314 254.784 398.308L257.042 407.548C257.272 408.488 257.482 409.328 257.673 410.063C257.872 410.787 258.035 411.39 258.163 411.873C258.302 412.354 258.404 412.726 258.469 412.989C259.018 412.951 259.587 412.871 260.178 412.749C260.772 412.636 261.509 412.472 262.391 412.256L264.727 411.685C265.485 411.5 266.045 411.358 266.407 411.258C266.766 411.15 267.04 411.061 267.227 410.993C267.412 410.916 267.602 410.838 267.797 410.758L269.15 405.763L271.773 405.638ZM266.154 404.953L263.726 405.546L262.565 402.71C262.356 402.73 262.032 402.787 261.595 402.882C261.144 402.971 260.626 403.087 260.039 403.23L257.718 403.798C257.212 403.922 256.736 404.054 256.287 404.195C255.839 404.336 255.503 404.451 255.278 404.538L254.514 401.412C254.754 401.385 255.105 401.332 255.568 401.251C256.03 401.17 256.514 401.067 257.021 400.945L259.343 400.377C259.929 400.234 260.443 400.098 260.883 399.968C261.316 399.852 261.634 399.77 261.836 399.72L261.553 396.653L263.981 396.06L266.154 404.953Z" fill="#D23D2D"/>
<path d="M309.736 369.949L313.581 372.204L317.011 391.743L314.952 393.076L293.492 378.691L291.16 379.345L290.047 377.367L299.615 371.165L300.966 372.989L299.456 374.825L315.018 385.681L313.157 386.888L309.736 369.949ZM331.116 382.6L329.058 383.936L307.478 369.625L305.187 370.254L304.074 368.276L313.944 361.878L315.294 363.704L313.285 365.862L328.966 376.641L327.38 377.669L323.327 359.353L320.354 360.424L319.226 358.456L327.027 353.399L328.376 355.224L326.788 357.11L331.116 382.6Z" fill="#D23D2D"/>
<path d="M361.957 356.625C360.034 358.632 357.912 360.019 355.594 360.781C353.268 361.553 350.958 361.683 348.664 361.172C346.37 360.661 344.286 359.508 342.414 357.714C340.452 355.833 339.128 353.722 338.446 351.38C337.763 349.038 337.737 346.662 338.37 344.255C339.003 341.849 340.283 339.641 342.206 337.633C344.064 335.693 346.114 334.375 348.353 333.678C350.586 332.974 352.83 332.89 355.087 333.425C357.338 333.951 359.422 335.134 361.339 336.97C363.024 338.584 364.198 340.308 364.864 342.144C365.536 343.971 365.823 345.788 365.72 347.594C365.619 349.401 365.227 351.089 364.546 352.658C363.865 354.212 363.001 355.533 361.957 356.625ZM359.758 354.019C360.717 353.018 361.253 351.924 361.368 350.736C361.482 349.549 361.187 348.292 360.481 346.965C359.784 345.647 358.705 344.289 357.246 342.891C355.568 341.285 353.897 340.102 352.231 339.342C350.572 338.59 349.033 338.269 347.613 338.379C346.194 338.476 344.983 339.047 343.983 340.093C342.542 341.597 342.039 343.371 342.471 345.416C342.898 347.455 344.212 349.529 346.417 351.64C348.026 353.182 349.666 354.308 351.339 355.016C353.004 355.717 354.567 355.99 356.029 355.833C357.493 355.692 358.735 355.087 359.758 354.019Z" fill="#D23D2D"/>
<path d="M386.825 323.455L380.772 333.285L378.771 332.218L379.642 329.342C379.482 329.244 379.188 329.056 378.759 328.78C378.335 328.495 377.829 328.165 377.239 327.79C376.65 327.415 376.056 327.03 375.455 326.636C374.84 326.245 374.288 325.899 373.802 325.599L368.174 322.134C367.092 321.468 366.112 320.883 365.236 320.381C364.365 319.868 363.645 319.469 363.077 319.18C362.515 318.883 362.163 318.728 362.025 318.715L359.889 320.812L358.034 319.505L364.184 309.514C366.008 306.553 367.824 304.655 369.633 303.825C371.441 302.993 373.36 303.204 375.392 304.453C376.652 305.228 377.535 306.306 378.044 307.683C378.563 309.067 378.691 310.607 378.428 312.304C378.166 314.001 377.497 315.724 376.421 317.471L374.873 319.984L372.638 318.608L373.711 316.866C374.502 315.581 374.745 314.304 374.436 313.038C374.142 311.769 373.339 310.729 372.025 309.921C370.819 309.178 369.699 308.942 368.665 309.21C367.622 309.474 366.713 310.235 365.939 311.493L365.038 312.957C365.101 313.032 365.309 313.192 365.661 313.433C366.011 313.661 366.465 313.945 367.024 314.289C367.574 314.628 368.19 315.006 368.873 315.428C369.556 315.849 370.284 316.297 371.054 316.771L376.988 320.425C377.661 320.839 378.395 321.285 379.19 321.763C379.999 322.236 380.752 322.67 381.452 323.064C382.151 323.457 382.662 323.74 382.983 323.915L384.969 322.147L386.825 323.455ZM393.63 313.445C392.745 314.881 391.727 316.016 390.579 316.851C389.422 317.679 388.082 318.236 386.561 318.523C385.039 318.809 383.318 318.844 381.396 318.627L375.297 317.897L376.935 312.999L386.16 312.349C387.238 312.266 388.193 312.128 389.024 311.93C389.854 311.733 390.602 311.453 391.265 311.091C391.943 310.725 392.568 310.274 393.144 309.734L394.89 310.863C394.713 311.329 394.522 311.768 394.317 312.181C394.115 312.607 393.886 313.029 393.63 313.445Z" fill="#D23D2D"/>
<path d="M377.562 289.873L375.485 288.958L379.8 277.23C381.49 272.636 383.88 269.442 386.968 267.65C390.058 265.857 393.514 265.664 397.336 267.069C399.809 267.977 401.788 269.4 403.274 271.334C404.769 273.27 405.666 275.51 405.963 278.048C406.273 280.582 405.922 283.227 404.909 285.983L400.439 298.137L398.264 297.487L398.593 294.512C398.419 294.349 397.729 294.012 396.519 293.499C395.306 292.997 393.848 292.434 392.147 291.808L385.946 289.528C384.157 288.869 382.638 288.339 381.389 287.935C380.136 287.54 379.419 287.361 379.239 287.394L377.562 289.873ZM381.538 281.282C381.714 281.347 382.071 281.49 382.612 281.71C383.166 281.925 383.884 282.206 384.766 282.551C385.652 282.889 386.749 283.298 388.059 283.78L394.261 286.062C395.004 286.334 395.777 286.613 396.584 286.898C397.402 287.177 398.156 287.421 398.844 287.631C399.544 287.843 400.098 288.009 400.508 288.126C400.856 287.511 401.182 286.898 401.485 286.288C401.797 285.682 402.058 285.094 402.266 284.527C403.153 282.113 403.131 280.035 402.195 278.294C401.26 276.552 399.287 275.127 396.276 274.02C394.293 273.29 392.523 272.894 390.971 272.833C389.414 272.782 388.065 272.996 386.923 273.475C385.782 273.955 384.828 274.63 384.064 275.503C383.286 276.381 382.683 277.403 382.254 278.565C382.111 278.955 381.973 279.388 381.844 279.863C381.728 280.33 381.625 280.803 381.538 281.282Z" fill="#D23D2D"/>
<path d="M11.6005 214.188C11.6005 212.497 12.972 211.125 14.663 211.125C16.354 211.125 17.7255 212.497 17.7255 214.188C17.7255 215.879 16.354 217.25 14.663 217.25C12.972 217.25 11.6005 215.879 11.6005 214.188Z" fill="#D23D2D"/>
<path d="M404.876 214.188C404.876 212.497 406.247 211.125 407.938 211.125C409.629 211.125 411.001 212.497 411.001 214.188C411.001 215.879 409.629 217.25 407.938 217.25C406.247 217.25 404.876 215.879 404.876 214.188Z" fill="#D23D2D"/>
</g>
</g>
</g>
</g>
</g>
</g>
<defs>
<clipPath id="clip0_1703_691">
<rect width="422" height="422" fill="white"/>
</clipPath>
<clipPath id="clip1_1703_691">
<rect width="421.578" height="421.578" fill="white" transform="translate(0.210999 0.210938)"/>
</clipPath>
<clipPath id="clip2_1703_691">
<rect width="421.578" height="421.578" fill="white" transform="translate(0.210999 0.210938)"/>
</clipPath>
<clipPath id="clip3_1703_691">
<rect width="421.578" height="421.578" fill="white" transform="translate(0.210999 0.210938)"/>
</clipPath>
<clipPath id="clip4_1703_691">
<rect width="421.578" height="421.578" fill="white" transform="translate(0.210999 0.210938)"/>
</clipPath>
<clipPath id="clip5_1703_691">
<rect width="421.578" height="421.578" fill="white" transform="translate(0.210999 0.210938)"/>
</clipPath>
<clipPath id="clip6_1703_691">
<rect width="173.892" height="173.892" fill="white" transform="translate(124.054 124.054)"/>
</clipPath>
</defs>
</svg>
