<svg xmlns="http://www.w3.org/2000/svg" viewBox="0 0 1366 550"><defs><style>.cls-1{fill:#ffebe0;}.cls-2{opacity:0.32;}.cls-11,.cls-12,.cls-14,.cls-15,.cls-16,.cls-3,.cls-6,.cls-8,.cls-9{fill:#fff;}.cls-4{fill:#ffb5d4;}.cls-5{opacity:0.57;}.cls-20,.cls-6{opacity:0.6;}.cls-7,.cls-9{opacity:0.35;}.cls-17,.cls-8{opacity:0.36;}.cls-10{opacity:0.45;}.cls-11{opacity:0.39;}.cls-12{opacity:0.4;}.cls-13{opacity:0.47;}.cls-14{opacity:0.71;}.cls-15{opacity:0.37;}.cls-16{opacity:0.68;}.cls-18{fill:none;}.cls-19{opacity:0.1;}.cls-20{fill:#ffaf55;}.cls-21{opacity:0.41;}.cls-22{fill:#fffdff;}</style></defs><title>Asset 3</title><g id="Layer_2" data-name="Layer 2"><g id="Layer_1-2" data-name="Layer 1"><path class="cls-1" d="M1343,0h-18.14c-12.41,12.86-19.21,49-28.93,48.21-10.52-.84-12.16-43.85-20.81-48.21h-2.93c-6.54,2.93-13.35,24.16-16.36,38.26-5.37,25.09-.31,35-7.45,40.1-10.22,7.33-34.21-3.17-48.13-19-14.79-16.76-14.07-34.78-19.1-34.53-6.32.31-12.12,28.86-12.18,55.89,0,26.06,5.28,35.66,1.07,38.07-9,5.14-53-26.83-52.23-68.55C1118.26,25.43,1134.4,7.71,1143,0H0V550H1366V20.53C1357.52,22.24,1351.12,7.64,1343,0Z"/><g class="cls-2"><path class="cls-3" d="M90.09,76.08A48.57,48.57,0,0,0,79.17,101.2C78.07,110.74,79,129,89,134c11.2,5.54,25.09-10.08,33.86-3.28,4,3.07,4.4,8.78,12,13.11a15.54,15.54,0,0,0,5.46,2.18c8.93,1.43,20-7.21,19.66-14.2-.15-3.3-2.76-4.2-15.29-15.29-7-6.19-10.53-9.34-12-12-5.59-10,5.18-17.67,1.09-27.31C130.3,69,118.86,64,108.66,65.16,97.53,66.41,91.22,74.56,90.09,76.08Z"/><circle class="cls-4" cx="105" cy="77" r="3"/><circle class="cls-4" cx="125" cy="85" r="3"/><circle class="cls-4" cx="106" cy="99" r="3"/><circle class="cls-4" cx="93" cy="90" r="3"/><circle class="cls-4" cx="89" cy="106" r="3"/><circle class="cls-4" cx="94" cy="122" r="3"/><circle class="cls-4" cx="120" cy="109" r="3"/></g><g class="cls-5"><path class="cls-6" d="M276,250c-7.74.63-9.46,9.82-16,11-4.73.86-11.93-2.48-23-20,2.66,3.42,6.59,7.33,11,7,8.82-.66,9.25-17.52,21-22,9.2-3.51,22.94,1.48,27,11,3.08,7.23.68,17.31-4,19S283.57,249.38,276,250Z"/><path class="cls-6" d="M313,250c-7.74.63-9.46,9.82-16,11-4.73.86-11.93-2.48-23-20,2.66,3.42,6.59,7.33,11,7,8.82-.66,9.25-17.52,21-22,9.2-3.51,22.94,1.48,27,11,3.08,7.23.68,17.31-4,19S320.57,249.38,313,250Z"/><path class="cls-6" d="M270,273c-7.74.63-9.46,9.82-16,11-4.73.86-11.93-2.48-23-20,2.66,3.42,6.59,7.33,11,7,8.82-.66,9.25-17.52,21-22,9.2-3.51,22.94,1.48,27,11,3.08,7.23.68,17.31-4,19S277.57,272.38,270,273Z"/><path class="cls-6" d="M303,276c-7.74.63-9.46,9.82-16,11-4.73.86-11.93-2.48-23-20,2.66,3.42,6.59,7.33,11,7,8.82-.66,9.25-17.52,21-22,9.2-3.51,22.94,1.48,27,11,3.08,7.23.68,17.31-4,19S310.57,275.38,303,276Z"/></g><g class="cls-7"><path class="cls-3" d="M118.49,461.61c-5-3.35.66-31.47,19.57-46.49,12.36-9.81,26.48-10.94,33-11a9.33,9.33,0,0,1-1.22,6.12c-3.09,4.72-9.9,3-17.13,4.89-11.6,3.11-22.69,15.29-24.46,26.92-1.12,7.33,1.68,13-2.45,17.13C123.88,461.12,120.29,462.81,118.49,461.61Z"/><path class="cls-3" d="M98.73,463.85c-7.06-4.7.92-44.06,27.4-65.08,17.3-13.73,37.06-15.31,46.23-15.41a13.1,13.1,0,0,1-1.71,8.56c-4.32,6.6-13.85,4.15-24,6.85-16.24,4.35-31.76,21.39-34.24,37.68-1.57,10.26,2.35,18.19-3.43,24C106.27,463.15,101.25,465.53,98.73,463.85Z"/><path class="cls-3" d="M134.57,450.21c-2.75-1.83.36-17.15,10.66-25.34,6.74-5.34,14.44-6,18-6a5.12,5.12,0,0,1-.66,3.34c-1.69,2.57-5.4,1.61-9.34,2.66-6.32,1.7-12.36,8.33-13.33,14.67-.61,4,.92,7.08-1.33,9.33C137.5,449.94,135.55,450.86,134.57,450.21Z"/><path class="cls-3" d="M146.1,442.6c-1.21-.81.16-7.6,4.73-11.23a13.13,13.13,0,0,1,8-2.66,2.23,2.23,0,0,1-.3,1.48c-.74,1.14-2.39.72-4.13,1.18a8.8,8.8,0,0,0-5.91,6.5c-.27,1.78.4,3.14-.59,4.14C147.41,442.48,146.54,442.89,146.1,442.6Z"/></g><path class="cls-8" d="M321,67l25-16c-5.67,19.56,2.23,35.05,11,37,6.39,1.42,14.33-4.11,20-12-.43,22.6-5.42,29.22-10,31-6.53,2.54-12.33-4.75-24-6-12.51-1.34-23.52,5.15-31,11Z"/><path class="cls-9" d="M580,81q11,28,22,56c-11,1.64-20.55-2.11-24-9-3.8-7.59,1.13-16.44,2-18,9.86-17.7,36.21-17.67,36-22C615.9,85.93,609.73,83.22,580,81Z"/><g class="cls-10"><path class="cls-3" d="M464.83,263l63-63a23,23,0,0,0-5.33-5.8l-.79-.55-62.23,62.23A38.49,38.49,0,0,0,464.83,263Z"/><path class="cls-3" d="M505,189.49,454.46,240a32.32,32.32,0,0,0,1.23,7.67,32.7,32.7,0,0,0,1.55,4l60.29-60.29A27.34,27.34,0,0,0,505,189.49Z"/><path class="cls-3" d="M468.23,266.05a28.7,28.7,0,0,0,8,4.42c.56.2,1.13.37,1.69.53l54.57-54.57A36.09,36.09,0,0,0,530,204.26Z"/><path class="cls-3" d="M498.37,190.51a64.56,64.56,0,0,0-24.87,12.63c-1.76,1.46-16.38,14-18.74,31Z"/><path class="cls-3" d="M483.44,272c17.57,1.43,35.8-13,43.48-28.79A59.28,59.28,0,0,0,532.39,223Z"/></g><path class="cls-11" d="M428.5,443a43,43,0,0,0,5.76-9.05c8.89-18.93.85-38.83-1.65-44.43,1.2.4,16.14,5.69,19.75,19.74,3.42,13.37-4.83,29.09-20.57,35.38,1.07.64,22.53,12.94,42.78,1.65,11.91-6.64,16.69-17.68,18.1-21.39,3.29,13.31.43,27.05-8.22,34.55-12.82,11.12-38.36,8.61-53.48-11.51A31.87,31.87,0,0,1,391.47,494,48.71,48.71,0,0,0,412,481.67c13.23-13.46,13.93-30.39,14-34.56-1.65-1.77-17.28-18.06-38.67-14.81a40.82,40.82,0,0,0-19.75,9.05c.73-2,6.11-16.31,19.75-20.57C401.93,416.24,420.26,424.93,428.5,443Z"/><path class="cls-12" d="M677.13,425.33c-17.8,6.27-28.33,26.71-22.5,46.36l-42.94,45.67c17.23,8.11,35.75,7.1,44.31-2,11.38-12.17,8.47-42.34-17.73-60.68,30.24-11.45,59.63-8,73.63,8.87a39.21,39.21,0,0,1,8.18,17.72c1.94-3.31,8.56-15.48,4.77-29.31C719.85,433.63,698.16,417.92,677.13,425.33Z"/><g class="cls-13"><path class="cls-14" d="M789,115h82c-3.37-14.82-15.27-24.53-27-24-10.06.46-16.63,8.28-18,10-.65-1.31-5.59-11-14-12C802.42,87.84,790.4,98.15,789,115Z"/><ellipse class="cls-3" cx="798" cy="124" rx="2" ry="3"/><ellipse class="cls-3" cx="812" cy="126" rx="2" ry="3"/><ellipse class="cls-3" cx="826" cy="122" rx="2" ry="3"/><ellipse class="cls-3" cx="847" cy="124" rx="2" ry="3"/><ellipse class="cls-3" cx="865" cy="126" rx="2" ry="3"/><ellipse class="cls-3" cx="836" cy="125" rx="2" ry="3"/><ellipse class="cls-3" cx="856" cy="138" rx="2" ry="3"/><ellipse class="cls-3" cx="834" cy="142" rx="2" ry="3"/><ellipse class="cls-3" cx="816" cy="141" rx="2" ry="3"/><ellipse class="cls-3" cx="827" cy="134" rx="2" ry="3"/><ellipse class="cls-3" cx="802" cy="141" rx="2" ry="3"/></g><path class="cls-15" d="M684.36,294.73a116.6,116.6,0,0,0,19.3-46.32c.61-3.55,1-7,1.28-10.29a36.51,36.51,0,0,1,5.15,14.15c3.2,23.28-18.55,40.86-20.59,42.46a35.47,35.47,0,0,0,18-7.72c10.94-9.16,15.21-25.09,11.58-41.17,1,1.28,10.3,13.07,6.43,28.31a32.47,32.47,0,0,1-23.16,23.15c1.36-.2,29-4.75,36-25.73a31.51,31.51,0,0,0,1.29-14.15c1.68,2.82,5.67,10.39,3.86,19.3-2.49,12.27-15,22.12-30.88,23.16Z"/><path class="cls-16" d="M955,263.16V307l43.1-1.49a42.61,42.61,0,0,1-11.89-18.57c-1.3-4.24-2.23-7.27-.75-9.66,3.11-5,14-2.8,26-1.49a226.84,226.84,0,0,0,40.12.75c1.55-3.14,3.89-8.85,1.49-11.89s-8.44-1.93-11.15-1.49c-17.79,2.92-15.51-3.62-56.47-2.23C977.55,261.2,967.17,261.79,955,263.16Z"/><g class="cls-17"><path class="cls-3" d="M874.81,421.05c2-2.38,6.11-3.13,8.33-1.67,1,.67.7,1.16,1.66,1.67,2.2,1.14,4.25-1.16,6.66,0a3.08,3.08,0,0,1,1.67,1.66c.55,1.71-1.62,2.65-1.67,5,0,2.18,1.79,2.63,1.67,5,0,.18-.16,2.39-1.67,3.33s-2.39-.3-5,0c-2.91.33-3.15,1.95-5,1.66-2.29-.36-2.42-2.94-5-3.33-1.66-.25-2.66.65-3.33,0s-.19-1.36,0-3.33c.26-2.74-.24-2.92,0-5C873.35,424.32,873.55,422.53,874.81,421.05Z"/><path class="cls-3" d="M898.13,421.05c2-2.38,6.1-3.13,8.32-1.67,1,.67.7,1.16,1.67,1.67,2.19,1.14,4.24-1.16,6.66,0a3.07,3.07,0,0,1,1.66,1.66c.55,1.71-1.62,2.65-1.66,5,0,2.18,1.79,2.63,1.66,5,0,.18-.15,2.39-1.66,3.33s-2.4-.3-5,0c-2.91.33-3.14,1.95-5,1.66-2.3-.36-2.42-2.94-5-3.33-1.66-.25-2.66.65-3.33,0s-.19-1.36,0-3.33c.26-2.74-.24-2.92,0-5C896.66,424.32,896.86,422.53,898.13,421.05Z"/><path class="cls-3" d="M921.44,421.05c2-2.38,6.1-3.13,8.32-1.67,1,.67.7,1.16,1.67,1.67,2.19,1.14,4.25-1.16,6.66,0a3.07,3.07,0,0,1,1.66,1.66c.56,1.71-1.62,2.65-1.66,5,0,2.18,1.79,2.63,1.66,5,0,.18-.15,2.39-1.66,3.33s-2.4-.3-5,0c-2.9.33-3.14,1.95-5,1.66-2.29-.36-2.42-2.94-5-3.33-1.65-.25-2.66.65-3.33,0s-.18-1.36,0-3.33c.26-2.74-.23-2.92,0-5A8.74,8.74,0,0,1,921.44,421.05Z"/><path class="cls-3" d="M944.75,421.05c2-2.38,6.1-3.13,8.33-1.67,1,.67.69,1.16,1.66,1.67,2.2,1.14,4.25-1.16,6.66,0a3.08,3.08,0,0,1,1.67,1.66c.55,1.71-1.62,2.65-1.67,5,0,2.18,1.79,2.63,1.67,5,0,.18-.16,2.39-1.67,3.33s-2.4-.3-5,0c-2.91.33-3.15,1.95-5,1.66-2.29-.36-2.42-2.94-5-3.33-1.66-.25-2.66.65-3.33,0s-.19-1.36,0-3.33c.25-2.74-.24-2.92,0-5A8.65,8.65,0,0,1,944.75,421.05Z"/><path class="cls-3" d="M968.06,421.05c2-2.38,6.11-3.13,8.33-1.67,1,.67.69,1.16,1.66,1.67,2.2,1.14,4.25-1.16,6.66,0a3.08,3.08,0,0,1,1.67,1.66c.55,1.71-1.62,2.65-1.67,5,0,2.18,1.79,2.63,1.67,5,0,.18-.16,2.39-1.67,3.33s-2.39-.3-5,0c-2.91.33-3.15,1.95-5,1.66-2.29-.36-2.42-2.94-5-3.33-1.66-.25-2.66.65-3.33,0s-.19-1.36,0-3.33c.25-2.74-.24-2.92,0-5C966.6,424.32,966.8,422.53,968.06,421.05Z"/><path class="cls-3" d="M991.37,421.05c2-2.38,6.11-3.13,8.33-1.67,1,.67.7,1.16,1.67,1.67,2.19,1.14,4.24-1.16,6.66,0a3.07,3.07,0,0,1,1.66,1.66c.55,1.71-1.62,2.65-1.66,5,0,2.18,1.79,2.63,1.66,5,0,.18-.15,2.39-1.66,3.33s-2.4-.3-5,0c-2.91.33-3.14,1.95-5,1.66-2.3-.36-2.42-2.94-5-3.33-1.66-.25-2.66.65-3.33,0s-.19-1.36,0-3.33c.26-2.74-.24-2.92,0-5C989.91,424.32,990.11,422.53,991.37,421.05Z"/><path class="cls-3" d="M1016.35,421.05c2-2.38,6.11-3.13,8.33-1.67,1,.67.69,1.16,1.66,1.67,2.2,1.14,4.25-1.16,6.66,0a3.08,3.08,0,0,1,1.67,1.66c.55,1.71-1.62,2.65-1.67,5,0,2.18,1.79,2.63,1.67,5,0,.18-.16,2.39-1.67,3.33s-2.39-.3-5,0c-2.91.33-3.15,1.95-5,1.66-2.29-.36-2.42-2.94-5-3.33-1.66-.25-2.66.65-3.33,0s-.19-1.36,0-3.33c.25-2.74-.24-2.92,0-5C1014.89,424.32,1015.09,422.53,1016.35,421.05Z"/><path class="cls-3" d="M874.81,442.7c2-2.39,6.11-3.14,8.33-1.67,1,.66.7,1.16,1.66,1.67,2.2,1.14,4.25-1.16,6.66,0a3.08,3.08,0,0,1,1.67,1.66c.55,1.71-1.62,2.64-1.67,5,0,2.17,1.79,2.63,1.67,5,0,.19-.16,2.39-1.67,3.33s-2.39-.29-5,0c-2.91.33-3.15,2-5,1.67-2.29-.36-2.42-2.94-5-3.33-1.66-.26-2.66.65-3.33,0s-.19-1.36,0-3.33c.26-2.74-.24-2.93,0-5C873.35,446,873.55,444.18,874.81,442.7Z"/><path class="cls-3" d="M898.13,442.7c2-2.39,6.1-3.14,8.32-1.67,1,.66.7,1.16,1.67,1.67,2.19,1.14,4.24-1.16,6.66,0a3.07,3.07,0,0,1,1.66,1.66c.55,1.71-1.62,2.64-1.66,5,0,2.17,1.79,2.63,1.66,5,0,.19-.15,2.39-1.66,3.33s-2.4-.29-5,0c-2.91.33-3.14,2-5,1.67-2.3-.36-2.42-2.94-5-3.33-1.66-.26-2.66.65-3.33,0s-.19-1.36,0-3.33c.26-2.74-.24-2.93,0-5C896.66,446,896.86,444.18,898.13,442.7Z"/><path class="cls-3" d="M921.44,442.7c2-2.39,6.1-3.14,8.32-1.67,1,.66.7,1.16,1.67,1.67,2.19,1.14,4.25-1.16,6.66,0a3.07,3.07,0,0,1,1.66,1.66c.56,1.71-1.62,2.64-1.66,5,0,2.17,1.79,2.63,1.66,5,0,.19-.15,2.39-1.66,3.33s-2.4-.29-5,0c-2.9.33-3.14,2-5,1.67-2.29-.36-2.42-2.94-5-3.33-1.65-.26-2.66.65-3.33,0s-.18-1.36,0-3.33c.26-2.74-.23-2.93,0-5A8.74,8.74,0,0,1,921.44,442.7Z"/><path class="cls-3" d="M944.75,442.7c2-2.39,6.1-3.14,8.33-1.67,1,.66.69,1.16,1.66,1.67,2.2,1.14,4.25-1.16,6.66,0a3.08,3.08,0,0,1,1.67,1.66c.55,1.71-1.62,2.64-1.67,5,0,2.17,1.79,2.63,1.67,5,0,.19-.16,2.39-1.67,3.33s-2.4-.29-5,0c-2.91.33-3.15,2-5,1.67-2.29-.36-2.42-2.94-5-3.33-1.66-.26-2.66.65-3.33,0s-.19-1.36,0-3.33c.25-2.74-.24-2.93,0-5A8.65,8.65,0,0,1,944.75,442.7Z"/><path class="cls-3" d="M968.06,442.7c2-2.39,6.11-3.14,8.33-1.67,1,.66.69,1.16,1.66,1.67,2.2,1.14,4.25-1.16,6.66,0a3.08,3.08,0,0,1,1.67,1.66c.55,1.71-1.62,2.64-1.67,5,0,2.17,1.79,2.63,1.67,5,0,.19-.16,2.39-1.67,3.33s-2.39-.29-5,0c-2.91.33-3.15,2-5,1.67-2.29-.36-2.42-2.94-5-3.33-1.66-.26-2.66.65-3.33,0s-.19-1.36,0-3.33c.25-2.74-.24-2.93,0-5C966.6,446,966.8,444.18,968.06,442.7Z"/><path class="cls-3" d="M991.37,442.7c2-2.39,6.11-3.14,8.33-1.67,1,.66.7,1.16,1.67,1.67,2.19,1.14,4.24-1.16,6.66,0a3.07,3.07,0,0,1,1.66,1.66c.55,1.71-1.62,2.64-1.66,5,0,2.17,1.79,2.63,1.66,5,0,.19-.15,2.39-1.66,3.33s-2.4-.29-5,0c-2.91.33-3.14,2-5,1.67-2.3-.36-2.42-2.94-5-3.33-1.66-.26-2.66.65-3.33,0s-.19-1.36,0-3.33c.26-2.74-.24-2.93,0-5C989.91,446,990.11,444.18,991.37,442.7Z"/><path class="cls-3" d="M1016.35,442.7c2-2.39,6.11-3.14,8.33-1.67,1,.66.69,1.16,1.66,1.67,2.2,1.14,4.25-1.16,6.66,0a3.08,3.08,0,0,1,1.67,1.66c.55,1.71-1.62,2.64-1.67,5,0,2.17,1.79,2.63,1.67,5,0,.19-.16,2.39-1.67,3.33s-2.39-.29-5,0c-2.91.33-3.15,2-5,1.67-2.29-.36-2.42-2.94-5-3.33-1.66-.26-2.66.65-3.33,0s-.19-1.36,0-3.33c.25-2.74-.24-2.93,0-5C1014.89,446,1015.09,444.18,1016.35,442.7Z"/><path class="cls-3" d="M874.81,464.34c2-2.38,6.11-3.13,8.33-1.66,1,.66.7,1.16,1.66,1.66,2.2,1.15,4.25-1.16,6.66,0a3.11,3.11,0,0,1,1.67,1.67c.55,1.7-1.62,2.64-1.67,5,0,2.18,1.79,2.64,1.67,5,0,.19-.16,2.39-1.67,3.33s-2.39-.3-5,0c-2.91.33-3.15,2-5,1.67-2.29-.37-2.42-2.94-5-3.34-1.66-.25-2.66.66-3.33,0s-.19-1.35,0-3.33c.26-2.73-.24-2.92,0-5C873.35,467.61,873.55,465.82,874.81,464.34Z"/><path class="cls-3" d="M898.13,464.34c2-2.38,6.1-3.13,8.32-1.66,1,.66.7,1.16,1.67,1.66,2.19,1.15,4.24-1.16,6.66,0a3.1,3.1,0,0,1,1.66,1.67c.55,1.7-1.62,2.64-1.66,5,0,2.18,1.79,2.64,1.66,5,0,.19-.15,2.39-1.66,3.33s-2.4-.3-5,0c-2.91.33-3.14,2-5,1.67-2.3-.37-2.42-2.94-5-3.34-1.66-.25-2.66.66-3.33,0s-.19-1.35,0-3.33c.26-2.73-.24-2.92,0-5C896.66,467.61,896.86,465.82,898.13,464.34Z"/><path class="cls-3" d="M921.44,464.34c2-2.38,6.1-3.13,8.32-1.66,1,.66.7,1.16,1.67,1.66,2.19,1.15,4.25-1.16,6.66,0a3.1,3.1,0,0,1,1.66,1.67c.56,1.7-1.62,2.64-1.66,5,0,2.18,1.79,2.64,1.66,5,0,.19-.15,2.39-1.66,3.33s-2.4-.3-5,0c-2.9.33-3.14,2-5,1.67-2.29-.37-2.42-2.94-5-3.34-1.65-.25-2.66.66-3.33,0s-.18-1.35,0-3.33c.26-2.73-.23-2.92,0-5A8.74,8.74,0,0,1,921.44,464.34Z"/><path class="cls-3" d="M934.76,464.34c2-2.38,6.1-3.13,8.33-1.66,1,.66.69,1.16,1.66,1.66,2.19,1.15,4.25-1.16,6.66,0a3.11,3.11,0,0,1,1.67,1.67c.55,1.7-1.62,2.64-1.67,5,0,2.18,1.79,2.64,1.67,5,0,.19-.16,2.39-1.67,3.33s-2.4-.3-5,0c-2.91.33-3.15,2-5,1.67-2.29-.37-2.42-2.94-5-3.34-1.65-.25-2.65.66-3.33,0s-.18-1.35,0-3.33c.26-2.73-.23-2.92,0-5A8.74,8.74,0,0,1,934.76,464.34Z"/><path class="cls-3" d="M944.75,464.34c2-2.38,6.1-3.13,8.33-1.66,1,.66.69,1.16,1.66,1.66,2.2,1.15,4.25-1.16,6.66,0a3.11,3.11,0,0,1,1.67,1.67c.55,1.7-1.62,2.64-1.67,5,0,2.18,1.79,2.64,1.67,5,0,.19-.16,2.39-1.67,3.33s-2.4-.3-5,0c-2.91.33-3.15,2-5,1.67-2.29-.37-2.42-2.94-5-3.34-1.66-.25-2.66.66-3.33,0s-.19-1.35,0-3.33c.25-2.73-.24-2.92,0-5A8.66,8.66,0,0,1,944.75,464.34Z"/><path class="cls-3" d="M958.07,464.34c2-2.38,6.1-3.13,8.33-1.66,1,.66.69,1.16,1.66,1.66,2.2,1.15,4.25-1.16,6.66,0a3.11,3.11,0,0,1,1.67,1.67c.55,1.7-1.62,2.64-1.67,5,0,2.18,1.79,2.64,1.67,5,0,.19-.16,2.39-1.67,3.33s-2.39-.3-5,0c-2.91.33-3.15,2-5,1.67-2.29-.37-2.42-2.94-5-3.34-1.66-.25-2.66.66-3.33,0s-.19-1.35,0-3.33c.25-2.73-.24-2.92,0-5A8.66,8.66,0,0,1,958.07,464.34Z"/><path class="cls-3" d="M968.06,464.34c2-2.38,6.11-3.13,8.33-1.66,1,.66.69,1.16,1.66,1.66,2.2,1.15,4.25-1.16,6.66,0a3.11,3.11,0,0,1,1.67,1.67c.55,1.7-1.62,2.64-1.67,5,0,2.18,1.79,2.64,1.67,5,0,.19-.16,2.39-1.67,3.33s-2.39-.3-5,0c-2.91.33-3.15,2-5,1.67-2.29-.37-2.42-2.94-5-3.34-1.66-.25-2.66.66-3.33,0s-.19-1.35,0-3.33c.25-2.73-.24-2.92,0-5C966.6,467.61,966.8,465.82,968.06,464.34Z"/><path class="cls-3" d="M991.37,464.34c2-2.38,6.11-3.13,8.33-1.66,1,.66.7,1.16,1.67,1.66,2.19,1.15,4.24-1.16,6.66,0a3.1,3.1,0,0,1,1.66,1.67c.55,1.7-1.62,2.64-1.66,5,0,2.18,1.79,2.64,1.66,5,0,.19-.15,2.39-1.66,3.33s-2.4-.3-5,0c-2.91.33-3.14,2-5,1.67-2.3-.37-2.42-2.94-5-3.34-1.66-.25-2.66.66-3.33,0s-.19-1.35,0-3.33c.26-2.73-.24-2.92,0-5C989.91,467.61,990.11,465.82,991.37,464.34Z"/><path class="cls-3" d="M1016.35,464.34c2-2.38,6.11-3.13,8.33-1.66,1,.66.69,1.16,1.66,1.66,2.2,1.15,4.25-1.16,6.66,0a3.11,3.11,0,0,1,1.67,1.67c.55,1.7-1.62,2.64-1.67,5,0,2.18,1.79,2.64,1.67,5,0,.19-.16,2.39-1.67,3.33s-2.39-.3-5,0c-2.91.33-3.15,2-5,1.67-2.29-.37-2.42-2.94-5-3.34-1.66-.25-2.66.66-3.33,0s-.19-1.35,0-3.33c.25-2.73-.24-2.92,0-5C1014.89,467.61,1015.09,465.82,1016.35,464.34Z"/><path class="cls-3" d="M873.15,399.4c-.59,1.2-.39,3,0,6.66.49,4.56.73,6.86,1.66,8.33,3.2,5,16,2.43,20,1.66,14.73-2.79,30-1,45-1.66,19.82-.93,35.67-1.66,53.29,0,8.86.83,18-.59,26.64,1.66,4,1.05,10.44,3.16,15,0,.45-.31,3.36-2.33,3.33-5,0-2.44-2.5-3.18-3.33-6.66-.63-2.67.47-3.7,0-5-1.56-4.28-16.94-2.3-23.31-1.66-16,1.59-11.75-1.62-41.63-1.67-29,0-24.74,3-41.63,1.67-13.29-1.05-26.67-.65-40-1.67C885.19,395.85,875.28,395.06,873.15,399.4Z"/></g><path class="cls-18" d="M1337.42,10.53c-3.15.12-6,1.79-8.55,4.47H1347C1344.09,12.25,1341,10.39,1337.42,10.53Z"/><path class="cls-18" d="M1277.8,14.65a3.57,3.57,0,0,0-1.6.35h2.93A3.33,3.33,0,0,0,1277.8,14.65Z"/><g class="cls-19"><path class="cls-20" d="M1117.82,50.28c-.74,41.72,43.28,73.69,52.23,68.55,4.21-2.41-1.12-12-1.07-38.07.06-27,5.86-55.58,12.18-55.89,5-.25,4.31,17.77,19.1,34.53,13.92,15.79,37.91,26.29,48.13,19,7.14-5.13,2.08-15,7.45-40.1,3-14.1,9.82-35.33,16.36-38.26H1143C1134.4,7.71,1118.26,25.43,1117.82,50.28Z"/><path class="cls-20" d="M1343,0c8.11,7.64,14.51,22.24,23,20.53V0Z"/><path class="cls-20" d="M1295.94,48.21c9.72.77,16.52-35.35,28.93-48.21h-49.74C1283.78,4.36,1285.42,47.37,1295.94,48.21Z"/></g><g class="cls-21"><path class="cls-3" d="M1281.29,355.7c5.6-2.38,3.88-18.59,2.83-28.51-2.42-22.8-8.95-25.56-6.41-37.17,3-14,13.8-15.95,13.6-28.72-.15-9.21-5.86-15.92-7.83-18.24-13.85-16.25-38.14-12.89-42.2-12.25-7.51,1.18-22.7,3.58-29.82,16.8-4.92,9.13-5.7,22.9,1,30.08,5,5.38,10.39,2.92,26.28,11.82,5.72,3.19,8.3,5.34,10,8.55,2.7,5.23.73,9,1,15.69.37,10.29,5.64,17.83,10.21,24.36C1260.53,339.05,1274.42,358.62,1281.29,355.7Z"/><path class="cls-22" d="M1189.25,246.05a15.27,15.27,0,0,1,2.84-5c.63-.67,3.85-4.13,7.12-3.55s4.58,4.5,7.12,11.38c1.89,5.15,1.63,6.93,1.42,7.83a10.5,10.5,0,0,1-5,6.4,10.66,10.66,0,0,1-10.68,0c-4.45-2.69-4.92-7.82-5-9.25C1187,251.28,1187.88,249.25,1189.25,246.05Z"/></g><path class="cls-15" d="M1263,469c-17.17-20.4-22.06-35.47-29-34-4.4.93-3.78,7.28-12.2,18h6.2a7,7,0,0,1,0,14h-20a7.19,7.19,0,0,1-1-.09c-.31.34-.62.7-1,1.09a63.11,63.11,0,0,0-8.08,12H1218a7,7,0,0,1,0,14h-20a6.92,6.92,0,0,1-4.07-1.32A23.85,23.85,0,0,0,1195,503c.65,1.9,2.6,7.59,8,11,9.43,6,17.18-2.76,34-2,17.67.8,21.13,11,34,8,8.29-1.91,17.89-8.66,19-17C1291.29,493.35,1280.17,489.4,1263,469Zm3,34h-20a7,7,0,0,1,0-14h20a7,7,0,0,1,0,14Z"/></g></g></svg>